<svg version="1.1" xmlns="http://www.w3.org/2000/svg" xmlns:xlink="http://www.w3.org/1999/xlink" >

<symbol id="icon-cart" viewBox="0 0 32 32">
<path d="M12 29c0 1.657-1.343 3-3 3s-3-1.343-3-3c0-1.657 1.343-3 3-3s3 1.343 3 3z"></path>
<path d="M32 29c0 1.657-1.343 3-3 3s-3-1.343-3-3c0-1.657 1.343-3 3-3s3 1.343 3 3z"></path>
<path d="M32 16v-12h-24c0-1.105-0.895-2-2-2h-6v2h4l1.502 12.877c-0.915 0.733-1.502 1.859-1.502 3.123 0 2.209 1.791 4 4 4h24v-2h-24c-1.105 0-2-0.895-2-2 0-0.007 0-0.014 0-0.020l26-3.98z"></path>
</symbol>

<symbol id="icon-earth" viewBox="0 0 32 32">
<path d="M16 32c-8.836 0-16-7.164-16-16s7.164-16 16-16c8.836 0 16 7.164 16 16s-7.164 16-16 16zM28.968 14.659c0.026-0.013 0.040-0.035 0.050-0.070 0.021 0.111 0.072 0.209 0.154 0.281 0.002 0.010-0.003 0.008 0.002 0.022 0.008 0 0.014-0.006 0.021-0.006 0.084 0.068 0.188 0.114 0.305 0.114 0.18 0 0.33-0.1 0.418-0.241 0.006 0.007 0.016 0.016 0.021 0.024-0.001-0.016-0.003-0.032-0.005-0.048 0.039-0.071 0.066-0.149 0.066-0.235 0-0.276-0.225-0.5-0.5-0.5-0.176 0-0.322 0.096-0.412 0.232-0.004-0.003 0-0.015-0.011-0.011 0.013-0.038-0.022-0.135-0.077-0.239v0.518c0 0.057-0.016 0.108-0.032 0.159zM5.992 14.509c0-0.151-0.344-0.408-0.433-0.408 0-0.027-0.14-0.335-0.193-0.335 0-0.104-0.365-0.571-0.423-0.367-0.038 0.132 0.279 0.31 0.279 0.463 0.059 0 0.307 0.47 0.356 0.552 0.542 0.916-0.405 0.29-0.405-0.098-0.121-0.060-0.312-0.521-0.312-0.647-0.071-0.057-0.281-0.502-0.264-0.502 0-0.292-0.161-0.432-0.481-0.432-0.015-0.029-0.284-0.407-0.289-0.407 0-0.12-0.216-0.492-0.336-0.551 0-0.249-0.128-0.556-0.071-0.814 0-0.271-0.014-0.578-0.106-0.856-0.835 1.793-1.314 3.785-1.314 5.893 0 6.041 3.834 11.174 9.196 13.137 0.006-0.496 0.043-1.090 0.156-1.090 0-0.074 0.063-0.384 0.12-0.384 0-0.19 0.023-0.419 0-0.647-0.071-0.143 0.094-0.326 0.144-0.551 0.277-0.139 0.081-1.533 0.29-1.533 0-0.697 0.156-1.103 0.047-1.749 0.053 0-0.315-0.391-0.312-0.384-0.353 0-0.6-0.566-0.6-0.814-0.034-0.109-0.121-0.272-0.121-0.407 0.081 0-0.505-0.856-0.505-0.839-0.31-0.172 0.017-0.412 0.048-0.694-0.269-0.089 0.003-0.815 0.12-0.815 0.012-0.092 0.060-0.155 0.145-0.191 0.060 0.239 0.339-0.119 0.12-0.119 0-0.158-0.018-0.496 0-0.575 0-0.244-0.216-0.722-0.384-0.216-0.18-0.089-0.634-0.073-0.673-0.359 0.028-0.141-0.259-0.429-0.36-0.479 0.094-0.246-0.487-0.575-0.697-0.575 0-0.053-0.111-0.029-0.144-0.096-0.214 0-0.263-0.288-0.505-0.288-0.279 0-0.56-0.191-0.817-0.191-0.086-0.171-0.485-0.104-0.577-0.288-0.209 0-0.291-0.396-0.297-0.542-0.009-0.18-0.152-0.802-0.402-0.802zM26.248 6.484c-0.002 0.006 0.002 0.002-0.008 0.022 0.015 0 0.033 0.017 0.050 0.024-0.015-0.015-0.028-0.030-0.042-0.046zM26.549 6.815c0.035 0.068 0.061 0.131 0.053 0.17 0.035 0.001 0.052-0.018 0.080-0.025-0.043-0.049-0.090-0.095-0.133-0.145zM27.418 11.371c0.016-0.432-0.36-0.36-0.479-0.6-0.124 0-0.169-0.096-0.337-0.096-0.109-0.037-0.195-0.011-0.258 0.078-0.257 0.098-0.102-0.125-0.295-0.125 0.009-0.247-0.089-0.315-0.361-0.288-0.156 0.352-0.396 0.563-0.36 0.959 0.115 0.026 0.095 0.052 0.072 0.167 0.153 0.008 1.081-0.048 1.081-0.144 0.032 0 0.193 0.331 0.193 0.048 0.129 0 0.197 0.303 0.505 0.215 0 0.062 0.514-0.214 0.239-0.214zM27.467 16.474c0.018-0.088-0.044-0.127-0.096-0.216 0.137 0-0.433-1.057-0.433-1.222-0.087-0.043-0.198-0.345-0.218-0.455-0.117-0.078-0.238-0.334-0.288-0.479-0.119-0.079-0.409-0.433-0.456-0.599 0.172 0.019 0.432 0.054 0.432-0.168-0.116 0-0.133-0.143-0.023-0.143-0.036-0.147 0.078-0.253 0.103-0.368 0.030-0.139 0.089-0.353 0.089-0.519-0.165 0-0.205 0.028-0.336 0.072 0 0.097-0.293-0.024-0.336-0.024-0.063-0.126-0.52 0.164-0.648-0.096-0.207-0.187-0.151-0.331-0.218-0.595-0.034-0.134-0.217-0.142-0.328-0.164-0.313-0.061-0.087 0.373-0.104 0.472 0.192 0-0.121 0.238-0.121 0.359-0.324-0.070-0.216-0.431-0.407-0.527-0.057-0.096-0.012-0.168-0.145-0.168 0-0.128 0.068-0.36-0.072-0.407 0-0.062-0.272-0.087-0.312-0.168-0.172 0-0.572-0.65-0.695-0.431-0.077 0.14 0.065 0.174 0.094 0.288 0.249-0.049 0.225 0.41 0.529 0.359 0 0.064 0.008 0.129 0.023 0.192 0.225-0.053 0.199 0.167 0.312 0.167-0.082 0.109-0.342-0.174-0.271 0.064 0.041 0.138 0.018 0.256-0.161 0.391 0-0.149-0.012-0.551-0.168-0.551-0.106-0.212-0.421-0.161-0.554-0.359-0.108 0-0.15-0.336-0.336-0.359-0.035 0.049-0.166 0.096-0.217 0.096-0.101 0.203-0.672 0.021-0.672 0.048-0.009 0.002-0.32 0.762-0.338 0.862-0.035 0.215-0.208 0.219-0.26 0.423-0.026 0.102-0.653 0.054-0.653 0.129-0.271-0.090-0.505-0.28-0.505-0.575-0.022 0 0.051-0.753 0.097-0.863 0.055 0.015 0.066 0.034 0.097 0.096 0.166-0.062 0.553 0.041 0.553-0.144 0.161 0.004 0.209 0.068 0.144 0.192 0.15 0.028 0.409 0.066 0.409-0.144-0.088 0-0.097-0.008-0.097-0.096 0.288-0.299-0.216-0.569-0.216-0.718-0.102-0.034-0.31-0.255-0.162-0.172 0.125 0.069 0.582 0.212 0.402-0.092 0.012-0.004 0.020-0.012 0.023-0.023 0.051 0.036 0.266 0.257 0.266 0.048 0.059 0 0.287-0.144 0.096-0.144 0.018-0.108 0.014-0.198 0.023-0.264 0.305 0.164 0.135-0.112 0.289-0.215 0 0.199 0.164-0.096 0.264-0.096 0.119-0.177 0.391-0.040 0.457-0.24-0.147-0.048-0.12-0.416-0.12-0.55 0.177 0.029 0.374-0.239 0.401-0.055 0.010 0.071 0.019 0.267 0.055 0.294 0.263 0.138 0.193-0.079 0.193-0.215-0.088 0-0.205-0.308-0.217-0.456-0.072 0.010-0.188 0.040-0.217 0.095-0.262 0-0.44-0.095-0.648-0.095-0.016-0.032-0.266-0.312-0.24-0.312-0.146-0.251 0.146-0.178 0.192-0.19 0-0.238 0.991-0.196 1.034-0.576-0.326 0 0.336-0.552 0.336-0.55 0.221-0.189 0.338-0.352 0.613-0.373 0.116-0.008 1.406-0.364 1.406-0.203 0.052 0.002 0.224 0.004 0.402 0.010-2.497-2.322-5.834-3.752-9.513-3.752-3.563 0-6.806 1.342-9.277 3.535 0.022 0.050 0.039 0.098 0.038 0.132 0.131-0.009 0.319-0.093 0.361 0.073-0.065-0.001-0.13-0.009-0.192-0.025 0.046 0.371-0.162 0.144-0.336 0.144 0-0.009-0.077-0.040-0.159-0.062-0.053 0.050-0.109 0.097-0.162 0.147 0.006 0.016-0.003 0.017 0.007 0.035 0.056 0 0.027 0.087 0.187 0.14 0.185 0.063 0.388 0.098 0.583 0.129 0.158 0.025 0.249-0.029 0.384-0.029 0-0.020 0.33-0.167 0.097-0.167 0.032-0.132-0.027-0.165-0.169-0.167 0.012-0.14 0.345-0.048 0.481-0.048 0.104-0.175 0.003-0.154 0.095-0.313 0.11-0.195 0.241-0.026 0.313-0.213 0.109 0.040 0.206 0.099 0.241 0.237 0.087 0.072 0.529 0.724 0.529 0.263 0.158 0.053 0.237 0.349 0.24 0.504 0.287-0.042 0.312-0.257 0.312-0.48 0.066 0-0.024-0.107-0.024-0.144 0.107-0.039 0.241 0.102 0.241-0.047 0.046 0 0.048 0.046 0.048 0.096 0.149 0.029 0.245-0.017 0.336 0.015 0.063 0.022 0.031 0.349 0.002 0.464-0.036 0.146-0.315 0.148-0.315 0.216-0.316 0.236 0.373 0.359 0.481 0.503-0.065 0-0.312-0.032-0.312-0.047-0.156 0-0.534 0.165-0.673 0.047 0.194 0 0.259-0.233 0.289-0.455-0.179-0.067-0.39 0.043-0.44 0.221-0.084 0.294-0.279-0.012-0.377 0.186-0.038 0.012-0.385 0.173-0.385 0.119-0.39 0.055-0.288 0.386-0.288 0.743 0.155 0.093 0.47 0.358 0.456 0.503 0.35 0.062 0.478 0.099 0.793 0.144 0.026 0.051 0.13 0.099 0.193 0.119 0 0.206 0.187 0.169 0.36 0.169 0-0.263 0.306 0.219 0.336 0.311-0.042 0 0.072 0.269 0.096 0.36-0.048-0.017-0.063 0-0.048 0.048 0.152 0.056 0.393 0.040 0.433-0.12-0.146 0-0.097-0.167-0.097-0.264-0.15-0.1-0.127-0.293 0.024-0.335 0 0.136 0.495-0.085 0.216-0.191 0.068-0.153 0.114-0.388 0.003-0.521-0.071-0.084-0.16 0-0.195-0.126 0.189-0.047 0.050-0.407 0.048-0.575 0.060-0.023 0.216 0.038 0.216 0 0.185 0 0.493 0.234 0.601-0.049 0.309 0.141 0.063 0.275 0.385 0.168 0 0.076 0.363 0.431 0.409 0.431 0 0.017-0.009 0.12 0.071 0.12 0 0.077-0.048-0.044-0.048 0.095 0.045 0.005 0.289 0.049 0.289-0.047 0.155 0 0.264-0.19 0.264-0.335 0.097-0.063 0.267 0.527 0.384 0.527 0.086 0.134 0.361 0.329 0.361 0.455 0.058 0.059 0.119 0.043 0.119 0.216 0.073 0 0.217-0.287 0.217-0.024 0.068 0 0.266 0.146 0.289 0.263-0.173 0-0.009 0.168-0.098 0.168 0 0.166-0.371 0.034-0.455 0.024-0.115 0.515-0.809 0.145-1.229 0.278-0.221 0.070-0.648 0.557-0.671 0.8 0.268 0.003 0.386-0.232 0.625-0.312 0.195 0 0.233-0.118 0.409-0.167 0 0.049 0.048 0.023 0.048 0.072-0.342 0-0.134 0.221-0.034 0.382 0.062 0.1 0.133 0.148 0.212 0.179-0.033 0.058-0.060 0.116-0.081 0.181 0 0.001-0.001 0-0.001 0.001-0.065 0.022-0.192 0.069-0.217 0.12-0.387 0.043-0.196 0.017-0.17-0.076 0.014 0.033 0.153 0.003 0.147 0.004-0.023-0.116-0.058-0.1-0.024-0.167-0.21 0-0.312 0.096-0.481 0.096-0.028 0.057-0.175 0.192-0.24 0.192-0.049 0.148-0.16 0.417-0.289 0.503 0-0.039-0.342 0.215-0.312 0.215-0.076 0.123-0.159 0.119-0.193 0.311-0.023 0.012-0.12 0.333-0.12 0.383-0.149 0.099-0.204 0.503-0.457 0.503-0.155 0.308-0.433 0.267-0.433 0.671 0.094 0.096 0.13 0.521 0.159 0.657 0.036 0.169 0.092 0.345-0.134 0.349-0.016-0.025-0.174-0.264-0.145-0.264 0-0.099-0.121-0.416-0.192-0.515-0.095-0.133-0.271 0.021-0.409-0.037-0.059-0.118-0.458-0.144-0.6-0.144 0.023 0.089 0.088 0.117 0.096 0.216-0.118 0.048-0.186 0.102-0.308 0.085-0.209-0.029-0.184-0.192-0.414-0.169-0.368 0.037-0.625 0.342-0.625 0.707-0.041 0-0.041 0.719 0 0.719 0 0.203 0.168 0.35 0.168 0.503 0.163 0 0.346 0.359 0.505 0.359 0.018 0.127-0.080 0.147 0.192 0.145 0-0.014 0.148-0.093 0.168-0.192-0.188-0.046-0.001-0.288 0.12-0.335 0 0.171 0.24-0.057 0.24-0.072 0.027-0.011 0.265-0.096 0.265-0.096 0-0.194 0.181 0.019 0.048 0.096-0.13 0-0.12 0.216-0.192 0.216-0.031 0.154-0.092 0.288-0.128 0.438-0.046 0.185 0.104 0.204 0.056 0.377 0.191 0.036 0.384 0.001 0.577 0 0.001-0.034-0.006-0.067-0.024-0.096 0.279 0 0.024 0.527 0.193 0.527 0 0.199 0.096 0.354 0.096 0.479 0.13 0.086 0.208 0.201 0.168 0.359 0.16 0.021 0.504 0.062 0.504-0.144 0.243 0 0.26 0.165 0.242 0.335 0.484 0 0.181-0.479 0.383-0.479 0.019-0.079 0.052-0.093 0.099-0.041 0.099 0.053 0.174-0.099 0.253-0.147 0.025-0.017 0.113-0.068 0.129-0.068 0.068 0.041 0.074 0.029 0.104 0.075 0.132-0.001 0.265-0.075 0.378-0.153 0.173 0.021 0.117 0.393 0.441 0.416 0.13 0.009 0.431 0.045 0.543-0.032 0.028-0.019 0.131 0.065 0.142 0.101 0.108 0 0.1 0.094 0.146 0.092 0.011 0.021 0.027 0.029 0.049 0.023 0.014 0.041 0.1 0.053 0.145 0.167 0 0.104 0.216 0.122 0.216 0.191 0.155 0.078-0.053 0.099 0.185 0.171 0.131 0.041 0.252 0.107 0.393 0.117 0.045-0.171 0.191 0.023 0.265 0.023 0.038 0.078 0.058 0.019 0.095 0.096 0.223 0.186 0.076 0.114 0.168 0.312 0.107 0.070 0.141 0.314 0.17 0.455-0.086 0-0.025 0.329-0.025 0.36-0.104 0 0.266 0.197 0.266-0.049 0.152 0.025 0.252 0.191 0.36 0.191-0.063 0.145 0.168 0.254 0.168 0.025 0.228 0.023 0.167 0.363 0.145 0.479 0.169 0 0.218-0.094 0.362-0.112 0.156-0.099 0.33-0.171 0.527-0.171 0.553 0 1 0.447 1 1 0 0.498-0.371 0.893-0.848 0.969-0.064 0.073-0.122 0.136-0.126 0.136 0 0.048-0.011 0.526-0.025 0.526 0 0.096-0.073 0.623-0.144 0.623 0 0.271-0.177 0.32-0.24 0.575-0.146 0.108-0.541 0.288-0.602 0.407-0.113 0-0.197 0.096-0.312 0.096-0.016 0.033-0.261 0.264-0.217 0.264-0.018 0.17 0.013 0.57-0.079 0.682-0.062 0.074-0.151 0.066-0.112 0.182-0.135 0 0.008 0.096-0.205 0.096-0.134 0-0.373 0.191-0.38 0.353-0.009 0.198-0.062 0.341-0.232 0.462 0 0.068-0.312 0.088-0.312 0.264 0.029 0 0 0.326 0 0.359-0.093-0.003-0.321 0.090-0.36 0.167-0.314 0-0.276 0.032-0.48 0.168 0 0.042-0.029 0.191-0.072 0.191 0 0.243-0.173 0.022-0.313 0.145 0.055 0 0.125 0.239 0.096 0.239 0 0.211-0.131 0.229-0.264 0.384-0.063 0.042-0.123 0.216-0.168 0.216 0 0.142-0.071 0.271-0.071 0.407 0.030 0 0.002 0.061 0.023 0.118 0.067-0.019 0.069-0.095 0.096-0.095 0-0.12 0.191 0.071 0.072 0.071-0.099 0.15-0.206 0.153-0.265 0.36-0.060 0-0.112 0.058-0.156 0.126 1.178 0.321 2.414 0.509 3.696 0.509 4.924 0 9.246-2.548 11.742-6.393 0.015-0.354 0.070-0.692 0.109-0.809 0.098 0.072 0.171 0.207 0.24 0-0.173-0.034-0.131-0.094-0.072-0.239 0.066 0.040 0.199 0.089 0.307 0.082 0.033-0.062 0.059-0.128 0.092-0.19-0.098-0.076 0.037-0.273 0.084-0.177 0.025-0.048 0.047-0.098 0.070-0.146-0.011-0.003-0.008 0.004-0.024-0.001 0-0.087 0.016-0.076 0.073-0.12 0.001 0.009 0 0.009 0.002 0.017 0.873-1.827 1.377-3.864 1.377-6.024 0-0.071-0.010-0.139-0.011-0.21-0.026 0.098-0.075 0.204-0.144 0.228 0 0.063-0.715 0.374-0.672 0.503-0.126 0-0.568 0.126-0.649 0.287-0.089 0-0.448 0.127-0.481 0.192-0.446 0.001-0.361-0.526-0.576-0.526zM29.5 11h-0.531c-0.004-0.005-0.008-0.006-0.012-0.013-0.027 0-0.14-0.254-0.096-0.312 0.043 0 0.063 0.004 0.086 0.006-0.045-0.11-0.094-0.218-0.143-0.327-0.108 0.074-0.203 0.168-0.352 0.177 0 0.041-0.213 0.455 0 0.455 0 0.008 0.004 0.014 0.006 0.021-0.255 0.024-0.458 0.232-0.458 0.493 0 0.276 0.224 0.5 0.5 0.5h0.197c0.012 0.091 0.061 0.17 0.236 0.209 0.055 0.231 0.467 0.313 0.529 0.071-0.174 0-0.117-0.167-0.102-0.28h0.14c0.275 0 0.5-0.224 0.5-0.5s-0.225-0.5-0.5-0.5zM28.043 17.502c0.035 0.002 0.266-0.004 0.266-0.045 0.209 0 0.492-0.029 0.697-0.097 0 0.31-0.261 0.483-0.217 0.791-0.173 0-0.097 0.178-0.097 0.239-0.112 0.069-0.129 0.195-0.264 0.264 0 0.139-0.312 0.369-0.404 0.488-0.104 0.133-0.417 0.364-0.458 0.533 0.011-0.040-0.572 0.607-0.436 0.607 0 0.121-0.164 1.078 0.048 1.078 0 0.084 0.181 0.887 0.071 0.887 0 0.258-0.168 0.416-0.168 0.622-0.082 0.056-0.199 0.087-0.24 0.169-0.147 0-0.218 0.312-0.288 0.312 0 0.333-0.097 0.58-0.097 0.958 0.027 0-0.192 0.539-0.192 0.574-0.177 0.119-0.625 0.546-0.625 0.768 0 0-0.312 0.438-0.36 0.503-0.094 0-0.818 0.136-0.818 0.192-0.154 0-0.552 0.121-0.648-0.024 0-0.152-0.083-0.345-0.096-0.552-0.074 0-0.086-0.311-0.168-0.311 0-0.066-0.459-0.983-0.385-0.983 0-0.095-0.082-0.407-0.096-0.407 0-0.33-0.241-0.605-0.241-0.91-0.071 0-0.218-0.67-0.144-0.67 0-0.352 0.123-0.582 0.174-0.973 0.057-0.429-0.027-0.69-0.102-0.993-0.041 0-0.179-0.229-0.193-0.287-0.193-0.128-0.264-0.382-0.264-0.622 0.126-0.144 0.176-0.685 0.145-0.863-0.243-0.115-0.34-0.072-0.602-0.072-0.155-0.311-1.196-0.119-1.491-0.119 0 0.17-0.725-0.033-0.793-0.168-0.177 0-0.528-0.376-0.528-0.551-0.194-0.129-0.504-0.771-0.504-0.982-0.168-0.084-0.117-0.408-0.025-0.408 0.023-0.090-0.059-0.374-0.098-0.509-0.029-0.101 0.098-0.21 0.098-0.33 0-0.334 0.008-0.488 0.195-0.845 0.059-0.112 0.134-0.217 0.189-0.357 0.1-0.251 0.13-0.012 0.265-0.236 0.129-0.064 0.204-0.278 0.337-0.383 0.058-0.077 0.060-0.109 0-0.168 0.026 0 0.168-0.369 0.168-0.454 0.188-0.261 0.055-0.142 0.24-0.12 0.068-0.074 0.181-0.264 0.288-0.264 0.047-0.093 0.165-0.144 0.265-0.144 0 0.144 0.392-0.047 0.433-0.047 0.067-0.135 0.499-0.288 0.601-0.288 0-0.164 0.852 0.046 0.986 0.024 0-0.024 0-0.048 0-0.072 0.182 0.043 0.514 0.773 0.48 0.935 0.14 0 0.27-0.023 0.361 0 0 0.155 0.292 0.193 0.425 0.2 0.185 0.009 0.728-0.019 0.728-0.272 0.143 0 0.27 0.1 0.242 0.263 0.162 0.018 1.125 0.037 1.057 0.239 0.141 0 0.177 0.241 0.312 0.241-0.027 0.166 0.168 0.599 0.312 0.599 0 0.144 0.090 0.409 0.217 0.502 0.068 0.206 0.293 0.64 0.504 0.767-0.090 0.17 0.137 0.31 0.193 0.479-0.013 0 0.049 0.251 0.119 0.288 0 0.17 0.358 0.863 0.554 0.863 0.013 0.084-0.184 0.122 0.072 0.141zM22.852 12.137c0.037-0.143 0.121-0.032 0.199-0.006 0.185 0.060 0.121-0.003 0.258-0.065 0 0.39-0.224 0.094-0.457 0.071zM22.346 11.418c0.098 0 0.125 0.44-0.144 0.359 0-0.109-0.069-0.311 0.073-0.311 0.041 0.17 0.071 0.101 0.071-0.048zM22.227 11.131c0.111 0.048 0.16 0.032 0.144-0.048 0.146 0.048-0.019 0.152-0.048 0.264-0.075-0.074-0.052-0.1-0.096-0.216zM19.654 8.998c-0.236-0.061 0.243-0.131 0.264-0.191-0.080 0-0.135-0.083-0.104-0.153 0.036-0.083 0.095 0.099 0.177 0.058 0.097-0.010 0.288-0.155 0.19 0.125-0.1 0.284-0.191 0.492-0.551 0.497-0.129-0.13-0.005-0.198 0.024-0.336zM20.544 8.016c0.194 0 0.024 0.144-0.019 0.144 0.033 0.013-0.006 0.129-0.006 0.167 0.18-0.002 0.183-0.112 0.312-0.144-0.027 0.161-0.207 0.192-0.031 0.33 0.093 0.073 0.188 0.159 0.151 0.27 0.229 0 0.263 0.22 0.216 0.479 0.127 0 0.121 0.006 0.121-0.121 0.123 0.034 0.114 0.145 0 0.145-0.114 0.225-0.413 0.215-0.625 0.215-0.002-0.174-0.035-0.185-0.196-0.136-0.22 0.067-0.048-0.175-0.044-0.295 0.024 0 0.499 0.022 0.216-0.072-0.015-0.258-0.073-0.335-0.312-0.335 0-0.176-0.062-0.163-0.091-0.356-0.041-0.285 0.223 0.020 0.308-0.291zM20.471 9.573c0 0.059-0.12 0.106-0.144 0.023 0.023 0.008 0.032 0 0.023-0.023 0.041 0 0.082 0 0.121 0zM18.5 7h-1c-0.276 0-0.5-0.224-0.5-0.5s0.224-0.5 0.5-0.5h1c0.276 0 0.5 0.224 0.5 0.5s-0.224 0.5-0.5 0.5zM12.674 15.85c0.056 0 0.121 0.022 0.121 0.072-0.073 0-0.167 0.069-0.121-0.072zM11.762 15.899c-0.040 0.076-0.364 0.063-0.409-0.025 0.12 0 0.213 0.049 0.336 0 0-0.066-0.055-0.119-0.096-0.191 0.131 0 0.278 0.1 0.457 0.096 0-0.111-0.049 0.024 0-0.12 0.075 0.019 0.256 0.191 0.264 0.263-0.263-0.028-0.275-0.023-0.552-0.023zM10.704 15.324c-0.123 0-0.36-0.107-0.433-0.216 0.119 0.005 0.237 0.054 0.312-0.072 0.305 0.031 0.332 0.241 0.577 0.241 0.046 0.081 0.308 0.267 0.055 0.291-0.191 0.018-0.431-0.086-0.511-0.244zM10.896 15.995c-0.089 0-0.236 0.039-0.168-0.145 0.118 0.016 0.174 0.065 0.168 0.145zM11.064 15.971c-0.048 0.008-0.096 0.016-0.144 0.024 0.014-0.111 0.119-0.235 0.144-0.024zM11.953 17.024c-0.019 0.067-0.016 0.071-0.095 0.071 0.008-0.031 0.015-0.062 0.023-0.095 0.025 0.008 0.048 0.016 0.072 0.024zM9.79 15.036c0.023 0.008 0.048 0.017 0.072 0.024 0.031 0.119 0.096 0.060 0.168 0.024 0 0.139-0.322 0.179-0.24-0.048z"></path>
</symbol>

<symbol id="icon-freebsd" viewBox="0 0 32 32">
<path fill="#ab2b28" style="fill: var(--color1, #ab2b28)" d="M31.633 0.784c1.697 1.696-3.005 9.149-3.8 9.944-0.796 0.795-2.815 0.064-4.511-1.632s-2.427-3.716-1.632-4.511 8.248-5.497 9.943-3.801zM7.847 2.579c-2.589-1.469-6.273-3.104-7.447-1.932-1.187 1.187 0.507 4.956 1.992 7.551 1.32-2.297 3.2-4.232 5.455-5.619zM29.047 10.144c0.239 0.808 0.196 1.476-0.191 1.863-0.904 0.904-3.344-0.059-5.543-2.152-0.163-0.146-0.311-0.286-0.456-0.431l0 0c-0.796-0.796-1.413-1.643-1.811-2.423-0.771-1.381-0.963-2.603-0.38-3.184 0.317-0.317 0.824-0.404 1.444-0.293 0.404-0.255 0.88-0.54 1.403-0.831-2.055-1.093-4.493-1.735-7.082-1.735-0.009 0-0.018 0-0.026 0h0.001c-8.504 0-15.397 6.893-15.397 15.397 0 8.503 6.893 15.397 15.397 15.397s15.399-6.893 15.399-15.397c0-2.747-0.72-5.321-1.98-7.555-0.324 0.598-0.583 1.037-0.852 1.468l0.073-0.125z"></path>
</symbol>


<symbol id="icon-carrot" viewBox="0 0 59.017 59.017">
<path d="M53.501,17.594c-1.003,0.95-2.211,1.872-3.59,2.741l-0.585,0.368l-0.685,0.076c-2.132,0.234-4.308,1.038-6.085,1.868
		c0.841-0.143,1.743-0.237,2.676-0.237c4.087,0,7.47,1.729,10.063,5.15l0.134,0.179c0.167,0.229,0.422,0.375,0.704,0.405
		c0.035,0.003,0.069,0.005,0.104,0.005c0.245,0,0.483-0.09,0.668-0.256c0.347-0.312,0.618-0.597,0.853-0.897
		c2.034-2.607,1.153-5.051,0.458-5.904c-1.177-1.771-2.692-3.002-4.518-3.701C53.63,17.458,53.571,17.527,53.501,17.594z"/>
	<path d="M30.581,3.871c1.401,0.517,2.501,1.487,2.583,1.555c3.519,2.607,4.578,5.918,4.532,9.054
		c0.56-1.426,1.011-2.967,1.131-4.426l0.057-0.694l0.356-0.598c0.686-1.147,1.371-2.135,2.097-3.022l0.528-0.506
		c0.021-0.015,0.055-0.04,0.098-0.071c-0.656-1.344-1.66-2.471-3.021-3.356c-0.339-0.271-2.008-1.505-4.241-1.505
		c-0.966,0-1.908,0.23-2.801,0.684c-0.63,0.32-1.2,0.742-1.693,1.252c-0.235,0.243-0.332,0.588-0.256,0.917
		C30.028,3.484,30.264,3.753,30.581,3.871z"/>
	<path d="M55.937,30.134c-0.853-0.089-1.623-0.531-2.122-1.215l-0.119-0.157c-2.692-3.552-6.202-4.927-10.804-4.144l-0.882,0.151
		c-1.189-0.447-2.479-0.871-3.859-1.269c0.022-0.097,0.03-0.198,0.022-0.301c-0.011-0.135-0.057-0.259-0.117-0.375
		c0.69-0.435,2.045-1.243,3.754-2.032c0.058-0.024,0.117-0.048,0.176-0.075c-0.009,0.002-0.018,0.004-0.027,0.005
		c1.891-0.862,4.187-1.681,6.461-1.931l0.229-0.025l0.195-0.123c1.269-0.799,2.373-1.641,3.282-2.502
		c1.757-1.663,2.6-3.44,2.505-5.282C54.486,8.04,52.147,6.213,52,6.103c-1.071-0.727-2.282-1.096-3.599-1.096
		c-2.859,0-5.239,1.755-5.339,1.83l-0.176,0.168c-0.664,0.813-1.294,1.723-1.927,2.781l-0.119,0.2l-0.019,0.231
		c-0.131,1.595-0.59,3.239-1.171,4.764c0.001-0.011,0.002-0.022,0.003-0.034c-0.034,0.088-0.059,0.173-0.094,0.262l-0.087,0.222
		c-0.936,2.328-2.115,4.33-2.773,5.367l-0.091,0.144l-0.039,0.166c-0.064,0.277-0.117,0.516-0.157,0.702
		c-0.24-0.926-0.503-1.815-0.784-2.669l0.068-4.691c0.045-3.103-1.172-5.529-3.723-7.417l-0.084-0.066
		c-0.266-0.226-1.074-0.877-2-1.219c-0.954-0.353-1.659-1.154-1.887-2.145c-0.156-0.683-0.053-1.374,0.244-1.982
		c-0.303,0.046-0.599,0.113-0.884,0.214c-1.552,0.55-2.568,1.871-2.718,3.535c-0.16,1.769,0.732,3.482,2.271,4.365
		c1.409,0.808,3.097,2.304,4.666,5.048c-0.935-0.064-1.837,0.035-2.688,0.341c-1.066,0.383-2.798,1.992-4.895,4.367l0.655,2.255
		c0.016,0.056,0.027,0.112,0.034,0.17c0.179,1.632,1.022,3.747,2.505,4.792c0.451,0.318,0.559,0.942,0.24,1.394
		c-0.194,0.276-0.504,0.423-0.818,0.423c-0.199,0-0.4-0.059-0.576-0.183c-2.095-1.478-3.098-4.197-3.33-6.119l-0.265-0.912
		c-1.872,2.258-3.948,4.971-6.067,7.905l0.364,3.16c0.113,1.031,0.635,2.354,1.55,3c0.451,0.318,0.559,0.942,0.24,1.394
		c-0.195,0.276-0.504,0.423-0.818,0.423c-0.199,0-0.4-0.059-0.576-0.183c-1.521-1.073-2.235-3.047-2.384-4.411l-0.109-0.948
		c-6.344,9.03-12.644,19.34-14.493,24.301c-0.257,0.688-0.186,1.397,0.194,1.945c0.361,0.52,0.945,0.818,1.603,0.818h0
		c0.271,0,0.544-0.051,0.814-0.152c3.815-1.422,10.759-5.422,17.865-10.042l-1.336-0.35c-1.36-0.167-3.281-0.883-4.333-2.375
		c-0.318-0.452-0.211-1.075,0.24-1.394c0.452-0.32,1.076-0.21,1.394,0.24c0.646,0.915,1.969,1.437,2.994,1.549
		c0.049,0.005,0.097,0.014,0.145,0.027l3.147,0.825c3.613-2.404,7.18-4.914,10.326-7.277h-1.077c-0.037,0-0.073-0.002-0.109-0.006
		c-1.926-0.211-4.708-1.213-6.208-3.341c-0.318-0.451-0.21-1.075,0.241-1.394c0.45-0.318,1.075-0.211,1.394,0.241
		c1.034,1.466,3.115,2.308,4.74,2.499h3.625c4.305-3.388,7.398-6.276,7.941-7.789c0.245-0.682,0.361-1.396,0.37-2.133
		c2.742,1.342,4.192,2.647,4.948,3.684c1.099,1.508,2.881,2.446,4.651,2.446c1.501,0,2.833-0.678,3.654-1.861
		c0.613-0.882,0.801-1.799,0.756-2.649c-0.536,0.437-1.199,0.684-1.892,0.684C56.137,30.149,56.037,30.144,55.937,30.134z
		 M9.926,49.304c-0.171,0.359-0.53,0.569-0.903,0.569c-0.145,0-0.292-0.031-0.431-0.098c-0.786-0.375-1.549-0.833-2.267-1.36
		c-0.445-0.327-0.542-0.953-0.215-1.397c0.327-0.445,0.952-0.542,1.397-0.215c0.618,0.453,1.273,0.846,1.947,1.168
		C9.953,48.209,10.164,48.806,9.926,49.304z M40.958,30.229c-0.152,0.399-0.532,0.645-0.935,0.645c-0.119,0-0.239-0.021-0.356-0.066
		c-2.363-0.901-4.533-2.495-6.45-4.737c-0.359-0.42-0.31-1.051,0.11-1.41c0.42-0.358,1.051-0.31,1.41,0.11
		c1.697,1.985,3.595,3.388,5.642,4.167C40.896,29.135,41.155,29.713,40.958,30.229z"/>
</symbol>


</svg>