<?xml version="1.0" standalone="no"?>
<!DOCTYPE svg PUBLIC "-//W3C//DTD SVG 20010904//EN"
 "http://www.w3.org/TR/2001/REC-SVG-20010904/DTD/svg10.dtd">
<svg version="1.0" xmlns="http://www.w3.org/2000/svg"
 width="130.000000pt" height="185.000000pt" viewBox="0 0 130.000000 185.000000"
 preserveAspectRatio="xMidYMid meet">

<g transform="translate(0.000000,185.000000) scale(0.100000,-0.100000)"
fill="#000000" stroke="none">
<path d="M407 1837 c4 -7 23 -35 42 -60 28 -38 36 -59 38 -103 3 -49 0 -60
-27 -94 -39 -50 -38 -68 3 -61 5 1 6 -12 2 -29 -4 -19 -2 -36 5 -45 20 -24 6
-39 -46 -51 l-49 -13 48 6 47 5 -10 -27 c-21 -55 -132 -265 -184 -348 -32 -51
-50 -89 -44 -93 15 -10 126 -181 159 -246 16 -32 32 -58 34 -58 17 0 -157 288
-184 304 -6 4 8 34 37 79 25 40 81 139 123 220 62 122 78 145 88 133 7 -8 8
-17 2 -20 -5 -3 -7 -15 -4 -26 3 -12 -2 -29 -13 -41 -13 -15 -15 -22 -6 -31 7
-7 12 -22 12 -34 0 -12 6 -21 13 -20 7 0 41 -25 76 -56 34 -32 56 -58 48 -58
-8 0 -22 9 -33 21 -10 12 -36 35 -56 51 l-38 30 2 -54 1 -53 6 43 6 43 53 -48
52 -48 -47 -54 -48 -55 -6 55 c-4 42 -6 34 -6 -41 0 -54 2 -80 6 -59 5 29 34
65 151 187 117 123 146 149 151 134 8 -21 39 -49 39 -34 0 5 -7 13 -16 16 -9
3 -14 15 -12 28 2 13 -5 31 -14 41 -25 24 -23 47 5 47 18 0 33 -21 85 -126 35
-69 86 -159 114 -199 l49 -75 -140 -209 c-78 -116 -141 -215 -141 -221 0 -5 7
-10 15 -10 8 0 15 -8 15 -17 0 -12 3 -14 8 -7 4 7 16 14 27 17 17 4 16 5 -5 6
-61 3 -58 10 90 231 98 145 141 216 134 224 -75 99 -219 367 -210 392 4 10 16
12 49 8 40 -6 46 -4 70 25 14 17 35 31 46 31 11 0 23 5 26 10 3 6 18 11 33 11
17 1 21 3 10 6 -10 2 -18 10 -18 16 0 6 -7 1 -16 -11 -21 -31 -60 -29 -66 3
-4 19 -1 25 12 25 23 0 33 26 20 51 -15 26 -40 24 -40 -3 -1 -22 -1 -22 -12
-4 -9 15 -7 22 8 33 10 7 23 13 29 13 21 0 49 -28 62 -61 13 -33 13 -33 7 -4
-11 58 -58 87 -98 61 -23 -14 -24 -14 -36 15 -7 16 -15 28 -17 25 -2 -2 5 -23
17 -46 12 -23 19 -45 16 -48 -8 -8 -9 -7 -60 95 -50 100 -51 103 -36 103 5 0
21 -21 34 -47 14 -27 25 -44 26 -40 0 4 -9 26 -20 48 -12 22 -18 44 -15 50 4
5 2 15 -4 22 -7 9 1 30 29 75 l39 62 -275 0 c-225 0 -274 -2 -267 -13z m139
-26 l-28 -29 -34 20 c-54 32 -50 38 22 38 l68 0 -28 -29z m194 22 c0 -5 -15
-18 -32 -30 l-31 -22 -28 20 c-48 34 -44 39 25 39 36 0 66 -3 66 -7z m163 -5
c-2 -5 1 -8 6 -8 6 0 -3 -22 -20 -50 l-31 -50 -178 0 -178 0 -42 56 c-24 32
-37 53 -29 49 8 -5 31 -19 53 -33 l38 -24 34 33 c36 35 28 36 99 -16 19 -13
25 -12 70 21 47 33 54 35 116 32 37 -2 65 -6 62 -10z m-23 -129 c0 -5 -80 -9
-195 -9 -120 0 -195 4 -195 10 0 9 363 20 383 12 4 -2 7 -7 7 -13z m-269 -87
c50 -86 61 -93 16 -10 -43 77 -43 78 -19 78 12 0 25 -14 37 -40 10 -23 23 -43
27 -47 5 -3 0 14 -12 37 -12 23 -19 44 -16 47 10 10 27 -9 51 -58 14 -27 28
-49 30 -49 3 0 -6 22 -20 50 -31 60 -31 62 -3 58 16 -2 34 -23 59 -66 50 -86
61 -93 16 -10 -20 36 -37 69 -37 72 0 3 9 6 20 6 14 0 28 -17 50 -60 17 -33
32 -60 35 -60 3 0 -7 25 -22 55 -15 30 -24 57 -20 61 16 16 40 -13 87 -106 33
-66 56 -100 64 -97 7 3 13 0 14 -6 1 -7 5 -29 8 -50 5 -28 2 -43 -11 -57 -25
-27 -75 -27 -82 1 -5 20 -6 19 -17 -3 -8 -15 -22 -24 -43 -26 -36 -4 -56 18
-118 131 -20 37 -39 67 -42 67 -3 0 9 -25 26 -55 l31 -55 -40 -20 c-22 -11
-57 -24 -77 -29 -29 -7 -32 -9 -13 -10 14 0 49 11 79 24 42 20 56 23 63 13 11
-18 -15 -35 -90 -58 -80 -25 -95 -25 -116 -1 -13 15 -14 20 -4 24 7 3 0 6 -16
6 -27 1 -28 3 -22 35 4 23 2 37 -6 42 -9 6 -5 10 12 15 24 7 24 7 3 8 -26 1
-26 1 -13 37 9 24 8 26 -10 21 -33 -9 -33 11 -1 49 19 21 31 46 31 63 0 36 8
43 44 39 26 -3 36 -13 67 -66z m403 -118 c3 -9 4 -20 0 -25 -7 -13 -34 -11
-34 2 0 5 4 8 9 5 5 -4 7 3 4 14 -6 24 12 27 21 4z m-249 -179 c-11 -8 -48
-24 -82 -35 l-62 -21 -31 23 -31 22 56 13 c30 7 72 21 93 32 36 19 37 19 57 0
19 -19 19 -19 0 -34z m-157 -60 c96 -84 116 -98 106 -71 -3 7 5 30 16 50 12
20 20 36 17 36 -3 0 -16 -18 -28 -39 l-22 -40 -33 27 -34 27 53 18 c28 10 57
19 62 21 6 1 15 5 21 9 7 4 18 -3 27 -17 15 -22 13 -25 -72 -110 l-87 -87 -72
66 c-74 68 -81 85 -66 142 6 20 14 16 100 -57 52 -44 97 -80 101 -80 4 0 3 4
-3 8 -5 5 -51 44 -101 86 -82 69 -106 96 -88 96 3 0 49 -38 103 -85z"/>
<path d="M796 1802 l31 -33 36 21 c21 12 37 24 37 27 0 3 -16 -5 -36 -17 l-37
-21 -31 28 -31 28 31 -33z"/>
<path d="M510 1626 c0 -2 13 -6 29 -8 17 -2 28 -1 25 4 -5 8 -54 12 -54 4z"/>
<path d="M526 1595 c4 -8 7 -15 9 -15 2 0 5 7 9 15 3 9 0 15 -9 15 -9 0 -12
-6 -9 -15z"/>
<path d="M712 1515 c18 -35 34 -63 36 -61 4 5 -56 126 -63 126 -3 0 10 -29 27
-65z"/>
<path d="M755 1511 c18 -36 23 -59 19 -80 -7 -35 9 -61 38 -61 20 0 34 23 24
39 -8 12 -36 3 -36 -11 0 -6 6 -5 15 2 12 10 15 9 15 -4 0 -12 -7 -16 -22 -14
-28 4 -37 48 -13 68 19 16 60 0 69 -27 3 -10 15 -24 27 -31 21 -13 21 -13 5 9
-21 30 -20 35 4 59 14 14 16 20 6 20 -7 0 -19 14 -26 30 -7 17 -17 33 -22 36
-5 3 0 -12 11 -34 12 -23 18 -48 15 -56 -7 -18 -21 -21 -26 -5 -2 6 -19 12
-37 14 -30 2 -38 9 -58 49 -13 25 -26 46 -28 46 -3 0 6 -22 20 -49z"/>
<path d="M504 1530 c0 -13 4 -16 10 -10 7 7 7 13 0 20 -6 6 -10 3 -10 -10z"/>
<path d="M825 1500 c9 -16 18 -30 21 -30 2 0 -2 14 -11 30 -9 17 -18 30 -21
30 -2 0 2 -13 11 -30z"/>
<path d="M905 1420 c-4 -6 1 -7 11 -3 14 5 16 3 10 -13 -5 -14 -4 -16 5 -7 12
12 5 33 -11 33 -5 0 -12 -4 -15 -10z"/>
<path d="M690 1240 c-6 -11 -8 -20 -6 -20 3 0 10 9 16 20 6 11 8 20 6 20 -3 0
-10 -9 -16 -20z"/>
<path d="M500 1230 c0 -5 5 -10 10 -10 6 0 10 5 10 10 0 6 -4 10 -10 10 -5 0
-10 -4 -10 -10z"/>
<path d="M550 1230 c0 -5 5 -10 10 -10 6 0 10 5 10 10 0 6 -4 10 -10 10 -5 0
-10 -4 -10 -10z"/>
<path d="M560 1170 c0 -5 5 -10 10 -10 6 0 10 5 10 10 0 6 -4 10 -10 10 -5 0
-10 -4 -10 -10z"/>
<path d="M610 1170 c0 -5 7 -10 16 -10 8 0 12 5 9 10 -3 6 -10 10 -16 10 -5 0
-9 -4 -9 -10z"/>
<path d="M636 1121 c-4 -7 -5 -15 -2 -18 9 -9 19 4 14 18 -4 11 -6 11 -12 0z"/>
<path d="M76 1558 c-20 -29 -20 -62 0 -79 14 -12 14 -14 -5 -21 -12 -4 -20
-15 -20 -25 1 -17 2 -17 6 0 4 15 14 17 76 15 58 -2 71 -6 69 -18 -3 -11 -1
-12 8 -3 17 16 3 33 -27 33 -25 0 -25 1 -10 18 10 10 17 30 17 44 0 24 -27 58
-46 58 -4 0 2 -7 14 -16 27 -19 29 -64 4 -87 -23 -21 -41 -21 -70 -1 -28 19
-29 57 -2 84 11 11 16 20 11 20 -6 0 -17 -10 -25 -22z"/>
<path d="M152 1413 c-1 -6 -14 -13 -29 -15 -22 -2 -28 -8 -28 -28 0 -20 6 -26
28 -28 16 -2 27 -9 27 -19 0 -11 -5 -13 -17 -8 -30 13 -56 11 -60 -5 -4 -13
-3 -13 5 -1 9 13 16 12 51 -4 50 -22 75 -49 67 -70 -5 -15 -9 -14 -33 3 -16
10 -42 26 -60 34 -31 15 -33 15 -39 -5 -4 -12 -20 -37 -35 -55 l-29 -33 2
-327 3 -327 40 -21 c22 -12 51 -25 65 -28 14 -4 -3 7 -38 23 l-62 30 0 324 c0
313 1 325 21 351 11 14 25 26 31 26 7 0 7 -4 1 -12 -6 -7 -11 -29 -11 -50 -1
-39 20 -61 72 -74 25 -6 26 -8 26 -90 0 -83 0 -84 -25 -84 -23 0 -24 2 -28 83
l-3 82 -1 -86 c0 -47 -6 -95 -12 -108 -16 -29 9 -71 43 -71 39 0 74 57 46 75
-12 8 -13 202 -1 209 8 5 24 60 27 96 1 8 5 23 9 33 5 12 1 25 -15 42 l-22 23
29 17 c25 15 16 14 -21 -1 -12 -5 -16 7 -19 53 -2 32 -4 53 -5 46z m-2 -43 c0
-15 -7 -20 -25 -20 -31 0 -33 20 -2 21 21 1 21 1 -3 9 l-25 8 28 1 c21 1 27
-4 27 -19z m3 -136 c41 -27 42 -30 25 -71 -6 -15 -12 -35 -12 -43 -1 -22 -30
-24 -71 -5 -21 11 -35 24 -35 36 0 17 2 17 36 3 20 -8 41 -13 46 -12 6 2 -8
10 -31 17 -43 12 -61 35 -44 52 7 7 24 4 53 -11 23 -12 44 -20 46 -17 2 2 -19
14 -46 27 -34 16 -50 29 -50 42 0 24 27 18 83 -18z m11 -346 c15 -24 -3 -52
-37 -56 -33 -4 -53 28 -37 59 14 25 58 23 74 -3z"/>
<path d="M1118 1403 c7 -3 16 -2 19 1 4 3 -2 6 -13 5 -11 0 -14 -3 -6 -6z"/>
<path d="M1165 1390 c27 -12 43 -12 25 0 -8 5 -22 9 -30 9 -10 0 -8 -3 5 -9z"/>
<path d="M287 1358 c-32 -11 -57 -22 -54 -24 2 -2 35 7 73 20 38 14 62 24 54
24 -8 0 -41 -9 -73 -20z"/>
<path d="M1248 1357 l42 -21 0 -285 c0 -275 -1 -286 -21 -316 l-22 -31 -23 23
c-22 22 -24 32 -24 118 0 52 5 105 11 118 12 27 -2 67 -23 67 -6 0 -3 -9 6
-19 21 -23 14 -57 -13 -66 -58 -18 -83 57 -28 83 12 6 16 11 10 11 -25 2 -55
-39 -47 -62 4 -12 9 -60 11 -106 4 -65 0 -99 -16 -150 -26 -88 -35 -132 -21
-109 10 16 15 16 63 -10 28 -15 55 -31 59 -36 8 -12 22 39 14 53 -4 5 -2 12 4
16 5 3 10 16 10 28 0 12 14 40 30 61 l30 40 0 288 0 288 -40 20 c-21 11 -43
20 -47 19 -4 0 11 -10 35 -22z m-58 -514 c0 -89 0 -91 -22 -86 -13 2 -4 -5 20
-16 23 -11 42 -27 42 -36 0 -19 -2 -19 -61 2 -49 18 -58 26 -39 38 6 3 10 48
10 98 0 91 0 92 25 92 25 0 25 -1 25 -92z m-2 -153 c31 -14 43 -25 40 -37 -4
-21 -5 -21 -68 6 -28 12 -50 28 -50 36 0 20 26 18 78 -5z m-5 -51 c24 -13 37
-26 37 -39 0 -17 -3 -18 -27 -9 -48 18 -93 50 -93 65 0 18 23 13 83 -17z"/>
<path d="M450 1202 c-8 -9 -13 -28 -11 -44 2 -22 -3 -30 -23 -39 -19 -9 -26
-20 -26 -40 0 -20 -7 -32 -26 -42 -17 -9 -23 -17 -15 -21 6 -4 11 -18 11 -31
0 -13 4 -26 9 -29 5 -4 12 -24 16 -46 4 -22 10 -40 14 -40 5 0 2 22 -5 49 -7
27 -11 58 -9 68 2 10 7 36 12 58 l7 40 7 -50 c6 -47 6 -46 4 13 -2 50 0 62 11
58 9 -3 15 6 20 30 3 19 4 38 0 41 -3 3 2 12 12 19 9 7 15 15 12 17 -3 3 -12
-2 -20 -11z m-73 -209 c-3 -10 -5 -4 -5 12 0 17 2 24 5 18 2 -7 2 -21 0 -30z"/>
<path d="M463 1130 c0 -25 2 -35 4 -22 2 12 2 32 0 45 -2 12 -4 2 -4 -23z"/>
<path d="M785 1113 c-42 -48 -49 -62 -50 -102 -1 -31 5 -55 18 -74 l20 -29
-138 -138 c-76 -77 -142 -137 -146 -135 -4 3 -9 -2 -12 -10 -4 -9 -1 -12 9 -8
21 8 46 -17 40 -40 -3 -11 2 -26 10 -34 13 -13 16 -12 32 6 9 11 38 26 64 33
42 11 49 10 68 -7 26 -24 25 -35 -2 -35 -20 -1 -90 -23 -141 -45 -14 -6 -16
-4 -11 11 4 14 3 15 -3 6 -8 -10 -12 -10 -23 3 -7 8 -17 15 -23 15 -6 0 -3 -6
6 -12 16 -13 197 -323 197 -339 0 -5 5 -9 11 -9 6 0 2 15 -9 33 -11 17 -44 76
-75 129 -62 109 -63 106 20 138 26 11 41 19 32 20 -8 0 -38 -11 -65 -25 -27
-14 -50 -25 -51 -25 -2 0 -3 9 -3 21 0 23 38 42 121 61 42 10 52 9 59 -3 7
-10 3 -16 -18 -20 -24 -6 -23 -7 11 -8 35 -1 36 0 25 20 -11 17 -10 22 2 32 8
7 15 21 15 32 0 13 8 21 21 23 17 2 20 8 16 33 -4 24 0 31 17 36 15 4 21 13
21 34 0 19 5 29 15 29 11 0 14 7 9 24 -6 25 17 56 42 56 11 0 13 6 9 20 -5 15
0 23 19 31 23 11 24 13 10 34 -14 21 -13 24 8 39 22 16 22 16 1 16 -32 0 -50
27 -34 51 10 18 9 23 -14 41 -17 13 -25 28 -23 42 2 13 -4 25 -17 31 -11 6
-25 20 -31 32 -10 22 -12 20 -59 -34z m72 0 l25 -26 -36 -19 c-19 -10 -40 -27
-46 -37 -5 -11 -9 -62 -8 -113 l2 -93 3 85 c4 114 8 127 44 146 35 18 54 9 24
-11 -44 -31 -45 -34 -43 -128 l2 -92 3 90 c3 77 6 93 24 108 12 9 25 17 29 17
12 0 19 -54 8 -67 -5 -7 -8 -22 -5 -35 4 -21 4 -21 6 4 1 28 18 32 45 9 11 -9
13 -18 7 -25 -6 -7 -6 -17 -1 -26 13 -21 12 -27 -6 -34 -11 -4 -14 -1 -10 12
3 9 1 33 -3 52 -8 30 -9 25 -10 -37 -1 -77 -17 -108 -24 -46 l-4 38 -1 -42
c-1 -23 -6 -45 -12 -48 -5 -3 -10 -17 -10 -30 0 -40 -19 -38 -23 2 -2 21 -3
10 0 -24 2 -39 0 -63 -7 -63 -5 0 -10 6 -10 13 0 8 -2 9 -8 1 -4 -8 -30 9 -72
47 l-64 59 53 54 53 54 -18 27 c-9 15 -18 48 -19 73 -1 42 3 52 39 90 22 23
42 42 44 42 3 0 16 -12 29 -27z m63 -99 c0 -8 -4 -14 -10 -14 -5 0 -10 9 -10
21 0 11 5 17 10 14 6 -3 10 -13 10 -21z m-175 -289 c39 -35 66 -64 60 -64 -5
0 -41 28 -80 64 -38 35 -65 64 -60 65 6 0 42 -29 80 -65z m-16 -16 c48 -42 71
-69 70 -83 0 -12 -3 -15 -6 -8 -2 6 -9 12 -15 12 -6 0 -8 -6 -5 -13 3 -7 -1
-20 -8 -30 -11 -16 -13 -15 -30 3 -10 11 -13 20 -7 20 7 0 12 7 12 15 0 20
-18 19 -22 -1 -2 -13 -18 -4 -66 36 l-63 53 27 28 c15 16 31 29 35 29 4 0 39
-28 78 -61z m-53 -80 c46 -39 81 -76 78 -81 -4 -5 -23 6 -43 26 -34 33 -39 35
-71 26 -49 -14 -52 -13 -39 13 17 32 17 32 37 16 10 -8 -2 5 -27 28 -75 70
-26 48 65 -28z m-84 35 c17 -16 17 -19 -10 -65 -25 -45 -42 -61 -42 -40 0 5
12 29 26 55 14 25 23 46 20 46 -3 0 -14 -16 -24 -36 l-18 -35 -19 21 c-18 20
-18 21 5 45 28 29 37 31 62 9z"/>
<path d="M860 991 c-5 -11 -9 -59 -8 -108 l2 -88 5 95 c3 52 10 101 14 108 5
6 6 12 3 12 -3 0 -10 -9 -16 -19z"/>
<path d="M803 770 c0 -30 2 -43 4 -27 2 15 2 39 0 55 -2 15 -4 2 -4 -28z"/>
<path d="M640 740 c0 -5 5 -10 10 -10 6 0 10 5 10 10 0 6 -4 10 -10 10 -5 0
-10 -4 -10 -10z"/>
<path d="M656 691 c-4 -5 -2 -12 3 -15 5 -4 12 -2 15 3 4 5 2 12 -3 15 -5 4
-12 2 -15 -3z"/>
<path d="M710 680 c0 -5 5 -10 10 -10 6 0 10 5 10 10 0 6 -4 10 -10 10 -5 0
-10 -4 -10 -10z"/>
<path d="M443 1040 c0 -30 2 -43 4 -27 2 15 2 39 0 55 -2 15 -4 2 -4 -28z"/>
<path d="M470 967 c0 -106 -13 -147 -46 -147 -8 0 -14 -6 -14 -12 -1 -9 -5 -8
-13 3 -7 9 -19 14 -27 11 -13 -4 -13 -3 -2 11 10 11 10 23 3 49 l-11 33 5 -35
c5 -32 4 -33 -11 -18 -14 14 -14 21 -3 52 7 19 11 38 8 40 -9 9 -49 -6 -43
-16 3 -5 12 -7 19 -4 17 6 8 -29 -11 -45 -12 -10 -11 -14 8 -24 15 -7 22 -19
21 -33 -2 -15 3 -22 15 -22 25 0 42 -19 42 -47 0 -13 7 -26 16 -30 11 -4 14
-13 10 -29 -5 -17 -3 -22 8 -18 7 3 21 -2 30 -11 9 -9 16 -11 16 -5 0 6 -7 13
-16 17 -12 4 -5 16 32 54 43 43 48 53 49 97 1 36 -4 56 -17 73 l-19 24 12 -25
c8 -14 13 -47 14 -73 0 -44 -4 -51 -47 -94 -34 -34 -48 -42 -48 -30 0 10 -6
20 -14 23 -14 5 -11 44 4 44 14 0 60 53 59 69 0 13 -1 14 -6 1 -9 -23 -45 -60
-60 -60 -19 0 -17 5 17 38 30 30 30 32 30 136 0 58 -2 106 -5 106 -3 0 -5 -46
-5 -103z"/>
<path d="M670 1024 c-11 -12 -10 -18 3 -32 16 -15 18 -15 34 0 13 14 14 20 3
32 -7 9 -16 16 -20 16 -4 0 -13 -7 -20 -16z m36 -5 c10 -17 -13 -36 -27 -22
-12 12 -4 33 11 33 5 0 12 -5 16 -11z"/>
<path d="M626 951 c-17 -18 -17 -21 0 -45 16 -25 18 -26 35 -10 24 21 24 36 1
58 -18 15 -20 15 -36 -3z m44 -32 c0 -17 -23 -20 -38 -6 -13 14 -13 18 -2 32
13 16 15 15 27 -1 7 -10 13 -21 13 -25z"/>
<path d="M412 910 c0 -14 2 -19 5 -12 2 6 2 18 0 25 -3 6 -5 1 -5 -13z"/>
<path d="M441 899 c-1 -27 -23 -54 -34 -42 -4 3 -7 -2 -7 -13 0 -16 3 -16 26
7 18 18 24 34 21 50 -4 23 -4 23 -6 -2z"/>
<path d="M587 863 c-11 -10 -8 -41 4 -49 6 -3 18 1 27 9 13 13 13 19 2 31 -14
17 -23 20 -33 9z m28 -23 c0 -7 -6 -15 -12 -17 -8 -3 -13 4 -13 17 0 13 5 20
13 18 6 -3 12 -11 12 -18z"/>
<path d="M430 607 c0 -15 34 -77 43 -77 5 0 -2 17 -14 38 -27 44 -29 47 -29
39z"/>
<path d="M1108 571 c20 -18 21 -20 5 -24 -17 -4 -17 -5 0 -6 14 -1 17 -11 18
-58 0 -32 3 -52 6 -45 2 6 15 12 28 12 13 0 26 -6 28 -12 3 -7 6 10 6 39 l1
51 -57 31 c-33 17 -48 22 -35 12z m82 -53 c0 -4 -11 -8 -25 -8 -18 0 -25 5
-25 20 0 17 3 18 25 8 14 -6 25 -15 25 -20z m0 -28 c0 -5 -11 -10 -25 -10 -14
0 -25 5 -25 10 0 6 11 10 25 10 14 0 25 -4 25 -10z m-7 -27 c-7 -2 -21 -2 -30
0 -10 3 -4 5 12 5 17 0 24 -2 18 -5z"/>
<path d="M1007 523 c-32 -9 -56 -17 -54 -20 5 -4 129 26 136 33 8 7 -23 2 -82
-13z"/>
<path d="M426 521 c-3 -5 -14 -8 -24 -6 -9 1 -11 0 -4 -2 6 -3 12 -16 12 -29
0 -20 -4 -24 -19 -19 -11 3 -24 -1 -32 -12 -13 -17 -13 -17 5 -3 17 13 20 12
40 -13 11 -14 50 -81 86 -146 36 -66 68 -121 72 -121 4 0 -20 48 -54 107 -36
64 -56 109 -49 111 6 2 0 13 -14 24 -31 24 -35 83 -7 104 9 7 12 14 5 14 -6 0
-14 -4 -17 -9z"/>
<path d="M320 498 c-17 -18 -21 -32 -17 -60 4 -27 2 -35 -8 -32 -7 3 -16 1
-19 -4 -3 -5 2 -9 11 -8 9 0 18 -5 21 -13 3 -9 0 -11 -8 -6 -9 5 -11 4 -6 -4
4 -6 11 -9 16 -6 10 6 22 -23 14 -36 -6 -11 -54 -12 -70 -1 -6 4 -16 16 -22
27 -6 11 -12 14 -12 8 -1 -38 87 -72 106 -41 4 6 20 -15 40 -53 18 -35 33 -61
34 -56 0 4 -18 44 -41 88 -22 45 -38 83 -35 86 3 3 13 -9 23 -26 26 -47 47
-72 28 -34 -19 40 -19 40 4 46 15 3 26 -13 62 -85 24 -50 48 -92 52 -95 4 -3
-14 39 -41 94 -27 54 -47 105 -45 113 3 10 0 9 -7 -2 -15 -25 -56 -22 -74 4
-24 34 -20 73 10 97 15 12 22 21 16 21 -6 0 -21 -10 -32 -22z"/>
<path d="M918 493 c7 -3 16 -2 19 1 4 3 -2 6 -13 5 -11 0 -14 -3 -6 -6z"/>
<path d="M463 483 c-18 -7 -16 -43 1 -43 8 0 18 4 21 10 3 6 -1 7 -9 4 -9 -3
-16 -1 -16 4 0 18 20 24 35 12 18 -15 20 -56 2 -67 -9 -6 -6 -14 12 -33 21
-22 22 -23 12 -3 -6 12 -8 35 -5 52 5 23 2 37 -11 51 -19 21 -22 22 -42 13z"/>
<path d="M878 483 c7 -3 16 -2 19 1 4 3 -2 6 -13 5 -11 0 -14 -3 -6 -6z"/>
<path d="M155 460 c11 -5 29 -8 40 -8 16 0 15 2 -5 8 -34 11 -60 11 -35 0z"/>
<path d="M235 452 c-5 -4 -12 -16 -13 -27 -2 -11 -2 -18 0 -15 2 3 12 15 22
28 18 21 12 30 -9 14z"/>
<path d="M370 430 c-9 -6 -10 -10 -3 -10 6 0 15 5 18 10 8 12 4 12 -15 0z"/>
<path d="M800 433 c0 -7 5 -15 10 -18 21 -13 9 -24 -22 -20 l-33 5 31 -10 c26
-8 30 -14 26 -35 -3 -20 0 -25 17 -25 28 0 26 -18 -5 -51 -29 -30 -49 -105
-30 -112 7 -3 10 8 8 33 -3 30 2 44 28 74 33 37 35 66 5 66 -13 0 -15 6 -10
30 4 20 1 37 -9 52 -9 12 -16 17 -16 11z"/>
<path d="M1077 423 c-11 -10 14 -33 36 -33 19 0 19 -1 4 -18 -10 -10 -17 -30
-17 -44 0 -24 27 -58 46 -58 4 0 -2 7 -14 16 -32 22 -30 69 4 91 24 15 29 15
53 2 15 -9 29 -27 32 -44 6 -26 7 -27 8 -6 0 14 -6 33 -16 43 -14 16 -14 18
-1 18 21 0 42 26 28 35 -6 4 -9 1 -8 -7 2 -10 -15 -13 -72 -13 -55 0 -74 3
-72 13 2 13 -1 15 -11 5z"/>
<path d="M597 285 c32 -63 60 -115 64 -115 3 0 -21 52 -53 115 -32 63 -61 115
-63 115 -3 0 21 -52 52 -115z"/>
<path d="M270 357 c0 -2 6 -10 14 -16 11 -9 16 -9 22 1 4 7 4 10 -1 6 -4 -4
-14 -3 -22 3 -7 6 -13 9 -13 6z"/>
<path d="M571 258 c24 -48 47 -88 51 -88 8 0 -69 148 -85 165 -5 6 10 -29 34
-77z"/>
<path d="M774 329 c-3 -6 -1 -16 6 -22 10 -9 11 -9 5 2 -4 8 -2 17 6 22 9 6
10 9 2 9 -6 0 -15 -5 -19 -11z"/>
<path d="M1196 285 c-11 -8 -15 -15 -9 -15 6 0 16 7 23 15 16 19 11 19 -14 0z"/>
<path d="M418 230 c15 -32 30 -59 35 -60 4 0 -6 27 -23 60 -39 77 -47 78 -12
0z"/>
<path d="M750 261 c0 -5 5 -13 10 -16 6 -3 10 -2 10 4 0 5 -4 13 -10 16 -5 3
-10 2 -10 -4z"/>
<path d="M730 230 c8 -5 24 -10 34 -10 26 0 18 6 -19 14 -22 5 -26 4 -15 -4z"/>
<path d="M404 174 c1 -16 4 -34 8 -39 4 -6 -11 -39 -33 -73 l-39 -62 276 0
276 0 -14 22 c-9 13 -22 23 -29 23 -8 0 -29 8 -48 18 l-33 19 -34 -32 -33 -33
-39 32 c-22 17 -43 31 -47 31 -4 0 -24 -14 -46 -31 l-38 -30 -30 33 -30 33
-42 -23 c-23 -12 -44 -20 -46 -18 -3 2 8 23 23 45 l27 41 177 0 178 0 32 -37
32 -38 -24 35 c-12 19 -22 39 -21 45 2 6 -67 9 -198 7 -189 -3 -200 -2 -195
15 3 10 2 24 -3 32 -6 9 -8 5 -7 -15z m89 -129 l18 -25 -65 0 c-38 0 -68 5
-72 12 -4 6 -3 8 4 4 6 -3 26 3 44 14 42 25 49 25 71 -5z m162 0 l30 -25 -70
0 -70 0 30 25 c17 13 35 24 40 24 6 0 24 -11 40 -24z m153 5 c18 -11 38 -17
44 -14 7 4 8 2 4 -4 -4 -7 -34 -12 -73 -12 l-66 0 23 25 c28 30 27 30 68 5z"/>
</g>
</svg>
