<?xml version="1.0" standalone="no"?>
<!DOCTYPE svg PUBLIC "-//W3C//DTD SVG 20010904//EN"
 "http://www.w3.org/TR/2001/REC-SVG-20010904/DTD/svg10.dtd">
<svg version="1.0" xmlns="http://www.w3.org/2000/svg"
 width="130.000000pt" height="183.000000pt" viewBox="0 0 130.000000 183.000000"
 preserveAspectRatio="xMidYMid meet">

<g transform="translate(0.000000,183.000000) scale(0.100000,-0.100000)"
fill="#000000" stroke="none">
<path d="M410 1821 c0 -5 18 -25 41 -45 23 -19 38 -39 34 -46 -4 -6 -1 -17 5
-25 10 -12 10 -18 1 -29 -21 -25 13 -63 59 -68 32 -3 37 -1 27 10 -6 8 -23 12
-39 10 -15 -3 -28 -1 -28 4 0 4 24 8 54 8 l53 0 17 -107 c10 -60 19 -115 22
-123 2 -9 -8 -23 -24 -32 -15 -10 -22 -17 -17 -18 6 0 20 8 32 18 l21 17 -19
110 c-10 61 -19 116 -19 123 0 18 18 14 23 -5 4 -17 5 -17 6 0 2 28 29 20 34
-10 l4 -28 2 28 c2 39 24 30 33 -14 l7 -34 -3 38 c-2 36 16 53 27 25 4 -10 6
-10 6 0 1 6 7 12 15 12 9 0 18 -19 25 -52 l10 -53 -5 53 c-4 41 -2 52 10 52 8
0 16 -12 19 -27 l4 -28 2 28 c1 18 6 27 19 27 9 0 23 4 30 9 12 7 12 12 0 30
-11 18 -11 23 2 31 13 9 13 12 -2 24 -16 12 -16 15 8 37 14 13 30 32 35 42 9
16 -6 17 -261 17 -158 0 -270 -4 -270 -9z m514 -12 c-3 -6 -25 -20 -48 -30
-22 -10 -35 -19 -28 -19 7 0 23 5 35 11 22 12 22 12 3 -10 -18 -20 -28 -21
-201 -21 -142 0 -185 3 -194 14 -9 11 -5 12 28 3 34 -9 45 -7 95 17 32 16 56
30 54 32 -2 2 -26 -8 -53 -21 -58 -30 -77 -31 -131 -6 -82 38 -68 41 196 41
178 0 249 -4 244 -11z m-29 -89 c-4 -6 -82 -11 -193 -12 l-187 -3 183 -2 c110
-2 182 -7 182 -13 0 -6 -71 -10 -185 -10 -158 0 -185 2 -185 15 0 8 -4 15 -10
15 -5 0 -10 5 -10 10 0 6 75 10 206 10 134 0 203 -3 199 -10z m0 -60 c-4 -6
-83 -10 -206 -10 -126 0 -199 4 -199 10 0 6 75 10 206 10 134 0 203 -3 199
-10z"/>
<path d="M686 1799 c6 -11 64 -42 69 -37 2 2 -14 13 -36 25 -21 12 -37 17 -33
12z"/>
<path d="M783 1753 c9 -2 25 -2 35 0 9 3 1 5 -18 5 -19 0 -27 -2 -17 -5z"/>
<path d="M1195 1810 c-4 -6 -4 -14 -1 -17 3 -4 6 -1 6 5 0 18 30 14 37 -4 8
-21 -17 -36 -36 -21 -12 9 -13 9 -7 0 4 -8 1 -13 -8 -13 -9 0 -16 -7 -16 -15
0 -8 5 -15 10 -15 6 0 10 -30 10 -70 l0 -71 -37 5 -38 5 38 -10 c20 -6 37 -17
37 -25 0 -11 -20 -14 -95 -14 -105 0 -109 3 -80 61 24 46 117 95 101 53 -3 -9
-8 -28 -11 -42 -3 -15 1 -9 10 13 8 22 22 45 30 51 20 15 8 24 -29 23 l-31 -1
30 -7 30 -7 -30 -6 c-16 -3 -39 -8 -50 -12 -20 -8 -20 -7 -1 8 32 26 6 18 -29
-8 -61 -47 -82 -133 -49 -203 9 -19 31 -45 49 -59 35 -26 61 -34 29 -8 -19 15
-19 16 1 8 11 -4 32 -9 47 -12 l28 -4 -15 36 c-19 44 -19 44 3 49 15 4 15 5 0
6 -24 1 -30 -13 -18 -45 6 -15 8 -29 5 -32 -11 -12 -76 29 -96 60 -17 28 -19
29 -14 8 6 -20 5 -23 -6 -13 -7 7 -13 38 -15 70 -2 56 -2 57 5 13 5 -25 9 -37
9 -27 2 15 14 17 97 17 87 0 95 -2 95 -19 0 -12 -8 -21 -22 -24 l-23 -4 23 -2
c21 -1 22 -6 22 -70 0 -41 -4 -71 -11 -73 -6 -2 14 -14 45 -27 l56 -23 0 -116
0 -116 -28 45 c-58 91 -170 167 -280 190 -87 17 -90 19 -69 30 9 6 17 19 17
29 0 16 9 20 63 23 l62 3 -62 2 c-59 2 -62 3 -66 30 -2 15 -5 3 -6 -25 -1 -60
7 -56 -136 -73 -119 -13 -123 -13 -142 9 -18 22 -33 19 -32 -7 0 -14 2 -13 9
3 8 19 9 19 9 -2 1 -13 -5 -23 -11 -24 -7 0 -21 -2 -31 -4 -14 -3 -17 1 -12
18 4 17 2 15 -10 -5 -17 -30 -31 -38 -21 -12 4 10 2 13 -6 8 -7 -5 -9 -2 -5 8
6 17 -8 19 -31 4 -9 -5 -13 -3 -11 5 4 36 -1 42 -21 24 -28 -25 -25 -43 3 -19
l22 19 -19 -22 c-10 -13 -22 -20 -27 -18 -4 3 -10 1 -14 -5 -3 -5 -16 -11 -28
-11 -17 -1 -15 -3 8 -8 17 -4 42 -4 58 0 20 6 27 4 27 -7 0 -8 -6 -17 -14 -20
-8 -3 -12 -13 -9 -25 3 -11 -2 -28 -10 -37 -9 -10 -14 -27 -11 -38 6 -22 -18
-54 -40 -54 -8 0 -12 -9 -9 -24 4 -17 -3 -29 -22 -45 -20 -15 -25 -24 -17 -34
9 -11 82 -243 82 -261 0 -5 -7 -6 -15 -2 -8 3 -15 1 -15 -4 0 -6 7 -10 15 -10
8 0 19 -10 26 -21 8 -15 8 -19 0 -15 -6 4 -11 3 -11 -3 0 -5 10 -11 23 -13 18
-2 22 -9 21 -35 -1 -18 2 -31 6 -28 20 12 42 -8 38 -36 -3 -20 0 -29 9 -29 7
0 13 -7 13 -15 0 -11 11 -15 43 -14 43 1 42 3 -6 13 -25 6 -30 26 -6 26 6 0 7
-4 4 -10 -12 -19 6 -10 97 51 69 47 92 58 99 48 5 -9 1 -22 -13 -36 -11 -12
-18 -29 -15 -37 8 -22 -29 -40 -78 -39 l-40 1 35 -7 c66 -13 78 -35 37 -68
-19 -15 -22 -24 -16 -48 l7 -30 1 32 c1 38 24 53 91 64 l45 8 -47 -2 c-43 -2
-47 0 -42 17 4 12 2 16 -5 12 -6 -4 -11 0 -11 9 0 11 5 15 15 11 8 -3 15 0 15
7 0 8 4 6 10 -3 9 -13 10 -13 10 0 0 12 2 12 9 2 6 -11 10 -10 15 4 3 9 9 14
12 11 3 -3 1 -14 -5 -25 -9 -16 -7 -19 14 -18 13 1 33 10 44 20 11 10 24 15
30 12 5 -4 12 -2 15 3 3 5 22 12 42 16 20 3 34 8 32 11 -9 9 -113 -20 -124
-35 -16 -20 -47 -24 -40 -4 3 8 6 17 6 19 0 2 5 4 11 4 5 0 7 -5 3 -12 -5 -7
-3 -8 5 -4 7 5 10 15 7 23 -9 21 66 124 113 157 22 16 39 33 38 38 -1 6 4 13
12 16 8 3 11 0 7 -7 -5 -7 -1 -9 9 -4 11 4 13 8 5 13 -22 14 106 51 220 63 21
2 10 4 -26 5 -67 2 -167 -24 -221 -57 -21 -14 -30 -16 -27 -7 13 33 181 86
271 86 18 0 33 5 33 11 0 18 -133 1 -206 -25 -57 -21 -62 -21 -54 -5 13 24
100 52 185 58 l70 6 3 33 c3 25 -1 32 -14 32 -10 0 -25 7 -35 16 -19 17 -39
11 -39 -12 0 -29 -38 -12 -79 36 -23 27 -48 50 -54 50 -7 0 0 -10 16 -21 23
-18 55 -59 44 -59 -1 0 -23 21 -47 46 -25 26 -38 44 -30 40 8 -4 0 6 -19 23
-18 16 -39 27 -46 25 -7 -3 -16 0 -21 7 -5 8 -3 10 7 5 20 -10 -22 23 -44 35
-17 10 -17 9 -1 -23 29 -58 86 -152 116 -190 l28 -36 -117 -174 c-64 -95 -117
-175 -119 -176 -1 -2 -18 -5 -36 -5 -27 -2 -33 2 -33 18 0 11 10 24 22 31 13
6 20 13 17 17 -13 13 8 47 30 47 19 0 22 4 18 25 -3 18 0 25 12 25 11 0 16 9
16 28 0 31 16 52 40 52 11 0 16 8 16 22 -1 14 8 27 24 35 22 11 20 18 -3 14
-5 -1 -6 2 -4 6 3 5 0 19 -6 33 -5 14 -12 36 -14 50 -2 14 -8 29 -14 35 -15
15 -10 29 5 16 10 -8 16 -9 21 -1 3 5 -1 10 -9 10 -20 0 -48 43 -41 61 3 8 -4
18 -17 24 -17 7 -23 18 -23 42 0 19 -7 36 -18 42 -16 10 -17 8 -11 -16 3 -16
9 -40 14 -54 7 -22 3 -30 -26 -53 -19 -15 -37 -38 -40 -51 -6 -25 -7 -25 -124
-25 -117 0 -118 0 -122 25 -6 30 -5 31 152 135 68 46 119 85 112 88 -7 2 -10
8 -7 13 9 13 33 -14 28 -31 -3 -9 0 -8 7 3 9 15 8 22 -5 37 -9 10 -15 27 -13
37 5 26 33 27 46 1 6 -13 11 -17 11 -10 1 7 14 12 34 11 l32 -1 -30 -9 c-23
-6 -17 -7 25 -4 33 3 47 1 35 -4 -17 -7 -16 -8 10 -14 17 -3 39 -9 50 -12 17
-6 17 -5 5 5 -12 9 -10 10 10 4 36 -10 83 -35 77 -41 -3 -3 -16 2 -29 11 -12
9 -27 16 -32 16 -5 0 18 -17 51 -39 33 -21 77 -59 98 -84 21 -25 43 -43 48
-40 5 3 7 0 5 -8 -5 -14 27 -89 38 -89 3 0 3 4 -1 9 -3 5 -2 12 2 14 5 3 7 69
5 146 -3 135 -4 142 -25 152 -22 10 -22 11 -17 219 l5 210 -40 2 -40 1 45 7
c25 4 40 8 35 8 -6 1 -11 14 -10 30 0 20 -5 28 -22 30 -11 2 -24 -2 -28 -8z
m38 -87 c-7 -2 -19 -2 -25 0 -7 3 -2 5 12 5 14 0 19 -2 13 -5z m5 -83 c0 -54
-3 -70 -14 -70 -8 0 -14 -4 -14 -10 0 -5 6 -10 14 -10 11 0 14 -20 14 -89 0
-68 -3 -89 -12 -85 -7 3 -13 -2 -13 -11 0 -9 6 -14 14 -11 7 3 13 -1 13 -9 0
-8 -3 -15 -7 -15 -28 1 -31 21 -32 198 0 169 1 182 18 182 16 0 19 -9 19 -70z
m-205 8 c-11 -13 -25 -32 -31 -43 -7 -11 -12 -14 -12 -7 0 19 39 72 52 72 7 0
2 -10 -9 -22z m12 -226 c-6 -7 -35 18 -35 31 0 5 9 2 20 -8 11 -10 18 -20 15
-23z m-529 -139 c-3 -4 -6 -1 -6 6 0 7 -4 9 -10 6 -11 -7 -14 8 -3 19 4 3 11
-1 16 -9 5 -9 6 -19 3 -22z m-36 17 c0 -5 -5 -10 -11 -10 -5 0 -7 5 -4 10 3 6
8 10 11 10 2 0 4 -4 4 -10z m244 0 c6 6 15 10 21 10 5 0 -1 -9 -15 -20 -27
-21 -45 -26 -35 -10 12 19 -6 10 -94 -49 l-89 -60 -6 31 c-12 61 -10 65 52 77
31 6 63 15 71 20 7 5 29 5 50 0 21 -5 40 -4 45 1z m66 -10 c0 -28 -263 -209
-268 -184 -2 9 2 22 10 29 14 14 249 175 255 175 2 0 3 -9 3 -20z m-100 -25
c0 -2 -40 -32 -90 -65 -49 -33 -90 -57 -90 -53 1 8 159 120 173 122 4 1 7 -1
7 -4z m-186 -185 c4 -67 3 -82 -3 -50 -13 64 -23 237 -11 185 4 -22 11 -83 14
-135z m271 152 c-13 -11 -226 -156 -245 -167 -12 -6 -13 -5 -3 5 18 19 236
169 248 170 6 0 6 -3 0 -8z m410 -67 c30 -31 55 -61 55 -67 0 -7 -14 4 -30 24
-17 21 -47 51 -68 68 -20 16 -31 30 -24 30 6 0 36 -25 67 -55z m-715 -2 c1
-10 5 -52 10 -93 5 -44 4 -82 -1 -92 -6 -10 -5 -19 1 -23 14 -8 13 -55 -1 -55
-7 0 -9 -11 -6 -29 4 -21 1 -34 -14 -46 -27 -25 -35 -11 -20 31 8 22 12 80 12
152 -1 64 -1 129 0 145 2 29 19 38 19 10z m565 -91 c-3 -3 -16 5 -28 17 l-22
23 28 -17 c15 -10 25 -20 22 -23z m-596 -127 c0 -33 -3 -67 -9 -75 -6 -9 -10
27 -12 104 -2 65 -1 120 2 123 7 7 18 -81 19 -152z m465 40 c15 -55 29 -108
32 -117 3 -10 1 -18 -4 -18 -5 0 -22 48 -36 108 -15 59 -29 116 -33 127 -3 13
-2 16 4 10 6 -5 22 -55 37 -110z m164 22 l54 -54 -30 -11 c-28 -10 -32 -8 -55
26 -38 57 -77 121 -77 127 0 11 55 -33 108 -88z m-242 32 c-14 -17 -26 -35
-26 -40 0 -5 -4 -9 -10 -9 -5 0 -10 4 -10 9 0 14 50 71 62 71 5 0 -2 -14 -16
-31z m442 6 c-3 -3 -9 2 -12 12 -6 14 -5 15 5 6 7 -7 10 -15 7 -18z m-412 -47
c-12 -21 -15 -21 -36 -8 -12 7 -11 13 10 35 22 24 25 24 31 8 3 -10 1 -26 -5
-35z m-447 -25 l-1 -68 -14 53 c-11 41 -12 57 -3 68 6 8 13 14 15 14 2 0 4
-30 3 -67z m457 -116 c1 -95 -1 -118 -6 -82 -13 83 -11 215 4 215 0 0 2 -60 2
-133z m369 123 c3 -5 -1 -10 -9 -10 -9 0 -16 5 -16 10 0 6 4 10 9 10 6 0 13
-4 16 -10z m-405 -10 c0 -6 -63 -10 -170 -10 -107 0 -170 4 -170 10 0 6 63 10
170 10 107 0 170 -4 170 -10z m315 0 c3 -5 1 -10 -4 -10 -6 0 -11 5 -11 10 0
6 2 10 4 10 3 0 8 -4 11 -10z m-385 -45 l0 -25 -115 0 -115 0 0 25 0 25 115 0
115 0 0 -25z m82 -84 c6 -112 2 -161 -12 -161 -8 0 -13 25 -26 128 -5 44 -3
52 10 52 9 0 16 8 16 20 0 11 -7 20 -15 20 -9 0 -15 9 -15 25 0 18 5 25 19 25
16 0 19 -11 23 -109z m-322 85 c0 -8 -4 -18 -10 -21 -5 -3 -10 3 -10 14 0 12
5 21 10 21 6 0 10 -6 10 -14z m270 -6 c0 -11 -4 -20 -10 -20 -5 0 -10 9 -10
20 0 11 5 20 10 20 6 0 10 -9 10 -20z m117 -112 c-24 -15 -27 -7 -26 65 l0 72
19 -65 c14 -48 16 -67 7 -72z m-87 72 c0 -6 -63 -10 -170 -10 -107 0 -170 4
-170 10 0 6 63 10 170 10 107 0 170 -4 170 -10z m-310 -29 c0 -14 -50 -71 -62
-71 -5 0 2 14 16 31 14 17 26 35 26 40 0 5 5 9 10 9 6 0 10 -4 10 -9z m252
-21 c0 -16 1 -34 2 -40 1 -12 -246 -180 -256 -174 -5 3 -8 13 -8 23 0 10 -6
24 -13 30 -8 6 -19 29 -26 51 -11 39 -11 42 12 60 13 11 30 33 37 50 l12 30
119 0 119 0 2 -30z m35 -62 c6 -51 7 -97 2 -102 -4 -4 -10 27 -14 70 -3 44 -8
89 -11 102 -2 12 0 22 4 22 5 0 14 -42 19 -92z m-30 -14 c-3 -3 -2 -17 3 -29
8 -22 1 -29 -95 -94 -123 -84 -135 -90 -135 -65 1 13 38 44 110 93 61 41 108
76 106 78 -2 3 -52 -28 -111 -67 -59 -39 -109 -70 -111 -67 -5 5 217 155 230
156 5 1 7 -2 3 -5z m212 -23 c-13 -11 -26 -17 -28 -15 -5 5 30 33 43 34 4 0
-2 -9 -15 -19z m-204 -59 c-29 -25 -177 -124 -181 -120 -5 5 167 127 181 128
6 0 6 -3 0 -8z"/>
<path d="M564 829 c-10 -17 13 -36 27 -22 12 12 4 33 -11 33 -5 0 -12 -5 -16
-11z m26 -9 c0 -5 -4 -10 -10 -10 -5 0 -10 5 -10 10 0 6 5 10 10 10 6 0 10 -4
10 -10z"/>
<path d="M636 831 c-3 -5 1 -14 8 -20 16 -13 32 2 21 19 -8 12 -22 13 -29 1z
m24 -11 c0 -5 -2 -10 -4 -10 -3 0 -8 5 -11 10 -3 6 -1 10 4 10 6 0 11 -4 11
-10z"/>
<path d="M715 830 c-8 -13 4 -32 16 -25 12 8 12 35 0 35 -6 0 -13 -4 -16 -10z"/>
<path d="M564 769 c-10 -17 13 -36 27 -22 12 12 4 33 -11 33 -5 0 -12 -5 -16
-11z m21 -9 c3 -5 1 -10 -4 -10 -6 0 -11 5 -11 10 0 6 2 10 4 10 3 0 8 -4 11
-10z"/>
<path d="M641 766 c-9 -10 -9 -16 -1 -21 17 -10 37 12 24 25 -8 8 -15 6 -23
-4z m19 -6 c0 -5 -5 -10 -11 -10 -5 0 -7 5 -4 10 3 6 8 10 11 10 2 0 4 -4 4
-10z"/>
<path d="M562 698 c5 -15 28 -18 29 -3 0 6 -7 12 -17 13 -10 3 -15 -1 -12 -10z"/>
<path d="M882 1605 c0 -16 2 -22 5 -12 2 9 2 23 0 30 -3 6 -5 -1 -5 -18z"/>
<path d="M490 1596 c0 -8 -11 -28 -25 -45 -24 -28 -25 -30 -7 -40 12 -6 23 -6
33 0 12 8 12 10 -1 8 -38 -4 -41 2 -16 32 23 27 34 59 21 59 -3 0 -5 -6 -5
-14z"/>
<path d="M772 1585 c0 -16 2 -22 5 -12 2 9 2 23 0 30 -3 6 -5 -1 -5 -18z"/>
<path d="M526 1585 c5 -11 10 -13 19 -5 6 5 16 6 20 2 5 -4 5 -1 1 6 -11 18
-47 16 -40 -3z"/>
<path d="M662 1575 c0 -16 2 -22 5 -12 2 9 2 23 0 30 -3 6 -5 -1 -5 -18z"/>
<path d="M702 1560 c-1 -14 5 -56 12 -95 8 -38 14 -59 14 -45 1 14 -5 57 -12
95 -8 39 -14 59 -14 45z"/>
<path d="M852 1560 c-1 -14 5 -56 12 -95 8 -38 14 -59 14 -45 1 14 -5 57 -12
95 -8 39 -14 59 -14 45z"/>
<path d="M892 1550 c-1 -14 3 -43 7 -65 6 -26 9 -31 9 -15 1 14 -3 43 -7 65
-6 26 -9 31 -9 15z"/>
<path d="M742 1535 c0 -16 2 -22 5 -12 2 9 2 23 0 30 -3 6 -5 -1 -5 -18z"/>
<path d="M782 1530 c-1 -14 3 -43 7 -65 6 -26 9 -31 9 -15 1 14 -3 43 -7 65
-6 26 -9 31 -9 15z"/>
<path d="M672 1515 c0 -16 2 -22 5 -12 2 9 2 23 0 30 -3 6 -5 -1 -5 -18z"/>
<path d="M822 1505 c0 -16 2 -22 5 -12 2 9 2 23 0 30 -3 6 -5 -1 -5 -18z"/>
<path d="M105 1513 c-19 -5 -55 -36 -55 -47 0 -3 6 -3 14 0 10 4 23 -10 40
-45 28 -55 18 -84 -12 -31 -9 17 -23 39 -30 48 -11 15 -11 15 -5 -3 3 -11 15
-32 25 -47 18 -26 17 -48 -1 -48 -5 0 -14 14 -21 30 -7 17 -15 29 -17 26 -3
-3 5 -23 18 -46 19 -34 24 -38 30 -23 4 10 29 31 57 46 43 23 51 25 62 12 17
-20 7 -41 -32 -65 -42 -25 -32 -26 23 0 24 11 38 20 31 20 -7 0 -10 5 -6 11
11 18 -17 60 -37 54 -12 -4 -24 7 -43 41 -14 26 -26 51 -26 56 0 21 26 -1 48
-41 19 -34 27 -40 38 -30 17 14 38 -1 60 -42 18 -35 18 -39 -3 -39 -9 0 -14
-2 -11 -5 3 -4 17 -3 31 0 22 6 24 9 11 23 -8 10 -27 33 -43 52 -23 27 -32 32
-43 23 -11 -10 -18 -3 -37 33 -24 44 -28 46 -66 37z m28 -63 c25 -45 29 -79 7
-65 -10 6 -60 94 -60 106 0 25 28 3 53 -41z"/>
<path d="M498 1503 c-29 -15 -39 -55 -16 -69 7 -4 8 -3 4 4 -4 7 -1 12 6 12 9
0 9 3 -2 10 -13 8 -12 10 3 10 11 0 32 -9 48 -21 33 -23 59 -19 59 8 0 15 -2
16 -10 3 -8 -12 -13 -11 -33 8 -13 12 -29 22 -36 22 -11 0 -11 3 -1 15 15 18
14 17 -22 -2z"/>
<path d="M752 1475 c0 -16 2 -22 5 -12 2 9 2 23 0 30 -3 6 -5 -1 -5 -18z"/>
<path d="M684 1409 c0 -42 4 -75 9 -72 9 5 8 56 -2 108 -7 33 -8 27 -7 -36z"/>
<path d="M832 1445 c0 -16 2 -22 5 -12 2 9 2 23 0 30 -3 6 -5 -1 -5 -18z"/>
<path d="M762 1415 c0 -16 2 -22 5 -12 2 9 2 23 0 30 -3 6 -5 -1 -5 -18z"/>
<path d="M481 1408 c-1 -13 -10 -18 -33 -19 -18 0 -55 -7 -83 -15 -49 -13 -37
-13 60 3 l39 6 -24 -31 c-16 -20 -38 -33 -60 -37 -106 -19 -207 -62 -303 -127
l-58 -39 3 33 c3 31 23 51 104 106 17 11 17 11 -3 2 -18 -8 -23 -8 -24 2 0 8
-3 7 -7 -3 -4 -9 -24 -30 -45 -48 -32 -29 -37 -39 -37 -78 l0 -45 36 27 c19
15 37 25 39 23 3 -2 -14 -19 -37 -36 -23 -18 -38 -32 -34 -32 4 0 30 18 59 40
29 21 91 58 137 80 47 23 74 38 60 34 -14 -3 -59 -24 -99 -45 -87 -45 -107
-45 -29 -1 66 38 137 66 208 81 44 10 62 21 91 53 36 39 38 40 60 24 14 -9 40
-15 64 -15 32 2 34 3 10 6 -61 7 -74 13 -83 40 -7 18 -11 22 -11 11z"/>
<path d="M798 1380 c-2 -22 0 -40 4 -40 5 0 8 18 8 40 0 22 -2 40 -4 40 -2 0
-6 -18 -8 -40z"/>
<path d="M839 1378 c-3 -22 -1 -34 4 -29 5 5 7 21 5 37 -3 27 -4 26 -9 -8z"/>
<path d="M1095 1384 c-30 -8 -36 -11 -16 -9 18 3 44 5 57 5 13 0 24 5 24 10 0
12 -1 12 -65 -6z"/>
<path d="M729 1362 c-3 -20 -2 -29 4 -23 5 5 7 19 5 32 -3 20 -5 19 -9 -9z"/>
<path d="M877 1371 c-4 -17 -3 -21 5 -13 5 5 8 16 6 23 -3 8 -7 3 -11 -10z"/>
<path d="M767 1361 c-4 -17 -3 -21 5 -13 5 5 8 16 6 23 -3 8 -7 3 -11 -10z"/>
<path d="M650 1360 c-12 -8 -13 -11 -2 -22 11 -11 13 -10 10 2 -2 8 3 14 10
12 8 -1 11 2 7 8 -7 12 -6 12 -25 0z"/>
<path d="M1108 1363 c7 -3 16 -2 19 1 4 3 -2 6 -13 5 -11 0 -14 -3 -6 -6z"/>
<path d="M315 1270 c-25 -11 1 -11 35 0 20 6 21 8 5 8 -11 0 -29 -3 -40 -8z"/>
<path d="M860 1266 c0 -11 30 -66 36 -66 2 0 -3 15 -12 33 -19 36 -24 44 -24
33z"/>
<path d="M913 1234 c-7 -18 11 -39 26 -30 17 11 13 46 -4 46 -9 0 -18 -7 -22
-16z m27 -9 c0 -8 -4 -15 -10 -15 -5 0 -10 7 -10 15 0 8 5 15 10 15 6 0 10 -7
10 -15z"/>
<path d="M270 1213 c0 -10 4 -14 8 -8 4 6 11 13 16 18 5 4 2 7 -7 7 -10 0 -17
-8 -17 -17z"/>
<path d="M993 1204 c-9 -23 13 -40 32 -24 12 10 13 16 4 26 -15 18 -28 18 -36
-2z m29 -9 c0 -5 -5 -11 -11 -13 -6 -2 -11 4 -11 13 0 9 5 15 11 13 6 -2 11
-8 11 -13z"/>
<path d="M182 1184 c-47 -33 -9 -107 46 -88 37 13 43 65 10 88 -28 20 -28 20
-56 0z m58 -19 c18 -21 3 -55 -24 -55 -33 0 -50 23 -36 49 12 24 42 27 60 6z"/>
<path d="M366 1164 c-16 -20 -56 -54 -90 -76 -36 -24 -51 -38 -36 -34 14 3 6
-3 -17 -14 -47 -23 -130 -41 -177 -39 -28 2 -28 2 9 9 l40 7 -43 2 -43 1 1
-87 c0 -49 0 -155 0 -238 0 -137 2 -151 20 -167 19 -15 20 -29 20 -227 0 -142
3 -211 11 -211 5 0 7 5 4 10 -3 6 3 10 14 10 10 0 22 -6 24 -12 5 -12 11 128
8 165 -2 15 8 17 93 17 90 0 95 -1 99 -22 2 -13 4 -3 4 22 1 25 -1 37 -4 27
-4 -15 -17 -17 -98 -17 l-93 0 -1 101 c-2 93 0 101 16 94 10 -3 32 -8 48 -11
17 -3 3 4 -30 15 -32 11 -61 18 -64 16 -2 -3 0 -5 6 -5 7 0 11 -59 11 -170 0
-161 -1 -170 -20 -170 -18 0 -19 8 -16 180 3 177 3 179 -19 189 -22 10 -23 16
-23 133 l1 123 21 -40 c29 -55 125 -148 184 -178 62 -31 148 -57 191 -57 31 0
32 -1 21 -25 -10 -22 -17 -24 -92 -28 l-81 -3 82 -2 c81 -2 82 -2 86 -29 3
-21 4 -17 6 13 1 51 15 64 66 65 33 1 36 2 13 8 -20 5 -53 47 -150 189 -67
101 -127 190 -132 197 -7 10 2 31 31 72 22 32 46 68 52 81 12 23 12 23 -27 -3
-22 -14 -63 -35 -92 -46 -61 -23 -180 -37 -180 -22 0 6 33 12 73 15 77 5 181
43 213 79 9 10 20 16 25 13 5 -2 22 22 39 56 17 33 29 60 28 60 -2 0 -16 -16
-32 -36z m-45 -64 c-24 -22 -49 -40 -55 -39 -6 0 0 8 14 17 13 9 36 27 50 39
14 12 27 22 30 22 3 0 -15 -18 -39 -39z m-40 -99 c-26 -47 -261 -104 -261 -62
0 4 35 11 78 17 42 6 102 22 132 36 30 15 56 27 58 27 1 1 -2 -7 -7 -18z m-7
-176 c25 -36 46 -69 46 -73 0 -3 -29 22 -65 58 -35 35 -62 67 -59 72 13 20 36
3 78 -57z m59 -112 c26 -23 65 -71 88 -105 40 -63 40 -63 17 -69 -13 -4 -34
-7 -48 -7 -23 -1 -23 0 -5 8 13 6 15 9 5 9 -8 1 -26 4 -40 6 -22 5 -23 4 -5
-5 17 -9 15 -9 -10 -5 -60 12 -137 55 -194 110 -61 58 -127 165 -117 191 7 19
42 18 50 -1 8 -22 37 -18 43 5 8 32 28 24 73 -30 23 -27 47 -50 53 -50 6 0
-10 22 -36 48 -26 26 -47 51 -47 55 0 5 28 -20 63 -55 34 -35 84 -82 110 -105z
m-223 137 c0 -5 -7 -10 -15 -10 -8 0 -15 5 -15 10 0 6 7 10 15 10 8 0 15 -4
15 -10z m357 -326 c-3 -3 -12 -4 -19 -1 -8 3 -5 6 6 6 11 1 17 -2 13 -5z
m-374 -381 c-7 -2 -19 -2 -25 0 -7 3 -2 5 12 5 14 0 19 -2 13 -5z m0 -20 c-7
-2 -19 -2 -25 0 -7 3 -2 5 12 5 14 0 19 -2 13 -5z"/>
<path d="M30 837 c-1 -20 53 -108 93 -152 45 -50 130 -107 177 -120 14 -3 -4
8 -40 26 -80 40 -158 117 -199 195 -16 32 -30 55 -31 51z"/>
<path d="M120 790 c0 -5 7 -7 15 -4 10 4 15 0 15 -11 0 -12 -5 -15 -17 -10
-15 5 -16 4 -5 -6 16 -17 37 3 29 25 -7 17 -37 22 -37 6z"/>
<path d="M280 740 c19 -17 44 -36 55 -42 27 -14 10 1 -45 41 l-45 33 35 -32z"/>
<path d="M197 749 c-31 -18 -40 -48 -22 -75 19 -30 55 -31 80 -4 35 39 -13
103 -58 79z m51 -40 c4 -34 -20 -54 -47 -39 -38 20 -18 74 24 68 13 -2 21 -12
23 -29z"/>
<path d="M285 640 c-8 -13 3 -30 20 -30 20 0 29 20 16 33 -9 9 -11 8 -6 -5 5
-13 2 -18 -10 -18 -11 0 -15 5 -11 15 6 17 0 20 -9 5z"/>
<path d="M364 609 c-3 -6 0 -17 7 -25 18 -17 44 -2 36 20 -7 18 -33 21 -43 5z
m34 -10 c-2 -6 -8 -10 -13 -10 -5 0 -11 4 -13 10 -2 6 4 11 13 11 9 0 15 -5
13 -11z"/>
<path d="M1072 1164 c-39 -27 -19 -94 28 -94 47 0 67 67 28 94 -12 9 -25 16
-28 16 -3 0 -16 -7 -28 -16z m58 -19 c20 -24 3 -55 -30 -55 -20 0 -31 6 -35
20 -8 25 10 50 35 50 10 0 23 -7 30 -15z"/>
<path d="M297 1164 c-9 -10 2 -24 19 -24 8 0 14 7 14 15 0 15 -21 21 -33 9z"/>
<path d="M738 1163 c6 -2 12 -9 12 -14 0 -6 -5 -7 -12 -3 -7 5 -8 3 -3 -5 5
-9 11 -9 17 -3 12 12 2 32 -15 31 -9 0 -9 -2 1 -6z"/>
<path d="M92 1124 c4 -21 22 -23 26 -1 2 10 -3 17 -13 17 -10 0 -15 -6 -13
-16z"/>
<path d="M654 1099 c-10 -17 13 -36 27 -22 12 12 4 33 -11 33 -5 0 -12 -5 -16
-11z m26 -9 c0 -5 -4 -10 -10 -10 -5 0 -10 5 -10 10 0 6 5 10 10 10 6 0 10 -4
10 -10z"/>
<path d="M735 1099 c-5 -8 -4 -10 3 -5 7 4 12 3 12 -3 0 -5 -6 -12 -12 -14
-10 -4 -10 -6 -1 -6 17 -1 27 19 15 31 -6 6 -12 6 -17 -3z"/>
<path d="M111 1063 c0 -11 3 -13 6 -5 2 6 9 12 14 12 6 0 7 -5 3 -12 -4 -7 -3
-8 5 -4 14 9 5 26 -15 26 -8 0 -14 -8 -13 -17z"/>
<path d="M1154 1059 c-3 -6 0 -17 7 -25 18 -17 44 -2 36 20 -7 18 -33 21 -43
5z m34 -10 c-2 -6 -8 -10 -13 -10 -5 0 -11 4 -13 10 -2 6 4 11 13 11 9 0 15
-5 13 -11z"/>
<path d="M175 1040 c-13 -6 -15 -9 -5 -9 8 0 22 4 30 9 18 12 2 12 -25 0z"/>
<path d="M581 1028 c-1 -10 6 -18 14 -18 8 0 15 8 15 18 0 13 -2 14 -9 3 -7
-11 -9 -11 -14 0 -4 10 -6 9 -6 -3z"/>
<path d="M652 1028 c5 -15 28 -18 29 -3 0 6 -7 12 -17 13 -10 3 -15 -1 -12
-10z"/>
<path d="M742 1025 c-11 -12 -10 -15 3 -15 8 0 15 7 15 15 0 18 -2 18 -18 0z"/>
<path d="M113 1023 c9 -2 23 -2 30 0 6 3 -1 5 -18 5 -16 0 -22 -2 -12 -5z"/>
<path d="M355 952 c-5 -6 -18 -12 -28 -14 -16 -3 -15 -4 4 -16 17 -11 20 -11
14 0 -6 9 -5 10 2 3 15 -14 43 -115 32 -115 -5 0 -9 9 -9 20 0 11 -7 23 -15
26 -11 4 -14 13 -9 28 6 21 6 21 -9 1 -15 -18 -14 -21 4 -29 11 -5 19 -19 19
-33 0 -13 6 -23 14 -23 8 0 22 -10 31 -22 10 -13 15 -16 12 -8 -16 44 -46 148
-49 168 -2 15 -6 20 -13 14z"/>
<path d="M948 928 c9 -9 15 -9 24 0 9 9 7 12 -12 12 -19 0 -21 -3 -12 -12z"/>
<path d="M1238 813 c6 -2 18 -2 25 0 6 3 1 5 -13 5 -14 0 -19 -2 -12 -5z"/>
<path d="M1163 803 c9 -2 23 -2 30 0 6 3 -1 5 -18 5 -16 0 -22 -2 -12 -5z"/>
<path d="M1085 785 c-39 -17 -21 -18 25 0 19 7 28 14 20 14 -8 0 -28 -6 -45
-14z"/>
<path d="M1150 765 c0 -10 7 -15 18 -13 21 4 19 22 -2 26 -10 2 -16 -3 -16
-13z"/>
<path d="M1040 720 c-11 -11 -20 -27 -20 -35 0 -21 36 -55 59 -55 48 0 72 68
33 98 -23 18 -49 15 -72 -8z m71 -16 c19 -23 -1 -49 -37 -49 -30 0 -42 20 -30
51 7 19 50 18 67 -2z"/>
<path d="M1225 689 c-67 -46 -81 -58 -47 -40 13 7 26 10 29 7 8 -8 -149 -83
-213 -101 -32 -9 -66 -19 -74 -22 -8 -4 -18 -6 -21 -5 -4 1 -15 -9 -25 -21
l-19 -22 23 19 c26 23 29 11 5 -18 -10 -12 0 -5 21 14 l39 35 -21 -31 c-34
-50 -49 -59 -69 -43 -16 13 -17 12 -5 -3 8 -10 11 -26 7 -39 -5 -14 -2 -25 6
-30 12 -8 12 -10 0 -18 -11 -7 -10 -10 5 -14 14 -3 15 -5 3 -6 -9 0 -33 11
-54 25 -40 27 -65 26 -65 -3 0 -14 2 -15 9 -5 11 19 78 -26 73 -50 -2 -9 1
-19 6 -22 6 -3 9 2 8 11 0 9 6 18 14 20 13 4 13 3 0 -7 -13 -10 -13 -11 0 -9
38 4 40 -2 15 -36 -15 -19 -25 -42 -22 -52 4 -16 5 -16 6 1 0 11 13 34 27 53
21 28 23 34 9 39 -9 4 -13 13 -10 23 2 9 -2 29 -10 45 -17 33 -12 46 18 47 19
0 19 1 4 7 -15 6 -11 13 25 48 26 25 61 46 88 53 83 24 280 131 280 152 0 12
-17 11 -25 -1 -3 -5 -12 -10 -18 -10 -7 1 2 12 18 25 44 37 28 30 -40 -16z
m10 -19 c-3 -5 -11 -10 -16 -10 -6 0 -7 5 -4 10 3 6 11 10 16 10 6 0 7 -4 4
-10z"/>
<path d="M1175 711 c-7 -12 12 -24 25 -16 6 3 10 12 9 18 0 9 -2 9 -6 0 -2 -7
-9 -13 -14 -13 -6 0 -7 5 -4 10 3 6 4 10 1 10 -3 0 -7 -4 -11 -9z"/>
<path d="M955 681 c-3 -5 0 -13 6 -17 8 -4 9 -3 5 4 -4 7 -3 12 3 12 5 0 12
-6 14 -12 3 -8 6 -6 6 5 1 18 -24 24 -34 8z"/>
<path d="M1110 620 c-19 -11 -31 -19 -27 -20 11 0 67 29 67 35 0 7 -1 7 -40
-15z"/>
<path d="M987 624 c-9 -10 2 -24 19 -24 8 0 14 7 14 15 0 15 -21 21 -33 9z"/>
<path d="M1260 596 c-14 -14 -52 -41 -84 -60 -62 -37 -70 -49 -13 -19 18 9 34
17 37 17 3 -1 25 19 50 42 25 24 43 44 40 44 -3 0 -17 -11 -30 -24z"/>
<path d="M1040 590 c-8 -5 -10 -10 -5 -10 6 0 17 5 25 10 8 5 11 10 5 10 -5 0
-17 -5 -25 -10z"/>
<path d="M1205 497 c-6 -12 -29 -32 -53 -45 -34 -19 -46 -21 -57 -12 -20 17
-19 37 3 50 16 11 16 11 -1 6 -10 -3 -21 -6 -23 -6 -10 0 -3 -33 12 -56 14
-20 14 -28 5 -37 -10 -9 -19 -4 -43 23 -17 19 -25 26 -19 15 23 -43 40 -58 61
-52 16 4 25 -3 40 -33 18 -35 24 -39 54 -37 40 3 80 44 66 67 -6 9 -4 20 5 30
12 13 10 22 -13 62 -26 44 -28 46 -37 25z m40 -47 c10 -20 12 -31 4 -35 -6 -4
-11 -5 -13 -4 -25 39 -36 61 -31 69 9 14 23 4 40 -30z m-20 -39 c14 -29 21
-52 15 -56 -11 -7 -71 85 -64 97 11 18 25 6 49 -41z m-32 -20 c28 -51 33 -71
18 -71 -9 0 -71 100 -71 114 0 3 6 6 13 6 8 0 26 -22 40 -49z m-13 -61 c0 -25
-27 -6 -49 34 -33 63 -16 81 20 22 16 -25 29 -50 29 -56z"/>
<path d="M585 489 c-4 -6 -5 -12 -2 -15 2 -3 7 2 10 11 7 17 1 20 -8 4z"/>
<path d="M614 485 c-3 -8 -4 -20 -2 -27 3 -7 7 -1 10 15 6 29 1 36 -8 12z"/>
<path d="M654 486 c-3 -8 -4 -25 -2 -38 3 -17 5 -13 9 15 5 38 2 47 -7 23z"/>
<path d="M696 486 c6 -16 4 -18 -12 -12 -15 6 -17 5 -6 -5 9 -10 15 -10 24 -1
9 9 9 15 -1 25 -10 10 -11 8 -5 -7z"/>
<path d="M475 479 c-4 -6 -5 -12 -2 -15 2 -3 7 2 10 11 7 17 1 20 -8 4z"/>
<path d="M544 476 c-3 -8 -4 -25 -2 -38 3 -17 5 -13 9 15 5 38 2 47 -7 23z"/>
<path d="M70 455 c0 -8 4 -15 8 -15 5 0 9 7 9 15 0 8 -4 15 -9 15 -4 0 -8 -7
-8 -15z"/>
<path d="M218 463 c6 -2 18 -2 25 0 6 3 1 5 -13 5 -14 0 -19 -2 -12 -5z"/>
<path d="M501 454 c0 -11 3 -14 6 -6 3 7 2 16 -1 19 -3 4 -6 -2 -5 -13z"/>
<path d="M985 460 c-13 -5 -14 -9 -5 -9 8 0 24 4 35 9 13 5 14 9 5 9 -8 0 -24
-4 -35 -9z"/>
<path d="M582 440 c-1 -14 3 -43 7 -65 6 -26 9 -31 9 -15 1 14 -3 43 -7 65 -6
26 -9 31 -9 15z"/>
<path d="M150 440 c-9 -6 -11 -10 -3 -10 7 0 19 -12 28 -27 14 -25 15 -25 9
-5 -5 21 -3 23 18 17 34 -11 58 -30 79 -62 11 -15 19 -23 19 -16 0 6 -4 15
-10 18 -5 3 -10 11 -10 17 0 6 7 5 17 -3 16 -13 16 -13 1 10 -18 25 -66 61
-83 61 -5 0 -3 -5 5 -11 12 -8 10 -9 -10 -5 -14 3 -32 6 -40 7 -8 0 -4 5 10 9
21 7 21 8 5 9 -11 0 -27 -4 -35 -9z m116 -42 l19 -21 -27 18 c-29 18 -34 25
-20 25 5 0 17 -10 28 -22z"/>
<path d="M928 443 c6 -2 18 -2 25 0 6 3 1 5 -13 5 -14 0 -19 -2 -12 -5z"/>
<path d="M472 415 c0 -16 2 -22 5 -12 2 9 2 23 0 30 -3 6 -5 -1 -5 -18z"/>
<path d="M622 415 c0 -16 2 -22 5 -12 2 9 2 23 0 30 -3 6 -5 -1 -5 -18z"/>
<path d="M512 410 c-1 -14 3 -43 7 -65 6 -26 9 -31 9 -15 1 14 -3 43 -7 65 -6
26 -9 31 -9 15z"/>
<path d="M662 395 c0 -16 2 -22 5 -12 2 9 2 23 0 30 -3 6 -5 -1 -5 -18z"/>
<path d="M552 385 c0 -16 2 -22 5 -12 2 9 2 23 0 30 -3 6 -5 -1 -5 -18z"/>
<path d="M442 365 c0 -16 2 -22 5 -12 2 9 2 23 0 30 -3 6 -5 -1 -5 -18z"/>
<path d="M482 355 c0 -16 2 -22 5 -12 2 9 2 23 0 30 -3 6 -5 -1 -5 -18z"/>
<path d="M632 355 c0 -16 2 -22 5 -12 2 9 2 23 0 30 -3 6 -5 -1 -5 -18z"/>
<path d="M186 355 c-3 -8 -1 -15 4 -15 6 0 10 7 10 15 0 8 -2 15 -4 15 -2 0
-6 -7 -10 -15z"/>
<path d="M702 345 c0 -16 2 -22 5 -12 2 9 2 23 0 30 -3 6 -5 -1 -5 -18z"/>
<path d="M672 340 c-1 -14 5 -56 12 -95 8 -38 14 -59 14 -45 1 14 -5 57 -12
95 -8 39 -14 59 -14 45z"/>
<path d="M74 339 c-3 -6 -2 -15 3 -20 5 -5 9 -1 9 11 0 23 -2 24 -12 9z"/>
<path d="M311 345 c1 -19 18 -51 18 -35 0 8 -4 22 -9 30 -5 8 -9 11 -9 5z"/>
<path d="M562 330 c-1 -14 5 -54 12 -90 8 -36 14 -56 14 -45 1 11 -5 52 -12
90 -8 39 -14 59 -14 45z"/>
<path d="M138 333 c6 -2 18 -2 25 0 6 3 1 5 -13 5 -14 0 -19 -2 -12 -5z"/>
<path d="M452 300 c0 -19 2 -27 5 -17 2 9 2 25 0 35 -3 9 -5 1 -5 -18z"/>
<path d="M602 305 c0 -16 2 -22 5 -12 2 9 2 23 0 30 -3 6 -5 -1 -5 -18z"/>
<path d="M492 300 c-1 -14 3 -43 7 -65 6 -26 9 -31 9 -15 1 14 -3 43 -7 65 -6
26 -9 31 -9 15z"/>
<path d="M642 300 c-1 -14 3 -43 7 -65 6 -26 9 -31 9 -15 1 14 -3 43 -7 65 -6
26 -9 31 -9 15z"/>
<path d="M712 285 c0 -16 2 -22 5 -12 2 9 2 23 0 30 -3 6 -5 -1 -5 -18z"/>
<path d="M532 275 c0 -16 2 -22 5 -12 2 9 2 23 0 30 -3 6 -5 -1 -5 -18z"/>
<path d="M316 240 c-4 -19 -10 -29 -13 -23 -3 8 -14 1 -31 -18 -14 -18 -40
-38 -57 -45 -16 -7 -23 -13 -14 -14 8 0 24 7 35 15 26 20 39 19 23 -2 -7 -10
-1 -7 15 7 34 30 58 75 54 98 -2 10 -7 2 -12 -18z m-26 -55 c-7 -9 -15 -13
-18 -10 -3 2 1 11 8 20 7 9 15 13 18 10 3 -2 -1 -11 -8 -20z"/>
<path d="M612 245 c0 -16 2 -22 5 -12 2 9 2 23 0 30 -3 6 -5 -1 -5 -18z"/>
<path d="M462 235 c0 -16 2 -22 5 -12 2 9 2 23 0 30 -3 6 -5 -1 -5 -18z"/>
<path d="M810 251 c0 -8 -6 -11 -17 -6 -14 5 -15 3 -7 -5 18 -18 46 -9 34 10
-7 12 -10 12 -10 1z"/>
<path d="M722 225 c0 -16 2 -22 5 -12 2 9 2 23 0 30 -3 6 -5 -1 -5 -18z"/>
<path d="M158 229 c30 -9 33 -13 27 -37 -3 -15 -16 -37 -27 -49 -12 -13 -18
-23 -13 -23 22 0 68 90 53 106 -3 2 -20 6 -39 9 l-34 5 33 -11z"/>
<path d="M540 210 c0 -16 4 -30 8 -30 5 0 7 14 4 30 -2 17 -6 30 -8 30 -2 0
-4 -13 -4 -30z"/>
<path d="M70 205 c0 -8 4 -15 8 -15 5 0 9 7 9 15 0 8 -4 15 -9 15 -4 0 -8 -7
-8 -15z"/>
<path d="M621 194 c0 -11 3 -14 6 -6 3 7 2 16 -1 19 -3 4 -6 -2 -5 -13z"/>
<path d="M445 171 c-3 -5 0 -13 5 -16 7 -4 8 -19 5 -36 -4 -19 -3 -29 5 -29 6
0 -5 -20 -26 -45 l-36 -45 278 0 278 0 -41 43 c-23 23 -43 51 -45 62 -3 19
-12 20 -201 23 -120 1 -197 6 -197 12 0 6 76 10 200 10 184 0 200 1 199 18 0
10 -3 12 -6 5 -3 -10 -55 -13 -209 -13 -134 0 -203 3 -199 10 3 6 4 10 1 10
-3 0 -7 -4 -11 -9z m415 -61 c0 -6 -73 -10 -200 -10 -127 0 -200 4 -200 10 0
6 73 10 200 10 127 0 200 -4 200 -10z m5 -36 c19 -16 19 -16 -5 -10 -18 5 -14
1 12 -14 20 -11 39 -24 43 -30 4 -6 -83 -9 -247 -9 -232 0 -251 2 -230 16 12
8 22 21 22 27 0 32 25 36 205 36 148 -1 184 -3 200 -16z"/>
<path d="M564 69 c27 -4 63 -18 80 -30 24 -17 27 -18 16 -4 -20 25 -72 45
-112 44 -27 -1 -24 -3 16 -10z"/>
<path d="M793 73 c9 -2 23 -2 30 0 6 3 -1 5 -18 5 -16 0 -22 -2 -12 -5z"/>
<path d="M715 45 c-52 -32 -40 -32 16 0 24 14 40 25 34 25 -5 0 -28 -11 -50
-25z"/>
<path d="M198 123 c7 -3 16 -2 19 1 4 3 -2 6 -13 5 -11 0 -14 -3 -6 -6z"/>
<path d="M55 50 c-7 -23 1 -40 18 -40 8 0 7 3 -2 9 -21 13 -5 44 19 38 11 -3
18 -1 14 4 -10 16 -43 9 -49 -11z"/>
<path d="M100 25 c-7 -9 -8 -15 -2 -15 5 0 12 7 16 15 3 8 4 15 2 15 -2 0 -9
-7 -16 -15z"/>
</g>
</svg>
