<?xml version="1.0" standalone="no"?>
<!DOCTYPE svg PUBLIC "-//W3C//DTD SVG 20010904//EN"
 "http://www.w3.org/TR/2001/REC-SVG-20010904/DTD/svg10.dtd">
<svg version="1.0" xmlns="http://www.w3.org/2000/svg"
 width="130.000000pt" height="186.000000pt" viewBox="0 0 130.000000 186.000000"
 preserveAspectRatio="xMidYMid meet">

<g transform="translate(0.000000,186.000000) scale(0.100000,-0.100000)"
fill="#000000" stroke="none">
<path d="M487 1853 c-3 -5 6 -9 20 -10 19 -1 22 1 12 8 -17 11 -26 11 -32 2z"/>
<path d="M838 1816 c23 -27 47 -67 54 -89 7 -22 14 -35 16 -28 7 20 -36 96
-75 131 -36 34 -36 34 5 -14z"/>
<path d="M1038 1822 c-7 -46 -30 -90 -54 -99 -9 -3 -26 -1 -40 5 -44 21 -25
74 41 110 18 11 18 11 -8 12 -16 0 -26 -4 -23 -9 3 -4 -6 -19 -19 -31 -14 -13
-25 -34 -25 -46 0 -27 34 -54 70 -55 19 -1 13 -5 -22 -17 -38 -12 -48 -20 -47
-36 1 -17 2 -17 6 -4 3 11 26 24 61 35 60 18 98 41 50 29 -33 -8 -35 -2 -8 31
20 26 35 82 28 105 -3 7 -7 -6 -10 -30z"/>
<path d="M590 1808 c85 -48 172 -143 215 -235 116 -245 103 -227 283 -408 129
-130 163 -169 149 -173 -18 -4 -17 -5 2 -18 26 -19 27 -48 2 -71 -24 -22 -176
-257 -222 -340 -26 -49 -41 -65 -67 -74 -18 -6 -36 -8 -39 -5 -7 7 81 162 174
305 70 107 75 113 101 106 l27 -6 -22 16 c-29 21 -29 49 -1 69 12 9 17 16 11
16 -7 0 -20 -8 -30 -19 -10 -10 -25 -21 -33 -24 -12 -4 -11 -6 3 -6 9 -1 17
-3 17 -7 0 -3 -33 -55 -74 -117 -40 -62 -104 -165 -141 -230 -38 -64 -70 -115
-73 -112 -9 9 92 202 168 324 40 63 74 120 76 126 3 7 -25 52 -62 101 -118
156 -201 290 -234 379 -18 47 -35 84 -37 82 -2 -2 11 -41 28 -86 32 -84 111
-212 233 -376 36 -49 64 -95 62 -101 -2 -6 -36 -62 -76 -125 -39 -63 -97 -166
-128 -229 -31 -63 -58 -107 -60 -98 -5 26 68 169 162 320 l86 136 -110 154
c-61 84 -129 189 -151 233 -22 44 -37 69 -33 55 16 -59 119 -221 242 -383 l44
-58 -60 -92 c-81 -126 -135 -221 -166 -291 -25 -56 -41 -66 -41 -26 0 10 -44
54 -105 105 -58 49 -106 91 -108 95 -3 9 94 100 107 100 17 0 51 67 51 102 0
20 -10 50 -23 69 l-23 34 70 78 c49 55 72 74 78 65 6 -10 8 -9 8 4 0 10 -9 18
-22 20 -19 2 -23 9 -22 35 1 18 -2 30 -7 27 -14 -8 -10 -50 6 -64 12 -10 4
-23 -52 -86 -57 -62 -71 -73 -93 -68 -21 4 -20 2 7 -10 17 -8 39 -28 47 -45
26 -50 20 -96 -20 -149 -1 -2 -20 -10 -41 -17 -21 -8 -32 -14 -25 -15 14 0
-146 -180 -160 -180 -5 0 -8 11 -8 24 0 14 -4 28 -10 31 -17 10 -12 19 41 78
48 54 53 57 88 52 33 -4 34 -4 7 5 -88 28 -113 130 -48 196 22 22 23 25 6 16
-55 -29 -68 -131 -23 -178 l22 -24 -59 -62 c-32 -35 -65 -62 -71 -62 -23 3
-14 -15 10 -18 17 -2 22 -10 22 -33 0 -22 6 -32 20 -35 12 -4 21 -16 23 -30 2
-14 10 -32 18 -40 7 -9 11 -25 7 -38 -3 -14 -1 -22 7 -22 8 0 11 -11 8 -30 -3
-18 1 -35 9 -41 9 -8 13 -8 13 0 0 6 -3 11 -7 11 -5 0 -8 17 -8 38 1 35 66
172 83 172 4 0 38 -27 75 -60 64 -56 85 -71 73 -52 -3 5 -50 46 -105 92 -55
46 -98 88 -95 92 7 10 10 8 132 -95 75 -64 90 -82 81 -93 -6 -8 -26 -15 -43
-16 -21 -1 -15 -3 19 -7 49 -6 50 -6 50 -41 0 -19 5 -39 10 -43 6 -5 0 -6 -12
-2 -29 8 -39 -11 -12 -25 15 -8 19 -9 15 -1 -4 6 -2 11 4 11 6 0 10 -11 8 -25
-2 -14 4 -29 15 -37 16 -12 16 -15 -8 -50 -14 -20 -25 -43 -25 -50 0 -7 6 -2
13 12 7 14 21 37 31 52 16 25 16 27 -1 40 -13 9 -19 29 -20 65 l-3 52 43 11
c23 6 84 25 136 42 52 17 110 32 128 33 32 2 33 0 33 -34 0 -24 -3 -31 -9 -23
-7 11 -9 11 -14 -2 -4 -9 -3 -15 1 -15 21 3 22 -3 2 -19 -18 -15 -20 -21 -11
-45 16 -42 13 -57 -11 -66 -24 -9 -19 -13 30 -24 15 -4 20 -1 15 6 -4 8 -1 7
9 -1 19 -15 49 -6 41 13 -2 8 0 30 7 50 10 29 9 40 -3 58 -8 13 -17 32 -19 42
-5 18 -6 18 -16 -5 -10 -23 -11 -21 -11 22 -1 46 0 47 23 38 31 -11 43 2 50
55 3 22 8 54 10 70 4 24 1 31 -12 31 -9 1 -26 4 -37 9 -11 4 -5 -2 13 -14 60
-39 35 -62 -33 -29 -46 23 -60 56 -20 50 18 -2 18 -1 3 8 -24 15 -12 42 16 35
18 -5 19 -4 4 5 -25 15 -16 56 26 120 20 30 41 60 46 67 16 20 13 27 -49 95
-55 60 -58 65 -40 76 22 14 15 42 -12 42 -13 0 -19 -7 -19 -22 0 -18 -20 -3
-101 77 -85 84 -159 172 -159 188 0 2 10 3 23 3 16 -1 22 5 22 19 0 28 -33 32
-43 5 -7 -18 -14 -7 -46 67 -51 118 -81 168 -134 226 -46 48 -155 127 -176
127 -6 0 14 -14 44 -32z m348 -390 c-6 -18 -28 -21 -28 -4 0 9 7 16 16 16 9 0
14 -5 12 -12z m257 -287 c3 -6 -3 -15 -14 -20 -16 -9 -18 -8 -14 9 6 21 18 26
28 11z m75 -161 c6 -11 8 -20 6 -20 -3 0 -10 9 -16 20 -6 11 -8 20 -6 20 3 0
10 -9 16 -20z m-115 -275 c-15 -42 -24 -80 -21 -83 3 -3 6 0 6 7 0 8 13 5 38
-9 35 -21 36 -21 12 -1 -14 11 -28 21 -32 21 -5 0 -8 9 -8 21 0 20 2 19 53 -8
52 -28 71 -61 32 -55 -20 3 -20 3 -1 -11 24 -18 15 -50 -11 -40 -10 3 -36 20
-58 36 -22 17 -34 23 -26 13 13 -15 13 -19 0 -27 -10 -8 -8 -8 10 -4 17 5 21
4 16 -5 -4 -6 -16 -9 -27 -7 -10 3 -34 0 -51 -8 -18 -7 -42 -16 -55 -20 l-23
-7 17 34 c30 58 146 239 151 235 2 -2 -8 -39 -22 -82z m-584 -89 c-35 -60 -51
-70 -51 -32 0 14 -5 28 -11 32 -7 4 4 21 27 45 33 34 40 37 52 25 13 -12 10
-22 -17 -70z m22 -24 c-44 -82 -51 -90 -48 -58 4 33 64 138 75 131 5 -3 -7
-36 -27 -73z m640 -163 c5 -9 4 -25 -4 -44 -7 -16 -11 -34 -10 -38 1 -5 -3 -6
-8 -2 -7 4 -7 15 -1 31 6 14 10 33 9 42 0 9 -5 1 -11 -18 -10 -36 -34 -70 -50
-70 -4 0 -3 8 3 19 9 13 9 26 1 51 -7 18 -9 36 -6 42 8 13 66 4 77 -13z"/>
<path d="M663 1833 c-15 -5 -18 -43 -4 -43 5 0 8 6 7 13 0 6 4 12 9 12 6 0 9
-6 8 -14 -1 -10 2 -10 10 -2 14 14 -11 41 -30 34z"/>
<path d="M469 1823 c-6 -58 -4 -70 18 -90 35 -33 42 -28 9 6 -22 23 -24 29
-12 34 8 3 18 1 22 -5 5 -7 2 -8 -7 -3 -8 5 -5 -1 5 -14 11 -12 24 -20 30 -18
6 2 23 -8 39 -22 l29 -26 -33 -7 c-34 -7 -34 -7 4 -4 32 2 42 -2 59 -27 11
-16 26 -48 34 -70 7 -23 13 -34 13 -25 1 9 -4 29 -9 44 -16 41 -6 39 24 -6 16
-24 25 -48 21 -59 -8 -28 4 -54 20 -41 7 6 15 7 17 3 3 -4 3 -1 1 7 -17 67
-141 216 -225 270 -57 37 -70 62 -19 35 74 -38 184 -154 242 -256 17 -30 28
-45 24 -34 -25 79 -150 227 -239 284 -51 32 -65 37 -67 24z m66 -73 c3 -5 2
-10 -4 -10 -5 0 -13 5 -16 10 -3 6 -2 10 4 10 5 0 13 -4 16 -10z m116 -102
c15 -28 5 -21 -21 15 -15 20 -17 27 -6 18 9 -8 22 -23 27 -33z m89 -139 c0 -5
-4 -9 -10 -9 -5 0 -10 7 -10 16 0 8 5 12 10 9 6 -3 10 -10 10 -16z"/>
<path d="M464 1681 c1 -43 -4 -63 -21 -88 -26 -36 -30 -63 -9 -63 10 0 14 -9
13 -27 -2 -21 2 -28 16 -27 9 1 17 -2 17 -7 0 -5 -8 -9 -18 -9 -13 0 -18 -7
-18 -22 1 -18 -10 -25 -80 -46 -67 -20 -82 -28 -90 -50 -15 -40 -155 -262
-165 -262 -5 0 -9 7 -9 15 0 8 4 15 9 15 5 0 13 12 19 28 9 25 7 27 -20 28
-16 1 -42 11 -58 23 l-30 21 -5 -27 c-14 -66 -14 -65 0 -53 19 16 75 -14 75
-40 0 -11 5 -20 10 -20 6 0 -8 -25 -30 -56 -28 -37 -35 -51 -20 -42 26 16 95
115 189 273 62 104 77 122 108 133 20 6 38 11 39 9 7 -7 -213 -370 -253 -416
-2 -3 -9 1 -15 7 -7 7 -17 12 -23 12 -5 0 -2 -5 8 -11 23 -13 23 -65 0 -78
-10 -6 -12 -11 -6 -11 7 0 18 9 25 20 27 43 49 26 163 -134 100 -140 161 -241
192 -321 9 -23 11 -24 7 -5 -16 71 -113 228 -275 447 l-31 41 77 124 c42 67
102 174 133 236 31 63 58 109 60 103 2 -5 -6 -31 -17 -57 -12 -26 -19 -49 -17
-51 2 -2 12 16 22 41 19 46 38 56 40 20 2 -37 4 -44 12 -42 4 2 39 -24 77 -57
37 -33 81 -71 97 -85 l29 -25 -51 -57 c-29 -32 -47 -58 -41 -58 6 0 11 4 11 9
0 5 10 7 23 5 16 -3 18 -2 5 3 -14 7 -2 25 73 106 74 79 89 100 79 112 -6 8
-10 22 -8 32 2 10 -8 28 -22 40 -14 12 -19 23 -12 23 15 0 16 30 1 30 -7 0 -9
11 -6 27 3 16 -1 32 -9 40 -8 8 -14 10 -14 4 0 -5 3 -12 8 -14 19 -13 4 -87
-32 -151 l-37 -67 -37 30 c-20 17 -55 45 -76 64 l-40 34 50 12 c69 17 125 69
123 116 -1 13 -4 9 -10 -12 -11 -39 -57 -79 -107 -93 -73 -20 -102 -8 -102 41
0 19 6 30 20 34 27 8 25 19 -5 35 -13 7 -22 18 -18 23 3 6 -2 16 -13 24 -16
12 -17 16 -4 36 29 47 40 73 40 100 0 25 2 27 21 17 11 -7 23 -9 27 -6 3 3 0
6 -7 6 -6 0 -22 10 -35 23 l-23 23 1 -55z m-101 -414 c-82 -154 -192 -327
-209 -327 -8 0 -14 2 -14 5 0 3 31 52 69 108 71 107 176 284 193 327 6 14 12
20 15 12 3 -6 -22 -63 -54 -125z m290 -47 c54 -44 67 -60 48 -60 -12 0 -118
86 -178 143 -61 58 -42 67 21 10 29 -26 78 -68 109 -93z m66 51 c-30 -55 -48
-75 -49 -53 -1 19 66 130 74 122 5 -5 -6 -35 -25 -69z m51 21 c0 -15 5 -33 10
-38 7 -7 -1 -21 -25 -44 -28 -28 -37 -31 -49 -21 -14 12 -12 20 17 72 36 65
47 73 47 31z m-692 -127 c41 -18 51 -37 21 -43 -21 -4 -79 35 -79 54 0 8 3 14
8 12 4 -3 26 -13 50 -23z"/>
<path d="M538 1703 c7 -3 16 -2 19 1 4 3 -2 6 -13 5 -11 0 -14 -3 -6 -6z"/>
<path d="M803 1669 c-16 -16 -5 -39 19 -39 14 0 19 6 16 22 -4 25 -19 33 -35
17z m27 -14 c0 -8 -4 -15 -9 -15 -13 0 -22 16 -14 24 11 11 23 6 23 -9z"/>
<path d="M515 1660 c27 -12 43 -12 25 0 -8 5 -22 9 -30 9 -10 0 -8 -3 5 -9z"/>
<path d="M496 1615 c4 -8 10 -15 15 -15 5 0 9 7 9 15 0 8 -7 15 -15 15 -9 0
-12 -6 -9 -15z"/>
<path d="M924 1555 l1 -70 55 -27 c30 -15 69 -30 85 -33 17 -3 6 4 -22 14
-104 39 -112 47 -116 120 l-3 66 0 -70z"/>
<path d="M536 1608 c3 -4 9 -8 15 -8 5 0 9 4 9 8 0 5 -7 9 -15 9 -8 0 -12 -4
-9 -9z"/>
<path d="M76 1558 c5 -8 2 -9 -10 -5 -13 5 -15 3 -7 -11 6 -11 6 -24 0 -33
-16 -25 -10 -68 14 -90 12 -12 16 -19 10 -15 -8 5 -13 1 -13 -9 0 -9 5 -13 10
-10 6 4 10 -6 10 -24 0 -23 -4 -29 -15 -25 -21 9 -42 -12 -42 -40 -1 -17 4
-22 17 -19 9 2 38 -12 66 -33 27 -20 46 -33 42 -29 -4 4 -3 16 3 27 8 15 7 24
-5 37 -21 23 -10 32 62 56 29 9 51 19 49 21 -2 2 -23 -3 -47 -11 -24 -8 -53
-13 -64 -9 -14 3 -17 2 -8 -4 10 -7 10 -11 -3 -22 -14 -11 -19 -7 -16 12 0 4
-6 5 -15 1 -13 -5 -15 2 -12 42 2 28 8 50 16 53 6 2 12 -1 12 -8 0 -6 -5 -8
-11 -4 -7 4 -10 2 -8 -5 8 -22 24 -12 32 20 5 21 4 42 -4 62 -11 27 -10 32 10
48 20 16 21 20 7 25 -9 4 -20 4 -23 0 -4 -3 0 -6 7 -6 9 0 8 -6 -5 -20 -15
-17 -16 -24 -5 -49 6 -16 9 -35 5 -40 -9 -15 -42 -14 -48 2 -4 9 -6 9 -6 -1
-2 -26 -21 0 -21 28 0 34 20 51 21 18 1 -19 3 -17 10 9 5 18 14 35 19 38 13 8
13 35 0 35 -5 0 -7 -8 -4 -17 5 -17 5 -17 -6 0 -12 19 -36 24 -24 5z m12 -43
c-3 -3 -9 2 -12 12 -6 14 -5 15 5 6 7 -7 10 -15 7 -18z m30 -215 c42 -30 50
-44 33 -54 -10 -7 -111 52 -111 64 0 10 12 20 25 20 7 0 31 -14 53 -30z"/>
<path d="M766 1450 c3 -14 11 -32 16 -40 6 -10 7 -7 2 10 -3 14 -11 32 -16 40
-6 10 -7 7 -2 -10z"/>
<path d="M1176 1391 c44 -16 92 -34 105 -40 22 -11 23 -11 5 3 -19 15 -162 67
-181 65 -6 0 26 -13 71 -28z"/>
<path d="M460 1282 c-8 -9 -13 -26 -12 -39 2 -14 -3 -25 -12 -29 -9 -3 -16
-10 -16 -16 0 -5 5 -6 10 -3 13 8 12 5 -1 -34 -7 -19 -20 -33 -34 -37 -16 -4
-21 -11 -18 -24 6 -24 -14 -60 -33 -60 -11 0 -14 -5 -9 -17 19 -46 17 -53 -13
-66 -30 -13 -31 -13 -10 -26 19 -12 20 -11 14 6 -5 12 -4 15 3 8 15 -15 26
-90 12 -81 -6 4 -11 16 -11 28 0 17 -2 18 -15 8 -20 -17 -19 -27 5 -33 14 -3
20 -14 20 -31 0 -15 6 -26 13 -26 8 0 21 -8 29 -17 19 -22 32 -56 18 -48 -6 3
-10 3 -10 -2 0 -4 12 -14 27 -21 20 -9 24 -9 15 0 -21 21 -13 48 23 82 22 21
35 42 34 57 -1 20 -2 19 -10 -8 -9 -32 -53 -72 -66 -59 -3 3 6 17 20 30 15 14
27 30 27 36 0 6 -11 -2 -24 -17 -13 -15 -28 -25 -32 -21 -4 5 0 16 9 26 24 27
21 36 -4 11 -15 -15 -19 -28 -14 -47 6 -26 5 -26 -8 -7 -17 24 -48 151 -38
160 3 4 11 -10 18 -32 11 -36 12 -33 11 47 -1 55 3 85 11 88 6 2 11 15 11 28
0 33 18 30 23 -3 3 -20 4 -16 6 14 0 23 5 44 10 47 4 3 11 29 15 58 4 29 12
58 18 65 16 20 5 24 -12 5z m-91 -274 c-1 -31 -1 -31 -8 -8 -5 14 -6 28 -4 33
9 15 13 6 12 -25z m-12 -180 c-3 -7 -5 -2 -5 12 0 14 2 19 5 13 2 -7 2 -19 0
-25z"/>
<path d="M1034 1275 c-7 -18 3 -35 21 -35 21 0 28 19 15 35 -16 19 -29 19 -36
0z m34 -13 c2 -7 -3 -12 -12 -12 -9 0 -16 7 -16 16 0 17 22 14 28 -4z"/>
<path d="M26 1244 c-3 -9 -4 -19 -1 -22 3 -3 5 0 5 7 0 8 20 2 55 -17 30 -16
56 -27 59 -24 3 3 -18 16 -46 29 -29 13 -55 29 -59 34 -4 6 -9 3 -13 -7z"/>
<path d="M369 1218 c-12 -24 -55 -96 -95 -162 l-74 -118 63 -87 c99 -135 187
-269 213 -325 14 -28 22 -40 18 -26 -12 51 -148 263 -256 401 l-28 37 74 118
c75 123 120 204 111 204 -2 0 -14 -19 -26 -42z"/>
<path d="M473 1200 c0 -30 2 -43 4 -27 2 15 2 39 0 55 -2 15 -4 2 -4 -28z"/>
<path d="M453 1105 c0 -27 2 -38 4 -22 2 15 2 37 0 50 -2 12 -4 0 -4 -28z"/>
<path d="M861 1143 c0 -5 4 -17 8 -27 6 -15 -1 -28 -31 -56 -28 -27 -38 -45
-37 -66 1 -28 1 -28 9 6 5 19 21 45 36 59 36 30 43 11 10 -23 -15 -14 -26 -33
-26 -43 1 -11 6 -6 14 13 8 17 21 34 30 37 21 8 20 -11 -1 -36 -14 -15 -18
-39 -19 -106 l-2 -86 7 87 c3 48 12 93 19 100 18 18 26 2 13 -30 -7 -16 -10
-55 -8 -88 l3 -59 2 65 c3 94 21 114 23 25 1 -61 2 -66 10 -38 7 23 5 52 -6
98 -17 76 -19 93 -6 80 5 -6 16 -44 26 -84 13 -55 15 -76 7 -79 -7 -2 -12 -12
-12 -22 0 -10 -5 -31 -11 -47 -8 -22 -12 -24 -19 -13 -7 11 -10 5 -10 -22 0
-50 -18 -58 -23 -11 -3 35 -4 35 -5 -9 l-2 -47 28 16 c21 12 27 22 24 39 -3
15 3 27 17 35 14 10 19 20 15 36 -4 13 -1 30 5 37 8 9 10 28 5 50 -4 24 -2 36
5 36 9 0 16 -36 12 -62 0 -5 6 -8 14 -8 13 0 13 3 3 20 -10 16 -10 24 -1 39
11 18 9 20 -15 23 -24 3 -27 7 -25 37 1 24 -1 30 -8 20 -7 -11 -9 -11 -9 4 0
15 -11 22 -33 18 -5 -1 -6 3 -3 8 6 9 -20 81 -29 81 -3 0 -5 -3 -4 -7z"/>
<path d="M483 1080 c0 -36 2 -50 4 -32 2 17 2 47 0 65 -2 17 -4 3 -4 -33z"/>
<path d="M403 980 c0 -47 2 -66 4 -42 2 23 2 61 0 85 -2 23 -4 4 -4 -43z"/>
<path d="M434 975 c0 -49 1 -71 3 -48 2 23 2 64 0 90 -2 26 -3 8 -3 -42z"/>
<path d="M463 960 c0 -47 2 -66 4 -42 2 23 2 61 0 85 -2 23 -4 4 -4 -43z"/>
<path d="M493 950 c0 -36 2 -50 4 -32 2 17 2 47 0 65 -2 17 -4 3 -4 -33z"/>
<path d="M580 963 c-55 -70 42 -151 105 -88 30 30 31 54 4 89 -29 36 -80 36
-109 -1z m88 1 c30 -21 30 -69 -2 -89 -59 -39 -122 49 -64 89 12 9 27 16 33
16 6 0 21 -7 33 -16z"/>
<path d="M823 910 c0 -36 2 -50 4 -32 2 17 2 47 0 65 -2 17 -4 3 -4 -33z"/>
<path d="M792 930 c0 -14 2 -19 5 -12 2 6 2 18 0 25 -3 6 -5 1 -5 -13z"/>
<path d="M0 934 c0 -19 43 -69 206 -241 168 -178 160 -167 268 -395 42 -89
124 -184 203 -235 29 -18 56 -33 60 -33 4 0 -14 14 -42 31 -110 68 -173 147
-241 300 -65 147 -94 187 -263 362 -83 87 -161 172 -171 190 -11 18 -20 27
-20 21z"/>
<path d="M42 904 c10 -10 20 -16 22 -13 3 3 -5 11 -17 18 -21 13 -21 12 -5 -5z"/>
<path d="M380 875 c0 -8 2 -15 4 -15 2 0 6 7 10 15 3 8 1 15 -4 15 -6 0 -10
-7 -10 -15z"/>
<path d="M803 815 c0 -38 2 -53 4 -32 2 20 2 52 0 70 -2 17 -4 1 -4 -38z"/>
<path d="M833 785 c0 -27 2 -38 4 -22 2 15 2 37 0 50 -2 12 -4 0 -4 -28z"/>
<path d="M93 744 c-3 -8 -1 -20 5 -26 15 -15 43 8 35 28 -7 19 -32 18 -40 -2z
m29 -9 c0 -5 -5 -11 -11 -13 -6 -2 -11 4 -11 13 0 9 5 15 11 13 6 -2 11 -8 11
-13z"/>
<path d="M1280 735 c-10 -12 -16 -13 -27 -4 -7 7 -15 10 -17 8 -2 -2 6 -11 18
-20 21 -16 22 -15 33 7 13 28 11 30 -7 9z"/>
<path d="M813 690 c0 -30 2 -43 4 -27 2 15 2 39 0 55 -2 15 -4 2 -4 -28z"/>
<path d="M840 697 c0 -21 -4 -46 -9 -55 -4 -9 -11 -31 -14 -49 -6 -31 -5 -31
11 -15 11 10 16 27 14 44 -3 19 1 30 12 34 9 3 16 10 16 16 0 5 -5 6 -11 2 -7
-4 -9 0 -5 12 3 11 1 26 -4 34 -7 11 -10 5 -10 -23z"/>
<path d="M223 619 c-16 -16 -5 -39 19 -39 14 0 19 6 16 22 -4 25 -19 33 -35
17z m27 -14 c0 -8 -4 -15 -9 -15 -13 0 -22 16 -14 24 11 11 23 6 23 -9z"/>
<path d="M14 506 c11 -9 24 -16 30 -16 12 0 7 5 -24 19 -24 11 -24 11 -6 -3z"/>
<path d="M85 475 c17 -8 37 -14 45 -14 8 0 -1 7 -20 14 -46 18 -64 17 -25 0z"/>
<path d="M673 470 c-18 -10 -39 -33 -48 -49 -17 -34 -20 -107 -5 -147 16 -42
4 -40 -25 4 -18 27 -25 48 -20 61 3 11 1 29 -5 38 -8 15 -9 12 -4 -12 5 -29 5
-29 -10 -11 -9 11 -16 24 -16 30 0 5 -3 7 -6 3 -3 -3 9 -33 27 -67 40 -76 141
-187 210 -231 29 -18 47 -35 41 -37 -27 -9 -146 89 -208 171 -26 34 -62 94
-81 132 -19 39 -31 59 -27 45 28 -106 154 -265 263 -334 48 -30 54 -51 14 -42
-21 5 -24 4 -13 -4 8 -5 22 -10 30 -10 16 0 43 47 34 61 -3 5 0 19 7 31 6 13
8 20 4 15 -5 -4 -21 4 -35 18 -15 14 -46 29 -71 34 -24 5 -37 9 -29 10 9 1 5
6 -10 14 -36 17 -70 91 -70 150 0 60 21 98 69 126 20 11 32 21 26 21 -5 0 -24
-9 -42 -20z m-18 -260 l20 -25 -22 19 c-13 11 -23 24 -23 29 0 6 1 8 3 6 1 -2
11 -15 22 -29z m142 -82 c13 -12 23 -25 23 -29 0 -13 -43 0 -59 18 -15 15 -14
15 14 -1 l30 -17 -24 20 c-13 12 -31 21 -42 21 -10 0 -21 5 -25 12 -12 20 58
0 83 -24z"/>
<path d="M344 459 c-10 -17 23 -46 37 -32 7 7 9 19 6 27 -7 18 -33 21 -43 5z
m36 -15 c0 -17 -22 -14 -28 4 -2 7 3 12 12 12 9 0 16 -7 16 -16z"/>
<path d="M506 450 c3 -14 11 -32 16 -40 6 -10 7 -7 2 10 -3 14 -11 32 -16 40
-6 10 -7 7 -2 -10z"/>
<path d="M225 432 c118 -39 135 -53 135 -106 0 -24 3 -63 6 -88 6 -44 6 -45
-27 -56 l-34 -11 36 5 c34 5 36 4 47 -34 14 -47 63 -117 94 -133 14 -7 6 4
-18 28 -55 54 -83 130 -91 249 l-6 92 -46 25 c-42 23 -148 58 -168 56 -4 0 28
-13 72 -27z"/>
<path d="M775 260 c-3 -5 -12 -7 -19 -4 -8 3 -16 1 -19 -3 -3 -5 10 -10 28
-11 28 -2 33 1 29 13 -7 17 -11 19 -19 5z"/>
<path d="M454 225 c-7 -18 3 -35 21 -35 21 0 28 19 15 35 -16 19 -29 19 -36 0z
m34 -13 c2 -7 -3 -12 -12 -12 -9 0 -16 7 -16 16 0 17 22 14 28 -4z"/>
<path d="M748 208 c6 -6 18 -8 28 -6 14 3 12 5 -9 10 -19 3 -25 2 -19 -4z"/>
<path d="M814 188 c4 -32 -1 -34 -28 -13 -11 8 -27 15 -35 14 -9 0 -5 -5 9
-10 14 -6 35 -20 47 -31 22 -21 23 -21 22 -2 -1 10 -5 30 -10 44 -9 25 -9 25
-5 -2z"/>
<path d="M255 160 c-18 -8 -17 -9 7 -9 l27 -1 -24 -46 c-14 -26 -25 -56 -24
-68 0 -12 6 -2 14 23 26 82 75 109 114 62 10 -13 12 -13 9 -1 -9 29 -89 55
-123 40z"/>
<path d="M368 83 c-3 -12 -21 -31 -39 -42 -19 -12 -27 -21 -18 -21 21 0 72 55
67 71 -3 8 -7 5 -10 -8z"/>
<path d="M606 72 c-2 -4 4 -8 14 -8 10 0 16 4 14 8 -3 4 -9 8 -14 8 -5 0 -11
-4 -14 -8z"/>
<path d="M610 36 c7 -7 13 -7 20 0 6 6 3 10 -10 10 -13 0 -16 -4 -10 -10z"/>
<path d="M345 10 c3 -5 8 -10 11 -10 2 0 4 5 4 10 0 6 -5 10 -11 10 -5 0 -7
-4 -4 -10z"/>
</g>
</svg>
