<svg version="1.0" xmlns="http://www.w3.org/2000/svg"

 preserveAspectRatio="xMidYMid meet">

<symbol id="jack" width="100.000000pt" height="186.000000pt" viewBox="-20 20 130.000000 186.000000"  preserveAspectRatio="xMidYMid meet" >

<g transform="translate(0.000000,185.000000) scale(0.100000,-0.100000)">

<path d="M407 1837 c4 -7 23 -35 42 -60 28 -38 36 -59 38 -103 3 -49 0 -60
-27 -94 -39 -50 -38 -68 3 -61 5 1 6 -12 2 -29 -4 -19 -2 -36 5 -45 20 -24 6
-39 -46 -51 l-49 -13 48 6 47 5 -10 -27 c-21 -55 -132 -265 -184 -348 -32 -51
-50 -89 -44 -93 15 -10 126 -181 159 -246 16 -32 32 -58 34 -58 17 0 -157 288
-184 304 -6 4 8 34 37 79 25 40 81 139 123 220 62 122 78 145 88 133 7 -8 8
-17 2 -20 -5 -3 -7 -15 -4 -26 3 -12 -2 -29 -13 -41 -13 -15 -15 -22 -6 -31 7
-7 12 -22 12 -34 0 -12 6 -21 13 -20 7 0 41 -25 76 -56 34 -32 56 -58 48 -58
-8 0 -22 9 -33 21 -10 12 -36 35 -56 51 l-38 30 2 -54 1 -53 6 43 6 43 53 -48
52 -48 -47 -54 -48 -55 -6 55 c-4 42 -6 34 -6 -41 0 -54 2 -80 6 -59 5 29 34
65 151 187 117 123 146 149 151 134 8 -21 39 -49 39 -34 0 5 -7 13 -16 16 -9
3 -14 15 -12 28 2 13 -5 31 -14 41 -25 24 -23 47 5 47 18 0 33 -21 85 -126 35
-69 86 -159 114 -199 l49 -75 -140 -209 c-78 -116 -141 -215 -141 -221 0 -5 7
-10 15 -10 8 0 15 -8 15 -17 0 -12 3 -14 8 -7 4 7 16 14 27 17 17 4 16 5 -5 6
-61 3 -58 10 90 231 98 145 141 216 134 224 -75 99 -219 367 -210 392 4 10 16
12 49 8 40 -6 46 -4 70 25 14 17 35 31 46 31 11 0 23 5 26 10 3 6 18 11 33 11
17 1 21 3 10 6 -10 2 -18 10 -18 16 0 6 -7 1 -16 -11 -21 -31 -60 -29 -66 3
-4 19 -1 25 12 25 23 0 33 26 20 51 -15 26 -40 24 -40 -3 -1 -22 -1 -22 -12
-4 -9 15 -7 22 8 33 10 7 23 13 29 13 21 0 49 -28 62 -61 13 -33 13 -33 7 -4
-11 58 -58 87 -98 61 -23 -14 -24 -14 -36 15 -7 16 -15 28 -17 25 -2 -2 5 -23
17 -46 12 -23 19 -45 16 -48 -8 -8 -9 -7 -60 95 -50 100 -51 103 -36 103 5 0
21 -21 34 -47 14 -27 25 -44 26 -40 0 4 -9 26 -20 48 -12 22 -18 44 -15 50 4
5 2 15 -4 22 -7 9 1 30 29 75 l39 62 -275 0 c-225 0 -274 -2 -267 -13z m139
-26 l-28 -29 -34 20 c-54 32 -50 38 22 38 l68 0 -28 -29z m194 22 c0 -5 -15
-18 -32 -30 l-31 -22 -28 20 c-48 34 -44 39 25 39 36 0 66 -3 66 -7z m163 -5
c-2 -5 1 -8 6 -8 6 0 -3 -22 -20 -50 l-31 -50 -178 0 -178 0 -42 56 c-24 32
-37 53 -29 49 8 -5 31 -19 53 -33 l38 -24 34 33 c36 35 28 36 99 -16 19 -13
25 -12 70 21 47 33 54 35 116 32 37 -2 65 -6 62 -10z m-23 -129 c0 -5 -80 -9
-195 -9 -120 0 -195 4 -195 10 0 9 363 20 383 12 4 -2 7 -7 7 -13z m-269 -87
c50 -86 61 -93 16 -10 -43 77 -43 78 -19 78 12 0 25 -14 37 -40 10 -23 23 -43
27 -47 5 -3 0 14 -12 37 -12 23 -19 44 -16 47 10 10 27 -9 51 -58 14 -27 28
-49 30 -49 3 0 -6 22 -20 50 -31 60 -31 62 -3 58 16 -2 34 -23 59 -66 50 -86
61 -93 16 -10 -20 36 -37 69 -37 72 0 3 9 6 20 6 14 0 28 -17 50 -60 17 -33
32 -60 35 -60 3 0 -7 25 -22 55 -15 30 -24 57 -20 61 16 16 40 -13 87 -106 33
-66 56 -100 64 -97 7 3 13 0 14 -6 1 -7 5 -29 8 -50 5 -28 2 -43 -11 -57 -25
-27 -75 -27 -82 1 -5 20 -6 19 -17 -3 -8 -15 -22 -24 -43 -26 -36 -4 -56 18
-118 131 -20 37 -39 67 -42 67 -3 0 9 -25 26 -55 l31 -55 -40 -20 c-22 -11
-57 -24 -77 -29 -29 -7 -32 -9 -13 -10 14 0 49 11 79 24 42 20 56 23 63 13 11
-18 -15 -35 -90 -58 -80 -25 -95 -25 -116 -1 -13 15 -14 20 -4 24 7 3 0 6 -16
6 -27 1 -28 3 -22 35 4 23 2 37 -6 42 -9 6 -5 10 12 15 24 7 24 7 3 8 -26 1
-26 1 -13 37 9 24 8 26 -10 21 -33 -9 -33 11 -1 49 19 21 31 46 31 63 0 36 8
43 44 39 26 -3 36 -13 67 -66z m403 -118 c3 -9 4 -20 0 -25 -7 -13 -34 -11
-34 2 0 5 4 8 9 5 5 -4 7 3 4 14 -6 24 12 27 21 4z m-249 -179 c-11 -8 -48
-24 -82 -35 l-62 -21 -31 23 -31 22 56 13 c30 7 72 21 93 32 36 19 37 19 57 0
19 -19 19 -19 0 -34z m-157 -60 c96 -84 116 -98 106 -71 -3 7 5 30 16 50 12
20 20 36 17 36 -3 0 -16 -18 -28 -39 l-22 -40 -33 27 -34 27 53 18 c28 10 57
19 62 21 6 1 15 5 21 9 7 4 18 -3 27 -17 15 -22 13 -25 -72 -110 l-87 -87 -72
66 c-74 68 -81 85 -66 142 6 20 14 16 100 -57 52 -44 97 -80 101 -80 4 0 3 4
-3 8 -5 5 -51 44 -101 86 -82 69 -106 96 -88 96 3 0 49 -38 103 -85z"/>
<path d="M796 1802 l31 -33 36 21 c21 12 37 24 37 27 0 3 -16 -5 -36 -17 l-37
-21 -31 28 -31 28 31 -33z"/>
<path d="M510 1626 c0 -2 13 -6 29 -8 17 -2 28 -1 25 4 -5 8 -54 12 -54 4z"/>
<path d="M526 1595 c4 -8 7 -15 9 -15 2 0 5 7 9 15 3 9 0 15 -9 15 -9 0 -12
-6 -9 -15z"/>
<path d="M712 1515 c18 -35 34 -63 36 -61 4 5 -56 126 -63 126 -3 0 10 -29 27
-65z"/>
<path d="M755 1511 c18 -36 23 -59 19 -80 -7 -35 9 -61 38 -61 20 0 34 23 24
39 -8 12 -36 3 -36 -11 0 -6 6 -5 15 2 12 10 15 9 15 -4 0 -12 -7 -16 -22 -14
-28 4 -37 48 -13 68 19 16 60 0 69 -27 3 -10 15 -24 27 -31 21 -13 21 -13 5 9
-21 30 -20 35 4 59 14 14 16 20 6 20 -7 0 -19 14 -26 30 -7 17 -17 33 -22 36
-5 3 0 -12 11 -34 12 -23 18 -48 15 -56 -7 -18 -21 -21 -26 -5 -2 6 -19 12
-37 14 -30 2 -38 9 -58 49 -13 25 -26 46 -28 46 -3 0 6 -22 20 -49z"/>
<path d="M504 1530 c0 -13 4 -16 10 -10 7 7 7 13 0 20 -6 6 -10 3 -10 -10z"/>
<path d="M825 1500 c9 -16 18 -30 21 -30 2 0 -2 14 -11 30 -9 17 -18 30 -21
30 -2 0 2 -13 11 -30z"/>
<path d="M905 1420 c-4 -6 1 -7 11 -3 14 5 16 3 10 -13 -5 -14 -4 -16 5 -7 12
12 5 33 -11 33 -5 0 -12 -4 -15 -10z"/>
<path d="M690 1240 c-6 -11 -8 -20 -6 -20 3 0 10 9 16 20 6 11 8 20 6 20 -3 0
-10 -9 -16 -20z"/>
<path d="M500 1230 c0 -5 5 -10 10 -10 6 0 10 5 10 10 0 6 -4 10 -10 10 -5 0
-10 -4 -10 -10z"/>
<path d="M550 1230 c0 -5 5 -10 10 -10 6 0 10 5 10 10 0 6 -4 10 -10 10 -5 0
-10 -4 -10 -10z"/>
<path d="M560 1170 c0 -5 5 -10 10 -10 6 0 10 5 10 10 0 6 -4 10 -10 10 -5 0
-10 -4 -10 -10z"/>
<path d="M610 1170 c0 -5 7 -10 16 -10 8 0 12 5 9 10 -3 6 -10 10 -16 10 -5 0
-9 -4 -9 -10z"/>
<path d="M636 1121 c-4 -7 -5 -15 -2 -18 9 -9 19 4 14 18 -4 11 -6 11 -12 0z"/>
<path d="M76 1558 c-20 -29 -20 -62 0 -79 14 -12 14 -14 -5 -21 -12 -4 -20
-15 -20 -25 1 -17 2 -17 6 0 4 15 14 17 76 15 58 -2 71 -6 69 -18 -3 -11 -1
-12 8 -3 17 16 3 33 -27 33 -25 0 -25 1 -10 18 10 10 17 30 17 44 0 24 -27 58
-46 58 -4 0 2 -7 14 -16 27 -19 29 -64 4 -87 -23 -21 -41 -21 -70 -1 -28 19
-29 57 -2 84 11 11 16 20 11 20 -6 0 -17 -10 -25 -22z"/>
<path d="M152 1413 c-1 -6 -14 -13 -29 -15 -22 -2 -28 -8 -28 -28 0 -20 6 -26
28 -28 16 -2 27 -9 27 -19 0 -11 -5 -13 -17 -8 -30 13 -56 11 -60 -5 -4 -13
-3 -13 5 -1 9 13 16 12 51 -4 50 -22 75 -49 67 -70 -5 -15 -9 -14 -33 3 -16
10 -42 26 -60 34 -31 15 -33 15 -39 -5 -4 -12 -20 -37 -35 -55 l-29 -33 2
-327 3 -327 40 -21 c22 -12 51 -25 65 -28 14 -4 -3 7 -38 23 l-62 30 0 324 c0
313 1 325 21 351 11 14 25 26 31 26 7 0 7 -4 1 -12 -6 -7 -11 -29 -11 -50 -1
-39 20 -61 72 -74 25 -6 26 -8 26 -90 0 -83 0 -84 -25 -84 -23 0 -24 2 -28 83
l-3 82 -1 -86 c0 -47 -6 -95 -12 -108 -16 -29 9 -71 43 -71 39 0 74 57 46 75
-12 8 -13 202 -1 209 8 5 24 60 27 96 1 8 5 23 9 33 5 12 1 25 -15 42 l-22 23
29 17 c25 15 16 14 -21 -1 -12 -5 -16 7 -19 53 -2 32 -4 53 -5 46z m-2 -43 c0
-15 -7 -20 -25 -20 -31 0 -33 20 -2 21 21 1 21 1 -3 9 l-25 8 28 1 c21 1 27
-4 27 -19z m3 -136 c41 -27 42 -30 25 -71 -6 -15 -12 -35 -12 -43 -1 -22 -30
-24 -71 -5 -21 11 -35 24 -35 36 0 17 2 17 36 3 20 -8 41 -13 46 -12 6 2 -8
10 -31 17 -43 12 -61 35 -44 52 7 7 24 4 53 -11 23 -12 44 -20 46 -17 2 2 -19
14 -46 27 -34 16 -50 29 -50 42 0 24 27 18 83 -18z m11 -346 c15 -24 -3 -52
-37 -56 -33 -4 -53 28 -37 59 14 25 58 23 74 -3z"/>
<path d="M1118 1403 c7 -3 16 -2 19 1 4 3 -2 6 -13 5 -11 0 -14 -3 -6 -6z"/>
<path d="M1165 1390 c27 -12 43 -12 25 0 -8 5 -22 9 -30 9 -10 0 -8 -3 5 -9z"/>
<path d="M287 1358 c-32 -11 -57 -22 -54 -24 2 -2 35 7 73 20 38 14 62 24 54
24 -8 0 -41 -9 -73 -20z"/>
<path d="M1248 1357 l42 -21 0 -285 c0 -275 -1 -286 -21 -316 l-22 -31 -23 23
c-22 22 -24 32 -24 118 0 52 5 105 11 118 12 27 -2 67 -23 67 -6 0 -3 -9 6
-19 21 -23 14 -57 -13 -66 -58 -18 -83 57 -28 83 12 6 16 11 10 11 -25 2 -55
-39 -47 -62 4 -12 9 -60 11 -106 4 -65 0 -99 -16 -150 -26 -88 -35 -132 -21
-109 10 16 15 16 63 -10 28 -15 55 -31 59 -36 8 -12 22 39 14 53 -4 5 -2 12 4
16 5 3 10 16 10 28 0 12 14 40 30 61 l30 40 0 288 0 288 -40 20 c-21 11 -43
20 -47 19 -4 0 11 -10 35 -22z m-58 -514 c0 -89 0 -91 -22 -86 -13 2 -4 -5 20
-16 23 -11 42 -27 42 -36 0 -19 -2 -19 -61 2 -49 18 -58 26 -39 38 6 3 10 48
10 98 0 91 0 92 25 92 25 0 25 -1 25 -92z m-2 -153 c31 -14 43 -25 40 -37 -4
-21 -5 -21 -68 6 -28 12 -50 28 -50 36 0 20 26 18 78 -5z m-5 -51 c24 -13 37
-26 37 -39 0 -17 -3 -18 -27 -9 -48 18 -93 50 -93 65 0 18 23 13 83 -17z"/>
<path d="M450 1202 c-8 -9 -13 -28 -11 -44 2 -22 -3 -30 -23 -39 -19 -9 -26
-20 -26 -40 0 -20 -7 -32 -26 -42 -17 -9 -23 -17 -15 -21 6 -4 11 -18 11 -31
0 -13 4 -26 9 -29 5 -4 12 -24 16 -46 4 -22 10 -40 14 -40 5 0 2 22 -5 49 -7
27 -11 58 -9 68 2 10 7 36 12 58 l7 40 7 -50 c6 -47 6 -46 4 13 -2 50 0 62 11
58 9 -3 15 6 20 30 3 19 4 38 0 41 -3 3 2 12 12 19 9 7 15 15 12 17 -3 3 -12
-2 -20 -11z m-73 -209 c-3 -10 -5 -4 -5 12 0 17 2 24 5 18 2 -7 2 -21 0 -30z"/>
<path d="M463 1130 c0 -25 2 -35 4 -22 2 12 2 32 0 45 -2 12 -4 2 -4 -23z"/>
<path d="M785 1113 c-42 -48 -49 -62 -50 -102 -1 -31 5 -55 18 -74 l20 -29
-138 -138 c-76 -77 -142 -137 -146 -135 -4 3 -9 -2 -12 -10 -4 -9 -1 -12 9 -8
21 8 46 -17 40 -40 -3 -11 2 -26 10 -34 13 -13 16 -12 32 6 9 11 38 26 64 33
42 11 49 10 68 -7 26 -24 25 -35 -2 -35 -20 -1 -90 -23 -141 -45 -14 -6 -16
-4 -11 11 4 14 3 15 -3 6 -8 -10 -12 -10 -23 3 -7 8 -17 15 -23 15 -6 0 -3 -6
6 -12 16 -13 197 -323 197 -339 0 -5 5 -9 11 -9 6 0 2 15 -9 33 -11 17 -44 76
-75 129 -62 109 -63 106 20 138 26 11 41 19 32 20 -8 0 -38 -11 -65 -25 -27
-14 -50 -25 -51 -25 -2 0 -3 9 -3 21 0 23 38 42 121 61 42 10 52 9 59 -3 7
-10 3 -16 -18 -20 -24 -6 -23 -7 11 -8 35 -1 36 0 25 20 -11 17 -10 22 2 32 8
7 15 21 15 32 0 13 8 21 21 23 17 2 20 8 16 33 -4 24 0 31 17 36 15 4 21 13
21 34 0 19 5 29 15 29 11 0 14 7 9 24 -6 25 17 56 42 56 11 0 13 6 9 20 -5 15
0 23 19 31 23 11 24 13 10 34 -14 21 -13 24 8 39 22 16 22 16 1 16 -32 0 -50
27 -34 51 10 18 9 23 -14 41 -17 13 -25 28 -23 42 2 13 -4 25 -17 31 -11 6
-25 20 -31 32 -10 22 -12 20 -59 -34z m72 0 l25 -26 -36 -19 c-19 -10 -40 -27
-46 -37 -5 -11 -9 -62 -8 -113 l2 -93 3 85 c4 114 8 127 44 146 35 18 54 9 24
-11 -44 -31 -45 -34 -43 -128 l2 -92 3 90 c3 77 6 93 24 108 12 9 25 17 29 17
12 0 19 -54 8 -67 -5 -7 -8 -22 -5 -35 4 -21 4 -21 6 4 1 28 18 32 45 9 11 -9
13 -18 7 -25 -6 -7 -6 -17 -1 -26 13 -21 12 -27 -6 -34 -11 -4 -14 -1 -10 12
3 9 1 33 -3 52 -8 30 -9 25 -10 -37 -1 -77 -17 -108 -24 -46 l-4 38 -1 -42
c-1 -23 -6 -45 -12 -48 -5 -3 -10 -17 -10 -30 0 -40 -19 -38 -23 2 -2 21 -3
10 0 -24 2 -39 0 -63 -7 -63 -5 0 -10 6 -10 13 0 8 -2 9 -8 1 -4 -8 -30 9 -72
47 l-64 59 53 54 53 54 -18 27 c-9 15 -18 48 -19 73 -1 42 3 52 39 90 22 23
42 42 44 42 3 0 16 -12 29 -27z m63 -99 c0 -8 -4 -14 -10 -14 -5 0 -10 9 -10
21 0 11 5 17 10 14 6 -3 10 -13 10 -21z m-175 -289 c39 -35 66 -64 60 -64 -5
0 -41 28 -80 64 -38 35 -65 64 -60 65 6 0 42 -29 80 -65z m-16 -16 c48 -42 71
-69 70 -83 0 -12 -3 -15 -6 -8 -2 6 -9 12 -15 12 -6 0 -8 -6 -5 -13 3 -7 -1
-20 -8 -30 -11 -16 -13 -15 -30 3 -10 11 -13 20 -7 20 7 0 12 7 12 15 0 20
-18 19 -22 -1 -2 -13 -18 -4 -66 36 l-63 53 27 28 c15 16 31 29 35 29 4 0 39
-28 78 -61z m-53 -80 c46 -39 81 -76 78 -81 -4 -5 -23 6 -43 26 -34 33 -39 35
-71 26 -49 -14 -52 -13 -39 13 17 32 17 32 37 16 10 -8 -2 5 -27 28 -75 70
-26 48 65 -28z m-84 35 c17 -16 17 -19 -10 -65 -25 -45 -42 -61 -42 -40 0 5
12 29 26 55 14 25 23 46 20 46 -3 0 -14 -16 -24 -36 l-18 -35 -19 21 c-18 20
-18 21 5 45 28 29 37 31 62 9z"/>
<path d="M860 991 c-5 -11 -9 -59 -8 -108 l2 -88 5 95 c3 52 10 101 14 108 5
6 6 12 3 12 -3 0 -10 -9 -16 -19z"/>
<path d="M803 770 c0 -30 2 -43 4 -27 2 15 2 39 0 55 -2 15 -4 2 -4 -28z"/>
<path d="M640 740 c0 -5 5 -10 10 -10 6 0 10 5 10 10 0 6 -4 10 -10 10 -5 0
-10 -4 -10 -10z"/>
<path d="M656 691 c-4 -5 -2 -12 3 -15 5 -4 12 -2 15 3 4 5 2 12 -3 15 -5 4
-12 2 -15 -3z"/>
<path d="M710 680 c0 -5 5 -10 10 -10 6 0 10 5 10 10 0 6 -4 10 -10 10 -5 0
-10 -4 -10 -10z"/>
<path d="M443 1040 c0 -30 2 -43 4 -27 2 15 2 39 0 55 -2 15 -4 2 -4 -28z"/>
<path d="M470 967 c0 -106 -13 -147 -46 -147 -8 0 -14 -6 -14 -12 -1 -9 -5 -8
-13 3 -7 9 -19 14 -27 11 -13 -4 -13 -3 -2 11 10 11 10 23 3 49 l-11 33 5 -35
c5 -32 4 -33 -11 -18 -14 14 -14 21 -3 52 7 19 11 38 8 40 -9 9 -49 -6 -43
-16 3 -5 12 -7 19 -4 17 6 8 -29 -11 -45 -12 -10 -11 -14 8 -24 15 -7 22 -19
21 -33 -2 -15 3 -22 15 -22 25 0 42 -19 42 -47 0 -13 7 -26 16 -30 11 -4 14
-13 10 -29 -5 -17 -3 -22 8 -18 7 3 21 -2 30 -11 9 -9 16 -11 16 -5 0 6 -7 13
-16 17 -12 4 -5 16 32 54 43 43 48 53 49 97 1 36 -4 56 -17 73 l-19 24 12 -25
c8 -14 13 -47 14 -73 0 -44 -4 -51 -47 -94 -34 -34 -48 -42 -48 -30 0 10 -6
20 -14 23 -14 5 -11 44 4 44 14 0 60 53 59 69 0 13 -1 14 -6 1 -9 -23 -45 -60
-60 -60 -19 0 -17 5 17 38 30 30 30 32 30 136 0 58 -2 106 -5 106 -3 0 -5 -46
-5 -103z"/>
<path d="M670 1024 c-11 -12 -10 -18 3 -32 16 -15 18 -15 34 0 13 14 14 20 3
32 -7 9 -16 16 -20 16 -4 0 -13 -7 -20 -16z m36 -5 c10 -17 -13 -36 -27 -22
-12 12 -4 33 11 33 5 0 12 -5 16 -11z"/>
<path d="M626 951 c-17 -18 -17 -21 0 -45 16 -25 18 -26 35 -10 24 21 24 36 1
58 -18 15 -20 15 -36 -3z m44 -32 c0 -17 -23 -20 -38 -6 -13 14 -13 18 -2 32
13 16 15 15 27 -1 7 -10 13 -21 13 -25z"/>
<path d="M412 910 c0 -14 2 -19 5 -12 2 6 2 18 0 25 -3 6 -5 1 -5 -13z"/>
<path d="M441 899 c-1 -27 -23 -54 -34 -42 -4 3 -7 -2 -7 -13 0 -16 3 -16 26
7 18 18 24 34 21 50 -4 23 -4 23 -6 -2z"/>
<path d="M587 863 c-11 -10 -8 -41 4 -49 6 -3 18 1 27 9 13 13 13 19 2 31 -14
17 -23 20 -33 9z m28 -23 c0 -7 -6 -15 -12 -17 -8 -3 -13 4 -13 17 0 13 5 20
13 18 6 -3 12 -11 12 -18z"/>
<path d="M430 607 c0 -15 34 -77 43 -77 5 0 -2 17 -14 38 -27 44 -29 47 -29
39z"/>
<path d="M1108 571 c20 -18 21 -20 5 -24 -17 -4 -17 -5 0 -6 14 -1 17 -11 18
-58 0 -32 3 -52 6 -45 2 6 15 12 28 12 13 0 26 -6 28 -12 3 -7 6 10 6 39 l1
51 -57 31 c-33 17 -48 22 -35 12z m82 -53 c0 -4 -11 -8 -25 -8 -18 0 -25 5
-25 20 0 17 3 18 25 8 14 -6 25 -15 25 -20z m0 -28 c0 -5 -11 -10 -25 -10 -14
0 -25 5 -25 10 0 6 11 10 25 10 14 0 25 -4 25 -10z m-7 -27 c-7 -2 -21 -2 -30
0 -10 3 -4 5 12 5 17 0 24 -2 18 -5z"/>
<path d="M1007 523 c-32 -9 -56 -17 -54 -20 5 -4 129 26 136 33 8 7 -23 2 -82
-13z"/>
<path d="M426 521 c-3 -5 -14 -8 -24 -6 -9 1 -11 0 -4 -2 6 -3 12 -16 12 -29
0 -20 -4 -24 -19 -19 -11 3 -24 -1 -32 -12 -13 -17 -13 -17 5 -3 17 13 20 12
40 -13 11 -14 50 -81 86 -146 36 -66 68 -121 72 -121 4 0 -20 48 -54 107 -36
64 -56 109 -49 111 6 2 0 13 -14 24 -31 24 -35 83 -7 104 9 7 12 14 5 14 -6 0
-14 -4 -17 -9z"/>
<path d="M320 498 c-17 -18 -21 -32 -17 -60 4 -27 2 -35 -8 -32 -7 3 -16 1
-19 -4 -3 -5 2 -9 11 -8 9 0 18 -5 21 -13 3 -9 0 -11 -8 -6 -9 5 -11 4 -6 -4
4 -6 11 -9 16 -6 10 6 22 -23 14 -36 -6 -11 -54 -12 -70 -1 -6 4 -16 16 -22
27 -6 11 -12 14 -12 8 -1 -38 87 -72 106 -41 4 6 20 -15 40 -53 18 -35 33 -61
34 -56 0 4 -18 44 -41 88 -22 45 -38 83 -35 86 3 3 13 -9 23 -26 26 -47 47
-72 28 -34 -19 40 -19 40 4 46 15 3 26 -13 62 -85 24 -50 48 -92 52 -95 4 -3
-14 39 -41 94 -27 54 -47 105 -45 113 3 10 0 9 -7 -2 -15 -25 -56 -22 -74 4
-24 34 -20 73 10 97 15 12 22 21 16 21 -6 0 -21 -10 -32 -22z"/>
<path d="M918 493 c7 -3 16 -2 19 1 4 3 -2 6 -13 5 -11 0 -14 -3 -6 -6z"/>
<path d="M463 483 c-18 -7 -16 -43 1 -43 8 0 18 4 21 10 3 6 -1 7 -9 4 -9 -3
-16 -1 -16 4 0 18 20 24 35 12 18 -15 20 -56 2 -67 -9 -6 -6 -14 12 -33 21
-22 22 -23 12 -3 -6 12 -8 35 -5 52 5 23 2 37 -11 51 -19 21 -22 22 -42 13z"/>
<path d="M878 483 c7 -3 16 -2 19 1 4 3 -2 6 -13 5 -11 0 -14 -3 -6 -6z"/>
<path d="M155 460 c11 -5 29 -8 40 -8 16 0 15 2 -5 8 -34 11 -60 11 -35 0z"/>
<path d="M235 452 c-5 -4 -12 -16 -13 -27 -2 -11 -2 -18 0 -15 2 3 12 15 22
28 18 21 12 30 -9 14z"/>
<path d="M370 430 c-9 -6 -10 -10 -3 -10 6 0 15 5 18 10 8 12 4 12 -15 0z"/>
<path d="M800 433 c0 -7 5 -15 10 -18 21 -13 9 -24 -22 -20 l-33 5 31 -10 c26
-8 30 -14 26 -35 -3 -20 0 -25 17 -25 28 0 26 -18 -5 -51 -29 -30 -49 -105
-30 -112 7 -3 10 8 8 33 -3 30 2 44 28 74 33 37 35 66 5 66 -13 0 -15 6 -10
30 4 20 1 37 -9 52 -9 12 -16 17 -16 11z"/>
<path d="M1077 423 c-11 -10 14 -33 36 -33 19 0 19 -1 4 -18 -10 -10 -17 -30
-17 -44 0 -24 27 -58 46 -58 4 0 -2 7 -14 16 -32 22 -30 69 4 91 24 15 29 15
53 2 15 -9 29 -27 32 -44 6 -26 7 -27 8 -6 0 14 -6 33 -16 43 -14 16 -14 18
-1 18 21 0 42 26 28 35 -6 4 -9 1 -8 -7 2 -10 -15 -13 -72 -13 -55 0 -74 3
-72 13 2 13 -1 15 -11 5z"/>
<path d="M597 285 c32 -63 60 -115 64 -115 3 0 -21 52 -53 115 -32 63 -61 115
-63 115 -3 0 21 -52 52 -115z"/>
<path d="M270 357 c0 -2 6 -10 14 -16 11 -9 16 -9 22 1 4 7 4 10 -1 6 -4 -4
-14 -3 -22 3 -7 6 -13 9 -13 6z"/>
<path d="M571 258 c24 -48 47 -88 51 -88 8 0 -69 148 -85 165 -5 6 10 -29 34
-77z"/>
<path d="M774 329 c-3 -6 -1 -16 6 -22 10 -9 11 -9 5 2 -4 8 -2 17 6 22 9 6
10 9 2 9 -6 0 -15 -5 -19 -11z"/>
<path d="M1196 285 c-11 -8 -15 -15 -9 -15 6 0 16 7 23 15 16 19 11 19 -14 0z"/>
<path d="M418 230 c15 -32 30 -59 35 -60 4 0 -6 27 -23 60 -39 77 -47 78 -12
0z"/>
<path d="M750 261 c0 -5 5 -13 10 -16 6 -3 10 -2 10 4 0 5 -4 13 -10 16 -5 3
-10 2 -10 -4z"/>
<path d="M730 230 c8 -5 24 -10 34 -10 26 0 18 6 -19 14 -22 5 -26 4 -15 -4z"/>
<path d="M404 174 c1 -16 4 -34 8 -39 4 -6 -11 -39 -33 -73 l-39 -62 276 0
276 0 -14 22 c-9 13 -22 23 -29 23 -8 0 -29 8 -48 18 l-33 19 -34 -32 -33 -33
-39 32 c-22 17 -43 31 -47 31 -4 0 -24 -14 -46 -31 l-38 -30 -30 33 -30 33
-42 -23 c-23 -12 -44 -20 -46 -18 -3 2 8 23 23 45 l27 41 177 0 178 0 32 -37
32 -38 -24 35 c-12 19 -22 39 -21 45 2 6 -67 9 -198 7 -189 -3 -200 -2 -195
15 3 10 2 24 -3 32 -6 9 -8 5 -7 -15z m89 -129 l18 -25 -65 0 c-38 0 -68 5
-72 12 -4 6 -3 8 4 4 6 -3 26 3 44 14 42 25 49 25 71 -5z m162 0 l30 -25 -70
0 -70 0 30 25 c17 13 35 24 40 24 6 0 24 -11 40 -24z m153 5 c18 -11 38 -17
44 -14 7 4 8 2 4 -4 -4 -7 -34 -12 -73 -12 l-66 0 23 25 c28 30 27 30 68 5z"/>
</g>

</symbol>

<symbol id="queen" width="100.000000pt" height="186.000000pt" viewBox="-20 20 130.000000 186.000000"  preserveAspectRatio="xMidYMid meet">

<g transform="translate(0.000000,186.000000) scale(0.100000,-0.100000)">
<path d="M487 1853 c-3 -5 6 -9 20 -10 19 -1 22 1 12 8 -17 11 -26 11 -32 2z"/>
<path d="M838 1816 c23 -27 47 -67 54 -89 7 -22 14 -35 16 -28 7 20 -36 96
-75 131 -36 34 -36 34 5 -14z"/>
<path d="M1038 1822 c-7 -46 -30 -90 -54 -99 -9 -3 -26 -1 -40 5 -44 21 -25
74 41 110 18 11 18 11 -8 12 -16 0 -26 -4 -23 -9 3 -4 -6 -19 -19 -31 -14 -13
-25 -34 -25 -46 0 -27 34 -54 70 -55 19 -1 13 -5 -22 -17 -38 -12 -48 -20 -47
-36 1 -17 2 -17 6 -4 3 11 26 24 61 35 60 18 98 41 50 29 -33 -8 -35 -2 -8 31
20 26 35 82 28 105 -3 7 -7 -6 -10 -30z"/>
<path d="M590 1808 c85 -48 172 -143 215 -235 116 -245 103 -227 283 -408 129
-130 163 -169 149 -173 -18 -4 -17 -5 2 -18 26 -19 27 -48 2 -71 -24 -22 -176
-257 -222 -340 -26 -49 -41 -65 -67 -74 -18 -6 -36 -8 -39 -5 -7 7 81 162 174
305 70 107 75 113 101 106 l27 -6 -22 16 c-29 21 -29 49 -1 69 12 9 17 16 11
16 -7 0 -20 -8 -30 -19 -10 -10 -25 -21 -33 -24 -12 -4 -11 -6 3 -6 9 -1 17
-3 17 -7 0 -3 -33 -55 -74 -117 -40 -62 -104 -165 -141 -230 -38 -64 -70 -115
-73 -112 -9 9 92 202 168 324 40 63 74 120 76 126 3 7 -25 52 -62 101 -118
156 -201 290 -234 379 -18 47 -35 84 -37 82 -2 -2 11 -41 28 -86 32 -84 111
-212 233 -376 36 -49 64 -95 62 -101 -2 -6 -36 -62 -76 -125 -39 -63 -97 -166
-128 -229 -31 -63 -58 -107 -60 -98 -5 26 68 169 162 320 l86 136 -110 154
c-61 84 -129 189 -151 233 -22 44 -37 69 -33 55 16 -59 119 -221 242 -383 l44
-58 -60 -92 c-81 -126 -135 -221 -166 -291 -25 -56 -41 -66 -41 -26 0 10 -44
54 -105 105 -58 49 -106 91 -108 95 -3 9 94 100 107 100 17 0 51 67 51 102 0
20 -10 50 -23 69 l-23 34 70 78 c49 55 72 74 78 65 6 -10 8 -9 8 4 0 10 -9 18
-22 20 -19 2 -23 9 -22 35 1 18 -2 30 -7 27 -14 -8 -10 -50 6 -64 12 -10 4
-23 -52 -86 -57 -62 -71 -73 -93 -68 -21 4 -20 2 7 -10 17 -8 39 -28 47 -45
26 -50 20 -96 -20 -149 -1 -2 -20 -10 -41 -17 -21 -8 -32 -14 -25 -15 14 0
-146 -180 -160 -180 -5 0 -8 11 -8 24 0 14 -4 28 -10 31 -17 10 -12 19 41 78
48 54 53 57 88 52 33 -4 34 -4 7 5 -88 28 -113 130 -48 196 22 22 23 25 6 16
-55 -29 -68 -131 -23 -178 l22 -24 -59 -62 c-32 -35 -65 -62 -71 -62 -23 3
-14 -15 10 -18 17 -2 22 -10 22 -33 0 -22 6 -32 20 -35 12 -4 21 -16 23 -30 2
-14 10 -32 18 -40 7 -9 11 -25 7 -38 -3 -14 -1 -22 7 -22 8 0 11 -11 8 -30 -3
-18 1 -35 9 -41 9 -8 13 -8 13 0 0 6 -3 11 -7 11 -5 0 -8 17 -8 38 1 35 66
172 83 172 4 0 38 -27 75 -60 64 -56 85 -71 73 -52 -3 5 -50 46 -105 92 -55
46 -98 88 -95 92 7 10 10 8 132 -95 75 -64 90 -82 81 -93 -6 -8 -26 -15 -43
-16 -21 -1 -15 -3 19 -7 49 -6 50 -6 50 -41 0 -19 5 -39 10 -43 6 -5 0 -6 -12
-2 -29 8 -39 -11 -12 -25 15 -8 19 -9 15 -1 -4 6 -2 11 4 11 6 0 10 -11 8 -25
-2 -14 4 -29 15 -37 16 -12 16 -15 -8 -50 -14 -20 -25 -43 -25 -50 0 -7 6 -2
13 12 7 14 21 37 31 52 16 25 16 27 -1 40 -13 9 -19 29 -20 65 l-3 52 43 11
c23 6 84 25 136 42 52 17 110 32 128 33 32 2 33 0 33 -34 0 -24 -3 -31 -9 -23
-7 11 -9 11 -14 -2 -4 -9 -3 -15 1 -15 21 3 22 -3 2 -19 -18 -15 -20 -21 -11
-45 16 -42 13 -57 -11 -66 -24 -9 -19 -13 30 -24 15 -4 20 -1 15 6 -4 8 -1 7
9 -1 19 -15 49 -6 41 13 -2 8 0 30 7 50 10 29 9 40 -3 58 -8 13 -17 32 -19 42
-5 18 -6 18 -16 -5 -10 -23 -11 -21 -11 22 -1 46 0 47 23 38 31 -11 43 2 50
55 3 22 8 54 10 70 4 24 1 31 -12 31 -9 1 -26 4 -37 9 -11 4 -5 -2 13 -14 60
-39 35 -62 -33 -29 -46 23 -60 56 -20 50 18 -2 18 -1 3 8 -24 15 -12 42 16 35
18 -5 19 -4 4 5 -25 15 -16 56 26 120 20 30 41 60 46 67 16 20 13 27 -49 95
-55 60 -58 65 -40 76 22 14 15 42 -12 42 -13 0 -19 -7 -19 -22 0 -18 -20 -3
-101 77 -85 84 -159 172 -159 188 0 2 10 3 23 3 16 -1 22 5 22 19 0 28 -33 32
-43 5 -7 -18 -14 -7 -46 67 -51 118 -81 168 -134 226 -46 48 -155 127 -176
127 -6 0 14 -14 44 -32z m348 -390 c-6 -18 -28 -21 -28 -4 0 9 7 16 16 16 9 0
14 -5 12 -12z m257 -287 c3 -6 -3 -15 -14 -20 -16 -9 -18 -8 -14 9 6 21 18 26
28 11z m75 -161 c6 -11 8 -20 6 -20 -3 0 -10 9 -16 20 -6 11 -8 20 -6 20 3 0
10 -9 16 -20z m-115 -275 c-15 -42 -24 -80 -21 -83 3 -3 6 0 6 7 0 8 13 5 38
-9 35 -21 36 -21 12 -1 -14 11 -28 21 -32 21 -5 0 -8 9 -8 21 0 20 2 19 53 -8
52 -28 71 -61 32 -55 -20 3 -20 3 -1 -11 24 -18 15 -50 -11 -40 -10 3 -36 20
-58 36 -22 17 -34 23 -26 13 13 -15 13 -19 0 -27 -10 -8 -8 -8 10 -4 17 5 21
4 16 -5 -4 -6 -16 -9 -27 -7 -10 3 -34 0 -51 -8 -18 -7 -42 -16 -55 -20 l-23
-7 17 34 c30 58 146 239 151 235 2 -2 -8 -39 -22 -82z m-584 -89 c-35 -60 -51
-70 -51 -32 0 14 -5 28 -11 32 -7 4 4 21 27 45 33 34 40 37 52 25 13 -12 10
-22 -17 -70z m22 -24 c-44 -82 -51 -90 -48 -58 4 33 64 138 75 131 5 -3 -7
-36 -27 -73z m640 -163 c5 -9 4 -25 -4 -44 -7 -16 -11 -34 -10 -38 1 -5 -3 -6
-8 -2 -7 4 -7 15 -1 31 6 14 10 33 9 42 0 9 -5 1 -11 -18 -10 -36 -34 -70 -50
-70 -4 0 -3 8 3 19 9 13 9 26 1 51 -7 18 -9 36 -6 42 8 13 66 4 77 -13z"/>
<path d="M663 1833 c-15 -5 -18 -43 -4 -43 5 0 8 6 7 13 0 6 4 12 9 12 6 0 9
-6 8 -14 -1 -10 2 -10 10 -2 14 14 -11 41 -30 34z"/>
<path d="M469 1823 c-6 -58 -4 -70 18 -90 35 -33 42 -28 9 6 -22 23 -24 29
-12 34 8 3 18 1 22 -5 5 -7 2 -8 -7 -3 -8 5 -5 -1 5 -14 11 -12 24 -20 30 -18
6 2 23 -8 39 -22 l29 -26 -33 -7 c-34 -7 -34 -7 4 -4 32 2 42 -2 59 -27 11
-16 26 -48 34 -70 7 -23 13 -34 13 -25 1 9 -4 29 -9 44 -16 41 -6 39 24 -6 16
-24 25 -48 21 -59 -8 -28 4 -54 20 -41 7 6 15 7 17 3 3 -4 3 -1 1 7 -17 67
-141 216 -225 270 -57 37 -70 62 -19 35 74 -38 184 -154 242 -256 17 -30 28
-45 24 -34 -25 79 -150 227 -239 284 -51 32 -65 37 -67 24z m66 -73 c3 -5 2
-10 -4 -10 -5 0 -13 5 -16 10 -3 6 -2 10 4 10 5 0 13 -4 16 -10z m116 -102
c15 -28 5 -21 -21 15 -15 20 -17 27 -6 18 9 -8 22 -23 27 -33z m89 -139 c0 -5
-4 -9 -10 -9 -5 0 -10 7 -10 16 0 8 5 12 10 9 6 -3 10 -10 10 -16z"/>
<path d="M464 1681 c1 -43 -4 -63 -21 -88 -26 -36 -30 -63 -9 -63 10 0 14 -9
13 -27 -2 -21 2 -28 16 -27 9 1 17 -2 17 -7 0 -5 -8 -9 -18 -9 -13 0 -18 -7
-18 -22 1 -18 -10 -25 -80 -46 -67 -20 -82 -28 -90 -50 -15 -40 -155 -262
-165 -262 -5 0 -9 7 -9 15 0 8 4 15 9 15 5 0 13 12 19 28 9 25 7 27 -20 28
-16 1 -42 11 -58 23 l-30 21 -5 -27 c-14 -66 -14 -65 0 -53 19 16 75 -14 75
-40 0 -11 5 -20 10 -20 6 0 -8 -25 -30 -56 -28 -37 -35 -51 -20 -42 26 16 95
115 189 273 62 104 77 122 108 133 20 6 38 11 39 9 7 -7 -213 -370 -253 -416
-2 -3 -9 1 -15 7 -7 7 -17 12 -23 12 -5 0 -2 -5 8 -11 23 -13 23 -65 0 -78
-10 -6 -12 -11 -6 -11 7 0 18 9 25 20 27 43 49 26 163 -134 100 -140 161 -241
192 -321 9 -23 11 -24 7 -5 -16 71 -113 228 -275 447 l-31 41 77 124 c42 67
102 174 133 236 31 63 58 109 60 103 2 -5 -6 -31 -17 -57 -12 -26 -19 -49 -17
-51 2 -2 12 16 22 41 19 46 38 56 40 20 2 -37 4 -44 12 -42 4 2 39 -24 77 -57
37 -33 81 -71 97 -85 l29 -25 -51 -57 c-29 -32 -47 -58 -41 -58 6 0 11 4 11 9
0 5 10 7 23 5 16 -3 18 -2 5 3 -14 7 -2 25 73 106 74 79 89 100 79 112 -6 8
-10 22 -8 32 2 10 -8 28 -22 40 -14 12 -19 23 -12 23 15 0 16 30 1 30 -7 0 -9
11 -6 27 3 16 -1 32 -9 40 -8 8 -14 10 -14 4 0 -5 3 -12 8 -14 19 -13 4 -87
-32 -151 l-37 -67 -37 30 c-20 17 -55 45 -76 64 l-40 34 50 12 c69 17 125 69
123 116 -1 13 -4 9 -10 -12 -11 -39 -57 -79 -107 -93 -73 -20 -102 -8 -102 41
0 19 6 30 20 34 27 8 25 19 -5 35 -13 7 -22 18 -18 23 3 6 -2 16 -13 24 -16
12 -17 16 -4 36 29 47 40 73 40 100 0 25 2 27 21 17 11 -7 23 -9 27 -6 3 3 0
6 -7 6 -6 0 -22 10 -35 23 l-23 23 1 -55z m-101 -414 c-82 -154 -192 -327
-209 -327 -8 0 -14 2 -14 5 0 3 31 52 69 108 71 107 176 284 193 327 6 14 12
20 15 12 3 -6 -22 -63 -54 -125z m290 -47 c54 -44 67 -60 48 -60 -12 0 -118
86 -178 143 -61 58 -42 67 21 10 29 -26 78 -68 109 -93z m66 51 c-30 -55 -48
-75 -49 -53 -1 19 66 130 74 122 5 -5 -6 -35 -25 -69z m51 21 c0 -15 5 -33 10
-38 7 -7 -1 -21 -25 -44 -28 -28 -37 -31 -49 -21 -14 12 -12 20 17 72 36 65
47 73 47 31z m-692 -127 c41 -18 51 -37 21 -43 -21 -4 -79 35 -79 54 0 8 3 14
8 12 4 -3 26 -13 50 -23z"/>
<path d="M538 1703 c7 -3 16 -2 19 1 4 3 -2 6 -13 5 -11 0 -14 -3 -6 -6z"/>
<path d="M803 1669 c-16 -16 -5 -39 19 -39 14 0 19 6 16 22 -4 25 -19 33 -35
17z m27 -14 c0 -8 -4 -15 -9 -15 -13 0 -22 16 -14 24 11 11 23 6 23 -9z"/>
<path d="M515 1660 c27 -12 43 -12 25 0 -8 5 -22 9 -30 9 -10 0 -8 -3 5 -9z"/>
<path d="M496 1615 c4 -8 10 -15 15 -15 5 0 9 7 9 15 0 8 -7 15 -15 15 -9 0
-12 -6 -9 -15z"/>
<path d="M924 1555 l1 -70 55 -27 c30 -15 69 -30 85 -33 17 -3 6 4 -22 14
-104 39 -112 47 -116 120 l-3 66 0 -70z"/>
<path d="M536 1608 c3 -4 9 -8 15 -8 5 0 9 4 9 8 0 5 -7 9 -15 9 -8 0 -12 -4
-9 -9z"/>
<path d="M76 1558 c5 -8 2 -9 -10 -5 -13 5 -15 3 -7 -11 6 -11 6 -24 0 -33
-16 -25 -10 -68 14 -90 12 -12 16 -19 10 -15 -8 5 -13 1 -13 -9 0 -9 5 -13 10
-10 6 4 10 -6 10 -24 0 -23 -4 -29 -15 -25 -21 9 -42 -12 -42 -40 -1 -17 4
-22 17 -19 9 2 38 -12 66 -33 27 -20 46 -33 42 -29 -4 4 -3 16 3 27 8 15 7 24
-5 37 -21 23 -10 32 62 56 29 9 51 19 49 21 -2 2 -23 -3 -47 -11 -24 -8 -53
-13 -64 -9 -14 3 -17 2 -8 -4 10 -7 10 -11 -3 -22 -14 -11 -19 -7 -16 12 0 4
-6 5 -15 1 -13 -5 -15 2 -12 42 2 28 8 50 16 53 6 2 12 -1 12 -8 0 -6 -5 -8
-11 -4 -7 4 -10 2 -8 -5 8 -22 24 -12 32 20 5 21 4 42 -4 62 -11 27 -10 32 10
48 20 16 21 20 7 25 -9 4 -20 4 -23 0 -4 -3 0 -6 7 -6 9 0 8 -6 -5 -20 -15
-17 -16 -24 -5 -49 6 -16 9 -35 5 -40 -9 -15 -42 -14 -48 2 -4 9 -6 9 -6 -1
-2 -26 -21 0 -21 28 0 34 20 51 21 18 1 -19 3 -17 10 9 5 18 14 35 19 38 13 8
13 35 0 35 -5 0 -7 -8 -4 -17 5 -17 5 -17 -6 0 -12 19 -36 24 -24 5z m12 -43
c-3 -3 -9 2 -12 12 -6 14 -5 15 5 6 7 -7 10 -15 7 -18z m30 -215 c42 -30 50
-44 33 -54 -10 -7 -111 52 -111 64 0 10 12 20 25 20 7 0 31 -14 53 -30z"/>
<path d="M766 1450 c3 -14 11 -32 16 -40 6 -10 7 -7 2 10 -3 14 -11 32 -16 40
-6 10 -7 7 -2 -10z"/>
<path d="M1176 1391 c44 -16 92 -34 105 -40 22 -11 23 -11 5 3 -19 15 -162 67
-181 65 -6 0 26 -13 71 -28z"/>
<path d="M460 1282 c-8 -9 -13 -26 -12 -39 2 -14 -3 -25 -12 -29 -9 -3 -16
-10 -16 -16 0 -5 5 -6 10 -3 13 8 12 5 -1 -34 -7 -19 -20 -33 -34 -37 -16 -4
-21 -11 -18 -24 6 -24 -14 -60 -33 -60 -11 0 -14 -5 -9 -17 19 -46 17 -53 -13
-66 -30 -13 -31 -13 -10 -26 19 -12 20 -11 14 6 -5 12 -4 15 3 8 15 -15 26
-90 12 -81 -6 4 -11 16 -11 28 0 17 -2 18 -15 8 -20 -17 -19 -27 5 -33 14 -3
20 -14 20 -31 0 -15 6 -26 13 -26 8 0 21 -8 29 -17 19 -22 32 -56 18 -48 -6 3
-10 3 -10 -2 0 -4 12 -14 27 -21 20 -9 24 -9 15 0 -21 21 -13 48 23 82 22 21
35 42 34 57 -1 20 -2 19 -10 -8 -9 -32 -53 -72 -66 -59 -3 3 6 17 20 30 15 14
27 30 27 36 0 6 -11 -2 -24 -17 -13 -15 -28 -25 -32 -21 -4 5 0 16 9 26 24 27
21 36 -4 11 -15 -15 -19 -28 -14 -47 6 -26 5 -26 -8 -7 -17 24 -48 151 -38
160 3 4 11 -10 18 -32 11 -36 12 -33 11 47 -1 55 3 85 11 88 6 2 11 15 11 28
0 33 18 30 23 -3 3 -20 4 -16 6 14 0 23 5 44 10 47 4 3 11 29 15 58 4 29 12
58 18 65 16 20 5 24 -12 5z m-91 -274 c-1 -31 -1 -31 -8 -8 -5 14 -6 28 -4 33
9 15 13 6 12 -25z m-12 -180 c-3 -7 -5 -2 -5 12 0 14 2 19 5 13 2 -7 2 -19 0
-25z"/>
<path d="M1034 1275 c-7 -18 3 -35 21 -35 21 0 28 19 15 35 -16 19 -29 19 -36
0z m34 -13 c2 -7 -3 -12 -12 -12 -9 0 -16 7 -16 16 0 17 22 14 28 -4z"/>
<path d="M26 1244 c-3 -9 -4 -19 -1 -22 3 -3 5 0 5 7 0 8 20 2 55 -17 30 -16
56 -27 59 -24 3 3 -18 16 -46 29 -29 13 -55 29 -59 34 -4 6 -9 3 -13 -7z"/>
<path d="M369 1218 c-12 -24 -55 -96 -95 -162 l-74 -118 63 -87 c99 -135 187
-269 213 -325 14 -28 22 -40 18 -26 -12 51 -148 263 -256 401 l-28 37 74 118
c75 123 120 204 111 204 -2 0 -14 -19 -26 -42z"/>
<path d="M473 1200 c0 -30 2 -43 4 -27 2 15 2 39 0 55 -2 15 -4 2 -4 -28z"/>
<path d="M453 1105 c0 -27 2 -38 4 -22 2 15 2 37 0 50 -2 12 -4 0 -4 -28z"/>
<path d="M861 1143 c0 -5 4 -17 8 -27 6 -15 -1 -28 -31 -56 -28 -27 -38 -45
-37 -66 1 -28 1 -28 9 6 5 19 21 45 36 59 36 30 43 11 10 -23 -15 -14 -26 -33
-26 -43 1 -11 6 -6 14 13 8 17 21 34 30 37 21 8 20 -11 -1 -36 -14 -15 -18
-39 -19 -106 l-2 -86 7 87 c3 48 12 93 19 100 18 18 26 2 13 -30 -7 -16 -10
-55 -8 -88 l3 -59 2 65 c3 94 21 114 23 25 1 -61 2 -66 10 -38 7 23 5 52 -6
98 -17 76 -19 93 -6 80 5 -6 16 -44 26 -84 13 -55 15 -76 7 -79 -7 -2 -12 -12
-12 -22 0 -10 -5 -31 -11 -47 -8 -22 -12 -24 -19 -13 -7 11 -10 5 -10 -22 0
-50 -18 -58 -23 -11 -3 35 -4 35 -5 -9 l-2 -47 28 16 c21 12 27 22 24 39 -3
15 3 27 17 35 14 10 19 20 15 36 -4 13 -1 30 5 37 8 9 10 28 5 50 -4 24 -2 36
5 36 9 0 16 -36 12 -62 0 -5 6 -8 14 -8 13 0 13 3 3 20 -10 16 -10 24 -1 39
11 18 9 20 -15 23 -24 3 -27 7 -25 37 1 24 -1 30 -8 20 -7 -11 -9 -11 -9 4 0
15 -11 22 -33 18 -5 -1 -6 3 -3 8 6 9 -20 81 -29 81 -3 0 -5 -3 -4 -7z"/>
<path d="M483 1080 c0 -36 2 -50 4 -32 2 17 2 47 0 65 -2 17 -4 3 -4 -33z"/>
<path d="M403 980 c0 -47 2 -66 4 -42 2 23 2 61 0 85 -2 23 -4 4 -4 -43z"/>
<path d="M434 975 c0 -49 1 -71 3 -48 2 23 2 64 0 90 -2 26 -3 8 -3 -42z"/>
<path d="M463 960 c0 -47 2 -66 4 -42 2 23 2 61 0 85 -2 23 -4 4 -4 -43z"/>
<path d="M493 950 c0 -36 2 -50 4 -32 2 17 2 47 0 65 -2 17 -4 3 -4 -33z"/>
<path d="M580 963 c-55 -70 42 -151 105 -88 30 30 31 54 4 89 -29 36 -80 36
-109 -1z m88 1 c30 -21 30 -69 -2 -89 -59 -39 -122 49 -64 89 12 9 27 16 33
16 6 0 21 -7 33 -16z"/>
<path d="M823 910 c0 -36 2 -50 4 -32 2 17 2 47 0 65 -2 17 -4 3 -4 -33z"/>
<path d="M792 930 c0 -14 2 -19 5 -12 2 6 2 18 0 25 -3 6 -5 1 -5 -13z"/>
<path d="M0 934 c0 -19 43 -69 206 -241 168 -178 160 -167 268 -395 42 -89
124 -184 203 -235 29 -18 56 -33 60 -33 4 0 -14 14 -42 31 -110 68 -173 147
-241 300 -65 147 -94 187 -263 362 -83 87 -161 172 -171 190 -11 18 -20 27
-20 21z"/>
<path d="M42 904 c10 -10 20 -16 22 -13 3 3 -5 11 -17 18 -21 13 -21 12 -5 -5z"/>
<path d="M380 875 c0 -8 2 -15 4 -15 2 0 6 7 10 15 3 8 1 15 -4 15 -6 0 -10
-7 -10 -15z"/>
<path d="M803 815 c0 -38 2 -53 4 -32 2 20 2 52 0 70 -2 17 -4 1 -4 -38z"/>
<path d="M833 785 c0 -27 2 -38 4 -22 2 15 2 37 0 50 -2 12 -4 0 -4 -28z"/>
<path d="M93 744 c-3 -8 -1 -20 5 -26 15 -15 43 8 35 28 -7 19 -32 18 -40 -2z
m29 -9 c0 -5 -5 -11 -11 -13 -6 -2 -11 4 -11 13 0 9 5 15 11 13 6 -2 11 -8 11
-13z"/>
<path d="M1280 735 c-10 -12 -16 -13 -27 -4 -7 7 -15 10 -17 8 -2 -2 6 -11 18
-20 21 -16 22 -15 33 7 13 28 11 30 -7 9z"/>
<path d="M813 690 c0 -30 2 -43 4 -27 2 15 2 39 0 55 -2 15 -4 2 -4 -28z"/>
<path d="M840 697 c0 -21 -4 -46 -9 -55 -4 -9 -11 -31 -14 -49 -6 -31 -5 -31
11 -15 11 10 16 27 14 44 -3 19 1 30 12 34 9 3 16 10 16 16 0 5 -5 6 -11 2 -7
-4 -9 0 -5 12 3 11 1 26 -4 34 -7 11 -10 5 -10 -23z"/>
<path d="M223 619 c-16 -16 -5 -39 19 -39 14 0 19 6 16 22 -4 25 -19 33 -35
17z m27 -14 c0 -8 -4 -15 -9 -15 -13 0 -22 16 -14 24 11 11 23 6 23 -9z"/>
<path d="M14 506 c11 -9 24 -16 30 -16 12 0 7 5 -24 19 -24 11 -24 11 -6 -3z"/>
<path d="M85 475 c17 -8 37 -14 45 -14 8 0 -1 7 -20 14 -46 18 -64 17 -25 0z"/>
<path d="M673 470 c-18 -10 -39 -33 -48 -49 -17 -34 -20 -107 -5 -147 16 -42
4 -40 -25 4 -18 27 -25 48 -20 61 3 11 1 29 -5 38 -8 15 -9 12 -4 -12 5 -29 5
-29 -10 -11 -9 11 -16 24 -16 30 0 5 -3 7 -6 3 -3 -3 9 -33 27 -67 40 -76 141
-187 210 -231 29 -18 47 -35 41 -37 -27 -9 -146 89 -208 171 -26 34 -62 94
-81 132 -19 39 -31 59 -27 45 28 -106 154 -265 263 -334 48 -30 54 -51 14 -42
-21 5 -24 4 -13 -4 8 -5 22 -10 30 -10 16 0 43 47 34 61 -3 5 0 19 7 31 6 13
8 20 4 15 -5 -4 -21 4 -35 18 -15 14 -46 29 -71 34 -24 5 -37 9 -29 10 9 1 5
6 -10 14 -36 17 -70 91 -70 150 0 60 21 98 69 126 20 11 32 21 26 21 -5 0 -24
-9 -42 -20z m-18 -260 l20 -25 -22 19 c-13 11 -23 24 -23 29 0 6 1 8 3 6 1 -2
11 -15 22 -29z m142 -82 c13 -12 23 -25 23 -29 0 -13 -43 0 -59 18 -15 15 -14
15 14 -1 l30 -17 -24 20 c-13 12 -31 21 -42 21 -10 0 -21 5 -25 12 -12 20 58
0 83 -24z"/>
<path d="M344 459 c-10 -17 23 -46 37 -32 7 7 9 19 6 27 -7 18 -33 21 -43 5z
m36 -15 c0 -17 -22 -14 -28 4 -2 7 3 12 12 12 9 0 16 -7 16 -16z"/>
<path d="M506 450 c3 -14 11 -32 16 -40 6 -10 7 -7 2 10 -3 14 -11 32 -16 40
-6 10 -7 7 -2 -10z"/>
<path d="M225 432 c118 -39 135 -53 135 -106 0 -24 3 -63 6 -88 6 -44 6 -45
-27 -56 l-34 -11 36 5 c34 5 36 4 47 -34 14 -47 63 -117 94 -133 14 -7 6 4
-18 28 -55 54 -83 130 -91 249 l-6 92 -46 25 c-42 23 -148 58 -168 56 -4 0 28
-13 72 -27z"/>
<path d="M775 260 c-3 -5 -12 -7 -19 -4 -8 3 -16 1 -19 -3 -3 -5 10 -10 28
-11 28 -2 33 1 29 13 -7 17 -11 19 -19 5z"/>
<path d="M454 225 c-7 -18 3 -35 21 -35 21 0 28 19 15 35 -16 19 -29 19 -36 0z
m34 -13 c2 -7 -3 -12 -12 -12 -9 0 -16 7 -16 16 0 17 22 14 28 -4z"/>
<path d="M748 208 c6 -6 18 -8 28 -6 14 3 12 5 -9 10 -19 3 -25 2 -19 -4z"/>
<path d="M814 188 c4 -32 -1 -34 -28 -13 -11 8 -27 15 -35 14 -9 0 -5 -5 9
-10 14 -6 35 -20 47 -31 22 -21 23 -21 22 -2 -1 10 -5 30 -10 44 -9 25 -9 25
-5 -2z"/>
<path d="M255 160 c-18 -8 -17 -9 7 -9 l27 -1 -24 -46 c-14 -26 -25 -56 -24
-68 0 -12 6 -2 14 23 26 82 75 109 114 62 10 -13 12 -13 9 -1 -9 29 -89 55
-123 40z"/>
<path d="M368 83 c-3 -12 -21 -31 -39 -42 -19 -12 -27 -21 -18 -21 21 0 72 55
67 71 -3 8 -7 5 -10 -8z"/>
<path d="M606 72 c-2 -4 4 -8 14 -8 10 0 16 4 14 8 -3 4 -9 8 -14 8 -5 0 -11
-4 -14 -8z"/>
<path d="M610 36 c7 -7 13 -7 20 0 6 6 3 10 -10 10 -13 0 -16 -4 -10 -10z"/>
<path d="M345 10 c3 -5 8 -10 11 -10 2 0 4 5 4 10 0 6 -5 10 -11 10 -5 0 -7
-4 -4 -10z"/>
</g>

</symbol>

<symbol id="king" width="100.000000pt" height="186.000000pt" viewBox="-20 20 130.000000 186.000000"  preserveAspectRatio="xMidYMid meet">

<g transform="translate(0.000000,183.000000) scale(0.100000,-0.100000)">

<path d="M410 1821 c0 -5 18 -25 41 -45 23 -19 38 -39 34 -46 -4 -6 -1 -17 5
-25 10 -12 10 -18 1 -29 -21 -25 13 -63 59 -68 32 -3 37 -1 27 10 -6 8 -23 12
-39 10 -15 -3 -28 -1 -28 4 0 4 24 8 54 8 l53 0 17 -107 c10 -60 19 -115 22
-123 2 -9 -8 -23 -24 -32 -15 -10 -22 -17 -17 -18 6 0 20 8 32 18 l21 17 -19
110 c-10 61 -19 116 -19 123 0 18 18 14 23 -5 4 -17 5 -17 6 0 2 28 29 20 34
-10 l4 -28 2 28 c2 39 24 30 33 -14 l7 -34 -3 38 c-2 36 16 53 27 25 4 -10 6
-10 6 0 1 6 7 12 15 12 9 0 18 -19 25 -52 l10 -53 -5 53 c-4 41 -2 52 10 52 8
0 16 -12 19 -27 l4 -28 2 28 c1 18 6 27 19 27 9 0 23 4 30 9 12 7 12 12 0 30
-11 18 -11 23 2 31 13 9 13 12 -2 24 -16 12 -16 15 8 37 14 13 30 32 35 42 9
16 -6 17 -261 17 -158 0 -270 -4 -270 -9z m514 -12 c-3 -6 -25 -20 -48 -30
-22 -10 -35 -19 -28 -19 7 0 23 5 35 11 22 12 22 12 3 -10 -18 -20 -28 -21
-201 -21 -142 0 -185 3 -194 14 -9 11 -5 12 28 3 34 -9 45 -7 95 17 32 16 56
30 54 32 -2 2 -26 -8 -53 -21 -58 -30 -77 -31 -131 -6 -82 38 -68 41 196 41
178 0 249 -4 244 -11z m-29 -89 c-4 -6 -82 -11 -193 -12 l-187 -3 183 -2 c110
-2 182 -7 182 -13 0 -6 -71 -10 -185 -10 -158 0 -185 2 -185 15 0 8 -4 15 -10
15 -5 0 -10 5 -10 10 0 6 75 10 206 10 134 0 203 -3 199 -10z m0 -60 c-4 -6
-83 -10 -206 -10 -126 0 -199 4 -199 10 0 6 75 10 206 10 134 0 203 -3 199
-10z"/>
<path d="M686 1799 c6 -11 64 -42 69 -37 2 2 -14 13 -36 25 -21 12 -37 17 -33
12z"/>
<path d="M783 1753 c9 -2 25 -2 35 0 9 3 1 5 -18 5 -19 0 -27 -2 -17 -5z"/>
<path d="M1195 1810 c-4 -6 -4 -14 -1 -17 3 -4 6 -1 6 5 0 18 30 14 37 -4 8
-21 -17 -36 -36 -21 -12 9 -13 9 -7 0 4 -8 1 -13 -8 -13 -9 0 -16 -7 -16 -15
0 -8 5 -15 10 -15 6 0 10 -30 10 -70 l0 -71 -37 5 -38 5 38 -10 c20 -6 37 -17
37 -25 0 -11 -20 -14 -95 -14 -105 0 -109 3 -80 61 24 46 117 95 101 53 -3 -9
-8 -28 -11 -42 -3 -15 1 -9 10 13 8 22 22 45 30 51 20 15 8 24 -29 23 l-31 -1
30 -7 30 -7 -30 -6 c-16 -3 -39 -8 -50 -12 -20 -8 -20 -7 -1 8 32 26 6 18 -29
-8 -61 -47 -82 -133 -49 -203 9 -19 31 -45 49 -59 35 -26 61 -34 29 -8 -19 15
-19 16 1 8 11 -4 32 -9 47 -12 l28 -4 -15 36 c-19 44 -19 44 3 49 15 4 15 5 0
6 -24 1 -30 -13 -18 -45 6 -15 8 -29 5 -32 -11 -12 -76 29 -96 60 -17 28 -19
29 -14 8 6 -20 5 -23 -6 -13 -7 7 -13 38 -15 70 -2 56 -2 57 5 13 5 -25 9 -37
9 -27 2 15 14 17 97 17 87 0 95 -2 95 -19 0 -12 -8 -21 -22 -24 l-23 -4 23 -2
c21 -1 22 -6 22 -70 0 -41 -4 -71 -11 -73 -6 -2 14 -14 45 -27 l56 -23 0 -116
0 -116 -28 45 c-58 91 -170 167 -280 190 -87 17 -90 19 -69 30 9 6 17 19 17
29 0 16 9 20 63 23 l62 3 -62 2 c-59 2 -62 3 -66 30 -2 15 -5 3 -6 -25 -1 -60
7 -56 -136 -73 -119 -13 -123 -13 -142 9 -18 22 -33 19 -32 -7 0 -14 2 -13 9
3 8 19 9 19 9 -2 1 -13 -5 -23 -11 -24 -7 0 -21 -2 -31 -4 -14 -3 -17 1 -12
18 4 17 2 15 -10 -5 -17 -30 -31 -38 -21 -12 4 10 2 13 -6 8 -7 -5 -9 -2 -5 8
6 17 -8 19 -31 4 -9 -5 -13 -3 -11 5 4 36 -1 42 -21 24 -28 -25 -25 -43 3 -19
l22 19 -19 -22 c-10 -13 -22 -20 -27 -18 -4 3 -10 1 -14 -5 -3 -5 -16 -11 -28
-11 -17 -1 -15 -3 8 -8 17 -4 42 -4 58 0 20 6 27 4 27 -7 0 -8 -6 -17 -14 -20
-8 -3 -12 -13 -9 -25 3 -11 -2 -28 -10 -37 -9 -10 -14 -27 -11 -38 6 -22 -18
-54 -40 -54 -8 0 -12 -9 -9 -24 4 -17 -3 -29 -22 -45 -20 -15 -25 -24 -17 -34
9 -11 82 -243 82 -261 0 -5 -7 -6 -15 -2 -8 3 -15 1 -15 -4 0 -6 7 -10 15 -10
8 0 19 -10 26 -21 8 -15 8 -19 0 -15 -6 4 -11 3 -11 -3 0 -5 10 -11 23 -13 18
-2 22 -9 21 -35 -1 -18 2 -31 6 -28 20 12 42 -8 38 -36 -3 -20 0 -29 9 -29 7
0 13 -7 13 -15 0 -11 11 -15 43 -14 43 1 42 3 -6 13 -25 6 -30 26 -6 26 6 0 7
-4 4 -10 -12 -19 6 -10 97 51 69 47 92 58 99 48 5 -9 1 -22 -13 -36 -11 -12
-18 -29 -15 -37 8 -22 -29 -40 -78 -39 l-40 1 35 -7 c66 -13 78 -35 37 -68
-19 -15 -22 -24 -16 -48 l7 -30 1 32 c1 38 24 53 91 64 l45 8 -47 -2 c-43 -2
-47 0 -42 17 4 12 2 16 -5 12 -6 -4 -11 0 -11 9 0 11 5 15 15 11 8 -3 15 0 15
7 0 8 4 6 10 -3 9 -13 10 -13 10 0 0 12 2 12 9 2 6 -11 10 -10 15 4 3 9 9 14
12 11 3 -3 1 -14 -5 -25 -9 -16 -7 -19 14 -18 13 1 33 10 44 20 11 10 24 15
30 12 5 -4 12 -2 15 3 3 5 22 12 42 16 20 3 34 8 32 11 -9 9 -113 -20 -124
-35 -16 -20 -47 -24 -40 -4 3 8 6 17 6 19 0 2 5 4 11 4 5 0 7 -5 3 -12 -5 -7
-3 -8 5 -4 7 5 10 15 7 23 -9 21 66 124 113 157 22 16 39 33 38 38 -1 6 4 13
12 16 8 3 11 0 7 -7 -5 -7 -1 -9 9 -4 11 4 13 8 5 13 -22 14 106 51 220 63 21
2 10 4 -26 5 -67 2 -167 -24 -221 -57 -21 -14 -30 -16 -27 -7 13 33 181 86
271 86 18 0 33 5 33 11 0 18 -133 1 -206 -25 -57 -21 -62 -21 -54 -5 13 24
100 52 185 58 l70 6 3 33 c3 25 -1 32 -14 32 -10 0 -25 7 -35 16 -19 17 -39
11 -39 -12 0 -29 -38 -12 -79 36 -23 27 -48 50 -54 50 -7 0 0 -10 16 -21 23
-18 55 -59 44 -59 -1 0 -23 21 -47 46 -25 26 -38 44 -30 40 8 -4 0 6 -19 23
-18 16 -39 27 -46 25 -7 -3 -16 0 -21 7 -5 8 -3 10 7 5 20 -10 -22 23 -44 35
-17 10 -17 9 -1 -23 29 -58 86 -152 116 -190 l28 -36 -117 -174 c-64 -95 -117
-175 -119 -176 -1 -2 -18 -5 -36 -5 -27 -2 -33 2 -33 18 0 11 10 24 22 31 13
6 20 13 17 17 -13 13 8 47 30 47 19 0 22 4 18 25 -3 18 0 25 12 25 11 0 16 9
16 28 0 31 16 52 40 52 11 0 16 8 16 22 -1 14 8 27 24 35 22 11 20 18 -3 14
-5 -1 -6 2 -4 6 3 5 0 19 -6 33 -5 14 -12 36 -14 50 -2 14 -8 29 -14 35 -15
15 -10 29 5 16 10 -8 16 -9 21 -1 3 5 -1 10 -9 10 -20 0 -48 43 -41 61 3 8 -4
18 -17 24 -17 7 -23 18 -23 42 0 19 -7 36 -18 42 -16 10 -17 8 -11 -16 3 -16
9 -40 14 -54 7 -22 3 -30 -26 -53 -19 -15 -37 -38 -40 -51 -6 -25 -7 -25 -124
-25 -117 0 -118 0 -122 25 -6 30 -5 31 152 135 68 46 119 85 112 88 -7 2 -10
8 -7 13 9 13 33 -14 28 -31 -3 -9 0 -8 7 3 9 15 8 22 -5 37 -9 10 -15 27 -13
37 5 26 33 27 46 1 6 -13 11 -17 11 -10 1 7 14 12 34 11 l32 -1 -30 -9 c-23
-6 -17 -7 25 -4 33 3 47 1 35 -4 -17 -7 -16 -8 10 -14 17 -3 39 -9 50 -12 17
-6 17 -5 5 5 -12 9 -10 10 10 4 36 -10 83 -35 77 -41 -3 -3 -16 2 -29 11 -12
9 -27 16 -32 16 -5 0 18 -17 51 -39 33 -21 77 -59 98 -84 21 -25 43 -43 48
-40 5 3 7 0 5 -8 -5 -14 27 -89 38 -89 3 0 3 4 -1 9 -3 5 -2 12 2 14 5 3 7 69
5 146 -3 135 -4 142 -25 152 -22 10 -22 11 -17 219 l5 210 -40 2 -40 1 45 7
c25 4 40 8 35 8 -6 1 -11 14 -10 30 0 20 -5 28 -22 30 -11 2 -24 -2 -28 -8z
m38 -87 c-7 -2 -19 -2 -25 0 -7 3 -2 5 12 5 14 0 19 -2 13 -5z m5 -83 c0 -54
-3 -70 -14 -70 -8 0 -14 -4 -14 -10 0 -5 6 -10 14 -10 11 0 14 -20 14 -89 0
-68 -3 -89 -12 -85 -7 3 -13 -2 -13 -11 0 -9 6 -14 14 -11 7 3 13 -1 13 -9 0
-8 -3 -15 -7 -15 -28 1 -31 21 -32 198 0 169 1 182 18 182 16 0 19 -9 19 -70z
m-205 8 c-11 -13 -25 -32 -31 -43 -7 -11 -12 -14 -12 -7 0 19 39 72 52 72 7 0
2 -10 -9 -22z m12 -226 c-6 -7 -35 18 -35 31 0 5 9 2 20 -8 11 -10 18 -20 15
-23z m-529 -139 c-3 -4 -6 -1 -6 6 0 7 -4 9 -10 6 -11 -7 -14 8 -3 19 4 3 11
-1 16 -9 5 -9 6 -19 3 -22z m-36 17 c0 -5 -5 -10 -11 -10 -5 0 -7 5 -4 10 3 6
8 10 11 10 2 0 4 -4 4 -10z m244 0 c6 6 15 10 21 10 5 0 -1 -9 -15 -20 -27
-21 -45 -26 -35 -10 12 19 -6 10 -94 -49 l-89 -60 -6 31 c-12 61 -10 65 52 77
31 6 63 15 71 20 7 5 29 5 50 0 21 -5 40 -4 45 1z m66 -10 c0 -28 -263 -209
-268 -184 -2 9 2 22 10 29 14 14 249 175 255 175 2 0 3 -9 3 -20z m-100 -25
c0 -2 -40 -32 -90 -65 -49 -33 -90 -57 -90 -53 1 8 159 120 173 122 4 1 7 -1
7 -4z m-186 -185 c4 -67 3 -82 -3 -50 -13 64 -23 237 -11 185 4 -22 11 -83 14
-135z m271 152 c-13 -11 -226 -156 -245 -167 -12 -6 -13 -5 -3 5 18 19 236
169 248 170 6 0 6 -3 0 -8z m410 -67 c30 -31 55 -61 55 -67 0 -7 -14 4 -30 24
-17 21 -47 51 -68 68 -20 16 -31 30 -24 30 6 0 36 -25 67 -55z m-715 -2 c1
-10 5 -52 10 -93 5 -44 4 -82 -1 -92 -6 -10 -5 -19 1 -23 14 -8 13 -55 -1 -55
-7 0 -9 -11 -6 -29 4 -21 1 -34 -14 -46 -27 -25 -35 -11 -20 31 8 22 12 80 12
152 -1 64 -1 129 0 145 2 29 19 38 19 10z m565 -91 c-3 -3 -16 5 -28 17 l-22
23 28 -17 c15 -10 25 -20 22 -23z m-596 -127 c0 -33 -3 -67 -9 -75 -6 -9 -10
27 -12 104 -2 65 -1 120 2 123 7 7 18 -81 19 -152z m465 40 c15 -55 29 -108
32 -117 3 -10 1 -18 -4 -18 -5 0 -22 48 -36 108 -15 59 -29 116 -33 127 -3 13
-2 16 4 10 6 -5 22 -55 37 -110z m164 22 l54 -54 -30 -11 c-28 -10 -32 -8 -55
26 -38 57 -77 121 -77 127 0 11 55 -33 108 -88z m-242 32 c-14 -17 -26 -35
-26 -40 0 -5 -4 -9 -10 -9 -5 0 -10 4 -10 9 0 14 50 71 62 71 5 0 -2 -14 -16
-31z m442 6 c-3 -3 -9 2 -12 12 -6 14 -5 15 5 6 7 -7 10 -15 7 -18z m-412 -47
c-12 -21 -15 -21 -36 -8 -12 7 -11 13 10 35 22 24 25 24 31 8 3 -10 1 -26 -5
-35z m-447 -25 l-1 -68 -14 53 c-11 41 -12 57 -3 68 6 8 13 14 15 14 2 0 4
-30 3 -67z m457 -116 c1 -95 -1 -118 -6 -82 -13 83 -11 215 4 215 0 0 2 -60 2
-133z m369 123 c3 -5 -1 -10 -9 -10 -9 0 -16 5 -16 10 0 6 4 10 9 10 6 0 13
-4 16 -10z m-405 -10 c0 -6 -63 -10 -170 -10 -107 0 -170 4 -170 10 0 6 63 10
170 10 107 0 170 -4 170 -10z m315 0 c3 -5 1 -10 -4 -10 -6 0 -11 5 -11 10 0
6 2 10 4 10 3 0 8 -4 11 -10z m-385 -45 l0 -25 -115 0 -115 0 0 25 0 25 115 0
115 0 0 -25z m82 -84 c6 -112 2 -161 -12 -161 -8 0 -13 25 -26 128 -5 44 -3
52 10 52 9 0 16 8 16 20 0 11 -7 20 -15 20 -9 0 -15 9 -15 25 0 18 5 25 19 25
16 0 19 -11 23 -109z m-322 85 c0 -8 -4 -18 -10 -21 -5 -3 -10 3 -10 14 0 12
5 21 10 21 6 0 10 -6 10 -14z m270 -6 c0 -11 -4 -20 -10 -20 -5 0 -10 9 -10
20 0 11 5 20 10 20 6 0 10 -9 10 -20z m117 -112 c-24 -15 -27 -7 -26 65 l0 72
19 -65 c14 -48 16 -67 7 -72z m-87 72 c0 -6 -63 -10 -170 -10 -107 0 -170 4
-170 10 0 6 63 10 170 10 107 0 170 -4 170 -10z m-310 -29 c0 -14 -50 -71 -62
-71 -5 0 2 14 16 31 14 17 26 35 26 40 0 5 5 9 10 9 6 0 10 -4 10 -9z m252
-21 c0 -16 1 -34 2 -40 1 -12 -246 -180 -256 -174 -5 3 -8 13 -8 23 0 10 -6
24 -13 30 -8 6 -19 29 -26 51 -11 39 -11 42 12 60 13 11 30 33 37 50 l12 30
119 0 119 0 2 -30z m35 -62 c6 -51 7 -97 2 -102 -4 -4 -10 27 -14 70 -3 44 -8
89 -11 102 -2 12 0 22 4 22 5 0 14 -42 19 -92z m-30 -14 c-3 -3 -2 -17 3 -29
8 -22 1 -29 -95 -94 -123 -84 -135 -90 -135 -65 1 13 38 44 110 93 61 41 108
76 106 78 -2 3 -52 -28 -111 -67 -59 -39 -109 -70 -111 -67 -5 5 217 155 230
156 5 1 7 -2 3 -5z m212 -23 c-13 -11 -26 -17 -28 -15 -5 5 30 33 43 34 4 0
-2 -9 -15 -19z m-204 -59 c-29 -25 -177 -124 -181 -120 -5 5 167 127 181 128
6 0 6 -3 0 -8z"/>
<path d="M564 829 c-10 -17 13 -36 27 -22 12 12 4 33 -11 33 -5 0 -12 -5 -16
-11z m26 -9 c0 -5 -4 -10 -10 -10 -5 0 -10 5 -10 10 0 6 5 10 10 10 6 0 10 -4
10 -10z"/>
<path d="M636 831 c-3 -5 1 -14 8 -20 16 -13 32 2 21 19 -8 12 -22 13 -29 1z
m24 -11 c0 -5 -2 -10 -4 -10 -3 0 -8 5 -11 10 -3 6 -1 10 4 10 6 0 11 -4 11
-10z"/>
<path d="M715 830 c-8 -13 4 -32 16 -25 12 8 12 35 0 35 -6 0 -13 -4 -16 -10z"/>
<path d="M564 769 c-10 -17 13 -36 27 -22 12 12 4 33 -11 33 -5 0 -12 -5 -16
-11z m21 -9 c3 -5 1 -10 -4 -10 -6 0 -11 5 -11 10 0 6 2 10 4 10 3 0 8 -4 11
-10z"/>
<path d="M641 766 c-9 -10 -9 -16 -1 -21 17 -10 37 12 24 25 -8 8 -15 6 -23
-4z m19 -6 c0 -5 -5 -10 -11 -10 -5 0 -7 5 -4 10 3 6 8 10 11 10 2 0 4 -4 4
-10z"/>
<path d="M562 698 c5 -15 28 -18 29 -3 0 6 -7 12 -17 13 -10 3 -15 -1 -12 -10z"/>
<path d="M882 1605 c0 -16 2 -22 5 -12 2 9 2 23 0 30 -3 6 -5 -1 -5 -18z"/>
<path d="M490 1596 c0 -8 -11 -28 -25 -45 -24 -28 -25 -30 -7 -40 12 -6 23 -6
33 0 12 8 12 10 -1 8 -38 -4 -41 2 -16 32 23 27 34 59 21 59 -3 0 -5 -6 -5
-14z"/>
<path d="M772 1585 c0 -16 2 -22 5 -12 2 9 2 23 0 30 -3 6 -5 -1 -5 -18z"/>
<path d="M526 1585 c5 -11 10 -13 19 -5 6 5 16 6 20 2 5 -4 5 -1 1 6 -11 18
-47 16 -40 -3z"/>
<path d="M662 1575 c0 -16 2 -22 5 -12 2 9 2 23 0 30 -3 6 -5 -1 -5 -18z"/>
<path d="M702 1560 c-1 -14 5 -56 12 -95 8 -38 14 -59 14 -45 1 14 -5 57 -12
95 -8 39 -14 59 -14 45z"/>
<path d="M852 1560 c-1 -14 5 -56 12 -95 8 -38 14 -59 14 -45 1 14 -5 57 -12
95 -8 39 -14 59 -14 45z"/>
<path d="M892 1550 c-1 -14 3 -43 7 -65 6 -26 9 -31 9 -15 1 14 -3 43 -7 65
-6 26 -9 31 -9 15z"/>
<path d="M742 1535 c0 -16 2 -22 5 -12 2 9 2 23 0 30 -3 6 -5 -1 -5 -18z"/>
<path d="M782 1530 c-1 -14 3 -43 7 -65 6 -26 9 -31 9 -15 1 14 -3 43 -7 65
-6 26 -9 31 -9 15z"/>
<path d="M672 1515 c0 -16 2 -22 5 -12 2 9 2 23 0 30 -3 6 -5 -1 -5 -18z"/>
<path d="M822 1505 c0 -16 2 -22 5 -12 2 9 2 23 0 30 -3 6 -5 -1 -5 -18z"/>
<path d="M105 1513 c-19 -5 -55 -36 -55 -47 0 -3 6 -3 14 0 10 4 23 -10 40
-45 28 -55 18 -84 -12 -31 -9 17 -23 39 -30 48 -11 15 -11 15 -5 -3 3 -11 15
-32 25 -47 18 -26 17 -48 -1 -48 -5 0 -14 14 -21 30 -7 17 -15 29 -17 26 -3
-3 5 -23 18 -46 19 -34 24 -38 30 -23 4 10 29 31 57 46 43 23 51 25 62 12 17
-20 7 -41 -32 -65 -42 -25 -32 -26 23 0 24 11 38 20 31 20 -7 0 -10 5 -6 11
11 18 -17 60 -37 54 -12 -4 -24 7 -43 41 -14 26 -26 51 -26 56 0 21 26 -1 48
-41 19 -34 27 -40 38 -30 17 14 38 -1 60 -42 18 -35 18 -39 -3 -39 -9 0 -14
-2 -11 -5 3 -4 17 -3 31 0 22 6 24 9 11 23 -8 10 -27 33 -43 52 -23 27 -32 32
-43 23 -11 -10 -18 -3 -37 33 -24 44 -28 46 -66 37z m28 -63 c25 -45 29 -79 7
-65 -10 6 -60 94 -60 106 0 25 28 3 53 -41z"/>
<path d="M498 1503 c-29 -15 -39 -55 -16 -69 7 -4 8 -3 4 4 -4 7 -1 12 6 12 9
0 9 3 -2 10 -13 8 -12 10 3 10 11 0 32 -9 48 -21 33 -23 59 -19 59 8 0 15 -2
16 -10 3 -8 -12 -13 -11 -33 8 -13 12 -29 22 -36 22 -11 0 -11 3 -1 15 15 18
14 17 -22 -2z"/>
<path d="M752 1475 c0 -16 2 -22 5 -12 2 9 2 23 0 30 -3 6 -5 -1 -5 -18z"/>
<path d="M684 1409 c0 -42 4 -75 9 -72 9 5 8 56 -2 108 -7 33 -8 27 -7 -36z"/>
<path d="M832 1445 c0 -16 2 -22 5 -12 2 9 2 23 0 30 -3 6 -5 -1 -5 -18z"/>
<path d="M762 1415 c0 -16 2 -22 5 -12 2 9 2 23 0 30 -3 6 -5 -1 -5 -18z"/>
<path d="M481 1408 c-1 -13 -10 -18 -33 -19 -18 0 -55 -7 -83 -15 -49 -13 -37
-13 60 3 l39 6 -24 -31 c-16 -20 -38 -33 -60 -37 -106 -19 -207 -62 -303 -127
l-58 -39 3 33 c3 31 23 51 104 106 17 11 17 11 -3 2 -18 -8 -23 -8 -24 2 0 8
-3 7 -7 -3 -4 -9 -24 -30 -45 -48 -32 -29 -37 -39 -37 -78 l0 -45 36 27 c19
15 37 25 39 23 3 -2 -14 -19 -37 -36 -23 -18 -38 -32 -34 -32 4 0 30 18 59 40
29 21 91 58 137 80 47 23 74 38 60 34 -14 -3 -59 -24 -99 -45 -87 -45 -107
-45 -29 -1 66 38 137 66 208 81 44 10 62 21 91 53 36 39 38 40 60 24 14 -9 40
-15 64 -15 32 2 34 3 10 6 -61 7 -74 13 -83 40 -7 18 -11 22 -11 11z"/>
<path d="M798 1380 c-2 -22 0 -40 4 -40 5 0 8 18 8 40 0 22 -2 40 -4 40 -2 0
-6 -18 -8 -40z"/>
<path d="M839 1378 c-3 -22 -1 -34 4 -29 5 5 7 21 5 37 -3 27 -4 26 -9 -8z"/>
<path d="M1095 1384 c-30 -8 -36 -11 -16 -9 18 3 44 5 57 5 13 0 24 5 24 10 0
12 -1 12 -65 -6z"/>
<path d="M729 1362 c-3 -20 -2 -29 4 -23 5 5 7 19 5 32 -3 20 -5 19 -9 -9z"/>
<path d="M877 1371 c-4 -17 -3 -21 5 -13 5 5 8 16 6 23 -3 8 -7 3 -11 -10z"/>
<path d="M767 1361 c-4 -17 -3 -21 5 -13 5 5 8 16 6 23 -3 8 -7 3 -11 -10z"/>
<path d="M650 1360 c-12 -8 -13 -11 -2 -22 11 -11 13 -10 10 2 -2 8 3 14 10
12 8 -1 11 2 7 8 -7 12 -6 12 -25 0z"/>
<path d="M1108 1363 c7 -3 16 -2 19 1 4 3 -2 6 -13 5 -11 0 -14 -3 -6 -6z"/>
<path d="M315 1270 c-25 -11 1 -11 35 0 20 6 21 8 5 8 -11 0 -29 -3 -40 -8z"/>
<path d="M860 1266 c0 -11 30 -66 36 -66 2 0 -3 15 -12 33 -19 36 -24 44 -24
33z"/>
<path d="M913 1234 c-7 -18 11 -39 26 -30 17 11 13 46 -4 46 -9 0 -18 -7 -22
-16z m27 -9 c0 -8 -4 -15 -10 -15 -5 0 -10 7 -10 15 0 8 5 15 10 15 6 0 10 -7
10 -15z"/>
<path d="M270 1213 c0 -10 4 -14 8 -8 4 6 11 13 16 18 5 4 2 7 -7 7 -10 0 -17
-8 -17 -17z"/>
<path d="M993 1204 c-9 -23 13 -40 32 -24 12 10 13 16 4 26 -15 18 -28 18 -36
-2z m29 -9 c0 -5 -5 -11 -11 -13 -6 -2 -11 4 -11 13 0 9 5 15 11 13 6 -2 11
-8 11 -13z"/>
<path d="M182 1184 c-47 -33 -9 -107 46 -88 37 13 43 65 10 88 -28 20 -28 20
-56 0z m58 -19 c18 -21 3 -55 -24 -55 -33 0 -50 23 -36 49 12 24 42 27 60 6z"/>
<path d="M366 1164 c-16 -20 -56 -54 -90 -76 -36 -24 -51 -38 -36 -34 14 3 6
-3 -17 -14 -47 -23 -130 -41 -177 -39 -28 2 -28 2 9 9 l40 7 -43 2 -43 1 1
-87 c0 -49 0 -155 0 -238 0 -137 2 -151 20 -167 19 -15 20 -29 20 -227 0 -142
3 -211 11 -211 5 0 7 5 4 10 -3 6 3 10 14 10 10 0 22 -6 24 -12 5 -12 11 128
8 165 -2 15 8 17 93 17 90 0 95 -1 99 -22 2 -13 4 -3 4 22 1 25 -1 37 -4 27
-4 -15 -17 -17 -98 -17 l-93 0 -1 101 c-2 93 0 101 16 94 10 -3 32 -8 48 -11
17 -3 3 4 -30 15 -32 11 -61 18 -64 16 -2 -3 0 -5 6 -5 7 0 11 -59 11 -170 0
-161 -1 -170 -20 -170 -18 0 -19 8 -16 180 3 177 3 179 -19 189 -22 10 -23 16
-23 133 l1 123 21 -40 c29 -55 125 -148 184 -178 62 -31 148 -57 191 -57 31 0
32 -1 21 -25 -10 -22 -17 -24 -92 -28 l-81 -3 82 -2 c81 -2 82 -2 86 -29 3
-21 4 -17 6 13 1 51 15 64 66 65 33 1 36 2 13 8 -20 5 -53 47 -150 189 -67
101 -127 190 -132 197 -7 10 2 31 31 72 22 32 46 68 52 81 12 23 12 23 -27 -3
-22 -14 -63 -35 -92 -46 -61 -23 -180 -37 -180 -22 0 6 33 12 73 15 77 5 181
43 213 79 9 10 20 16 25 13 5 -2 22 22 39 56 17 33 29 60 28 60 -2 0 -16 -16
-32 -36z m-45 -64 c-24 -22 -49 -40 -55 -39 -6 0 0 8 14 17 13 9 36 27 50 39
14 12 27 22 30 22 3 0 -15 -18 -39 -39z m-40 -99 c-26 -47 -261 -104 -261 -62
0 4 35 11 78 17 42 6 102 22 132 36 30 15 56 27 58 27 1 1 -2 -7 -7 -18z m-7
-176 c25 -36 46 -69 46 -73 0 -3 -29 22 -65 58 -35 35 -62 67 -59 72 13 20 36
3 78 -57z m59 -112 c26 -23 65 -71 88 -105 40 -63 40 -63 17 -69 -13 -4 -34
-7 -48 -7 -23 -1 -23 0 -5 8 13 6 15 9 5 9 -8 1 -26 4 -40 6 -22 5 -23 4 -5
-5 17 -9 15 -9 -10 -5 -60 12 -137 55 -194 110 -61 58 -127 165 -117 191 7 19
42 18 50 -1 8 -22 37 -18 43 5 8 32 28 24 73 -30 23 -27 47 -50 53 -50 6 0
-10 22 -36 48 -26 26 -47 51 -47 55 0 5 28 -20 63 -55 34 -35 84 -82 110 -105z
m-223 137 c0 -5 -7 -10 -15 -10 -8 0 -15 5 -15 10 0 6 7 10 15 10 8 0 15 -4
15 -10z m357 -326 c-3 -3 -12 -4 -19 -1 -8 3 -5 6 6 6 11 1 17 -2 13 -5z
m-374 -381 c-7 -2 -19 -2 -25 0 -7 3 -2 5 12 5 14 0 19 -2 13 -5z m0 -20 c-7
-2 -19 -2 -25 0 -7 3 -2 5 12 5 14 0 19 -2 13 -5z"/>
<path d="M30 837 c-1 -20 53 -108 93 -152 45 -50 130 -107 177 -120 14 -3 -4
8 -40 26 -80 40 -158 117 -199 195 -16 32 -30 55 -31 51z"/>
<path d="M120 790 c0 -5 7 -7 15 -4 10 4 15 0 15 -11 0 -12 -5 -15 -17 -10
-15 5 -16 4 -5 -6 16 -17 37 3 29 25 -7 17 -37 22 -37 6z"/>
<path d="M280 740 c19 -17 44 -36 55 -42 27 -14 10 1 -45 41 l-45 33 35 -32z"/>
<path d="M197 749 c-31 -18 -40 -48 -22 -75 19 -30 55 -31 80 -4 35 39 -13
103 -58 79z m51 -40 c4 -34 -20 -54 -47 -39 -38 20 -18 74 24 68 13 -2 21 -12
23 -29z"/>
<path d="M285 640 c-8 -13 3 -30 20 -30 20 0 29 20 16 33 -9 9 -11 8 -6 -5 5
-13 2 -18 -10 -18 -11 0 -15 5 -11 15 6 17 0 20 -9 5z"/>
<path d="M364 609 c-3 -6 0 -17 7 -25 18 -17 44 -2 36 20 -7 18 -33 21 -43 5z
m34 -10 c-2 -6 -8 -10 -13 -10 -5 0 -11 4 -13 10 -2 6 4 11 13 11 9 0 15 -5
13 -11z"/>
<path d="M1072 1164 c-39 -27 -19 -94 28 -94 47 0 67 67 28 94 -12 9 -25 16
-28 16 -3 0 -16 -7 -28 -16z m58 -19 c20 -24 3 -55 -30 -55 -20 0 -31 6 -35
20 -8 25 10 50 35 50 10 0 23 -7 30 -15z"/>
<path d="M297 1164 c-9 -10 2 -24 19 -24 8 0 14 7 14 15 0 15 -21 21 -33 9z"/>
<path d="M738 1163 c6 -2 12 -9 12 -14 0 -6 -5 -7 -12 -3 -7 5 -8 3 -3 -5 5
-9 11 -9 17 -3 12 12 2 32 -15 31 -9 0 -9 -2 1 -6z"/>
<path d="M92 1124 c4 -21 22 -23 26 -1 2 10 -3 17 -13 17 -10 0 -15 -6 -13
-16z"/>
<path d="M654 1099 c-10 -17 13 -36 27 -22 12 12 4 33 -11 33 -5 0 -12 -5 -16
-11z m26 -9 c0 -5 -4 -10 -10 -10 -5 0 -10 5 -10 10 0 6 5 10 10 10 6 0 10 -4
10 -10z"/>
<path d="M735 1099 c-5 -8 -4 -10 3 -5 7 4 12 3 12 -3 0 -5 -6 -12 -12 -14
-10 -4 -10 -6 -1 -6 17 -1 27 19 15 31 -6 6 -12 6 -17 -3z"/>
<path d="M111 1063 c0 -11 3 -13 6 -5 2 6 9 12 14 12 6 0 7 -5 3 -12 -4 -7 -3
-8 5 -4 14 9 5 26 -15 26 -8 0 -14 -8 -13 -17z"/>
<path d="M1154 1059 c-3 -6 0 -17 7 -25 18 -17 44 -2 36 20 -7 18 -33 21 -43
5z m34 -10 c-2 -6 -8 -10 -13 -10 -5 0 -11 4 -13 10 -2 6 4 11 13 11 9 0 15
-5 13 -11z"/>
<path d="M175 1040 c-13 -6 -15 -9 -5 -9 8 0 22 4 30 9 18 12 2 12 -25 0z"/>
<path d="M581 1028 c-1 -10 6 -18 14 -18 8 0 15 8 15 18 0 13 -2 14 -9 3 -7
-11 -9 -11 -14 0 -4 10 -6 9 -6 -3z"/>
<path d="M652 1028 c5 -15 28 -18 29 -3 0 6 -7 12 -17 13 -10 3 -15 -1 -12
-10z"/>
<path d="M742 1025 c-11 -12 -10 -15 3 -15 8 0 15 7 15 15 0 18 -2 18 -18 0z"/>
<path d="M113 1023 c9 -2 23 -2 30 0 6 3 -1 5 -18 5 -16 0 -22 -2 -12 -5z"/>
<path d="M355 952 c-5 -6 -18 -12 -28 -14 -16 -3 -15 -4 4 -16 17 -11 20 -11
14 0 -6 9 -5 10 2 3 15 -14 43 -115 32 -115 -5 0 -9 9 -9 20 0 11 -7 23 -15
26 -11 4 -14 13 -9 28 6 21 6 21 -9 1 -15 -18 -14 -21 4 -29 11 -5 19 -19 19
-33 0 -13 6 -23 14 -23 8 0 22 -10 31 -22 10 -13 15 -16 12 -8 -16 44 -46 148
-49 168 -2 15 -6 20 -13 14z"/>
<path d="M948 928 c9 -9 15 -9 24 0 9 9 7 12 -12 12 -19 0 -21 -3 -12 -12z"/>
<path d="M1238 813 c6 -2 18 -2 25 0 6 3 1 5 -13 5 -14 0 -19 -2 -12 -5z"/>
<path d="M1163 803 c9 -2 23 -2 30 0 6 3 -1 5 -18 5 -16 0 -22 -2 -12 -5z"/>
<path d="M1085 785 c-39 -17 -21 -18 25 0 19 7 28 14 20 14 -8 0 -28 -6 -45
-14z"/>
<path d="M1150 765 c0 -10 7 -15 18 -13 21 4 19 22 -2 26 -10 2 -16 -3 -16
-13z"/>
<path d="M1040 720 c-11 -11 -20 -27 -20 -35 0 -21 36 -55 59 -55 48 0 72 68
33 98 -23 18 -49 15 -72 -8z m71 -16 c19 -23 -1 -49 -37 -49 -30 0 -42 20 -30
51 7 19 50 18 67 -2z"/>
<path d="M1225 689 c-67 -46 -81 -58 -47 -40 13 7 26 10 29 7 8 -8 -149 -83
-213 -101 -32 -9 -66 -19 -74 -22 -8 -4 -18 -6 -21 -5 -4 1 -15 -9 -25 -21
l-19 -22 23 19 c26 23 29 11 5 -18 -10 -12 0 -5 21 14 l39 35 -21 -31 c-34
-50 -49 -59 -69 -43 -16 13 -17 12 -5 -3 8 -10 11 -26 7 -39 -5 -14 -2 -25 6
-30 12 -8 12 -10 0 -18 -11 -7 -10 -10 5 -14 14 -3 15 -5 3 -6 -9 0 -33 11
-54 25 -40 27 -65 26 -65 -3 0 -14 2 -15 9 -5 11 19 78 -26 73 -50 -2 -9 1
-19 6 -22 6 -3 9 2 8 11 0 9 6 18 14 20 13 4 13 3 0 -7 -13 -10 -13 -11 0 -9
38 4 40 -2 15 -36 -15 -19 -25 -42 -22 -52 4 -16 5 -16 6 1 0 11 13 34 27 53
21 28 23 34 9 39 -9 4 -13 13 -10 23 2 9 -2 29 -10 45 -17 33 -12 46 18 47 19
0 19 1 4 7 -15 6 -11 13 25 48 26 25 61 46 88 53 83 24 280 131 280 152 0 12
-17 11 -25 -1 -3 -5 -12 -10 -18 -10 -7 1 2 12 18 25 44 37 28 30 -40 -16z
m10 -19 c-3 -5 -11 -10 -16 -10 -6 0 -7 5 -4 10 3 6 11 10 16 10 6 0 7 -4 4
-10z"/>
<path d="M1175 711 c-7 -12 12 -24 25 -16 6 3 10 12 9 18 0 9 -2 9 -6 0 -2 -7
-9 -13 -14 -13 -6 0 -7 5 -4 10 3 6 4 10 1 10 -3 0 -7 -4 -11 -9z"/>
<path d="M955 681 c-3 -5 0 -13 6 -17 8 -4 9 -3 5 4 -4 7 -3 12 3 12 5 0 12
-6 14 -12 3 -8 6 -6 6 5 1 18 -24 24 -34 8z"/>
<path d="M1110 620 c-19 -11 -31 -19 -27 -20 11 0 67 29 67 35 0 7 -1 7 -40
-15z"/>
<path d="M987 624 c-9 -10 2 -24 19 -24 8 0 14 7 14 15 0 15 -21 21 -33 9z"/>
<path d="M1260 596 c-14 -14 -52 -41 -84 -60 -62 -37 -70 -49 -13 -19 18 9 34
17 37 17 3 -1 25 19 50 42 25 24 43 44 40 44 -3 0 -17 -11 -30 -24z"/>
<path d="M1040 590 c-8 -5 -10 -10 -5 -10 6 0 17 5 25 10 8 5 11 10 5 10 -5 0
-17 -5 -25 -10z"/>
<path d="M1205 497 c-6 -12 -29 -32 -53 -45 -34 -19 -46 -21 -57 -12 -20 17
-19 37 3 50 16 11 16 11 -1 6 -10 -3 -21 -6 -23 -6 -10 0 -3 -33 12 -56 14
-20 14 -28 5 -37 -10 -9 -19 -4 -43 23 -17 19 -25 26 -19 15 23 -43 40 -58 61
-52 16 4 25 -3 40 -33 18 -35 24 -39 54 -37 40 3 80 44 66 67 -6 9 -4 20 5 30
12 13 10 22 -13 62 -26 44 -28 46 -37 25z m40 -47 c10 -20 12 -31 4 -35 -6 -4
-11 -5 -13 -4 -25 39 -36 61 -31 69 9 14 23 4 40 -30z m-20 -39 c14 -29 21
-52 15 -56 -11 -7 -71 85 -64 97 11 18 25 6 49 -41z m-32 -20 c28 -51 33 -71
18 -71 -9 0 -71 100 -71 114 0 3 6 6 13 6 8 0 26 -22 40 -49z m-13 -61 c0 -25
-27 -6 -49 34 -33 63 -16 81 20 22 16 -25 29 -50 29 -56z"/>
<path d="M585 489 c-4 -6 -5 -12 -2 -15 2 -3 7 2 10 11 7 17 1 20 -8 4z"/>
<path d="M614 485 c-3 -8 -4 -20 -2 -27 3 -7 7 -1 10 15 6 29 1 36 -8 12z"/>
<path d="M654 486 c-3 -8 -4 -25 -2 -38 3 -17 5 -13 9 15 5 38 2 47 -7 23z"/>
<path d="M696 486 c6 -16 4 -18 -12 -12 -15 6 -17 5 -6 -5 9 -10 15 -10 24 -1
9 9 9 15 -1 25 -10 10 -11 8 -5 -7z"/>
<path d="M475 479 c-4 -6 -5 -12 -2 -15 2 -3 7 2 10 11 7 17 1 20 -8 4z"/>
<path d="M544 476 c-3 -8 -4 -25 -2 -38 3 -17 5 -13 9 15 5 38 2 47 -7 23z"/>
<path d="M70 455 c0 -8 4 -15 8 -15 5 0 9 7 9 15 0 8 -4 15 -9 15 -4 0 -8 -7
-8 -15z"/>
<path d="M218 463 c6 -2 18 -2 25 0 6 3 1 5 -13 5 -14 0 -19 -2 -12 -5z"/>
<path d="M501 454 c0 -11 3 -14 6 -6 3 7 2 16 -1 19 -3 4 -6 -2 -5 -13z"/>
<path d="M985 460 c-13 -5 -14 -9 -5 -9 8 0 24 4 35 9 13 5 14 9 5 9 -8 0 -24
-4 -35 -9z"/>
<path d="M582 440 c-1 -14 3 -43 7 -65 6 -26 9 -31 9 -15 1 14 -3 43 -7 65 -6
26 -9 31 -9 15z"/>
<path d="M150 440 c-9 -6 -11 -10 -3 -10 7 0 19 -12 28 -27 14 -25 15 -25 9
-5 -5 21 -3 23 18 17 34 -11 58 -30 79 -62 11 -15 19 -23 19 -16 0 6 -4 15
-10 18 -5 3 -10 11 -10 17 0 6 7 5 17 -3 16 -13 16 -13 1 10 -18 25 -66 61
-83 61 -5 0 -3 -5 5 -11 12 -8 10 -9 -10 -5 -14 3 -32 6 -40 7 -8 0 -4 5 10 9
21 7 21 8 5 9 -11 0 -27 -4 -35 -9z m116 -42 l19 -21 -27 18 c-29 18 -34 25
-20 25 5 0 17 -10 28 -22z"/>
<path d="M928 443 c6 -2 18 -2 25 0 6 3 1 5 -13 5 -14 0 -19 -2 -12 -5z"/>
<path d="M472 415 c0 -16 2 -22 5 -12 2 9 2 23 0 30 -3 6 -5 -1 -5 -18z"/>
<path d="M622 415 c0 -16 2 -22 5 -12 2 9 2 23 0 30 -3 6 -5 -1 -5 -18z"/>
<path d="M512 410 c-1 -14 3 -43 7 -65 6 -26 9 -31 9 -15 1 14 -3 43 -7 65 -6
26 -9 31 -9 15z"/>
<path d="M662 395 c0 -16 2 -22 5 -12 2 9 2 23 0 30 -3 6 -5 -1 -5 -18z"/>
<path d="M552 385 c0 -16 2 -22 5 -12 2 9 2 23 0 30 -3 6 -5 -1 -5 -18z"/>
<path d="M442 365 c0 -16 2 -22 5 -12 2 9 2 23 0 30 -3 6 -5 -1 -5 -18z"/>
<path d="M482 355 c0 -16 2 -22 5 -12 2 9 2 23 0 30 -3 6 -5 -1 -5 -18z"/>
<path d="M632 355 c0 -16 2 -22 5 -12 2 9 2 23 0 30 -3 6 -5 -1 -5 -18z"/>
<path d="M186 355 c-3 -8 -1 -15 4 -15 6 0 10 7 10 15 0 8 -2 15 -4 15 -2 0
-6 -7 -10 -15z"/>
<path d="M702 345 c0 -16 2 -22 5 -12 2 9 2 23 0 30 -3 6 -5 -1 -5 -18z"/>
<path d="M672 340 c-1 -14 5 -56 12 -95 8 -38 14 -59 14 -45 1 14 -5 57 -12
95 -8 39 -14 59 -14 45z"/>
<path d="M74 339 c-3 -6 -2 -15 3 -20 5 -5 9 -1 9 11 0 23 -2 24 -12 9z"/>
<path d="M311 345 c1 -19 18 -51 18 -35 0 8 -4 22 -9 30 -5 8 -9 11 -9 5z"/>
<path d="M562 330 c-1 -14 5 -54 12 -90 8 -36 14 -56 14 -45 1 11 -5 52 -12
90 -8 39 -14 59 -14 45z"/>
<path d="M138 333 c6 -2 18 -2 25 0 6 3 1 5 -13 5 -14 0 -19 -2 -12 -5z"/>
<path d="M452 300 c0 -19 2 -27 5 -17 2 9 2 25 0 35 -3 9 -5 1 -5 -18z"/>
<path d="M602 305 c0 -16 2 -22 5 -12 2 9 2 23 0 30 -3 6 -5 -1 -5 -18z"/>
<path d="M492 300 c-1 -14 3 -43 7 -65 6 -26 9 -31 9 -15 1 14 -3 43 -7 65 -6
26 -9 31 -9 15z"/>
<path d="M642 300 c-1 -14 3 -43 7 -65 6 -26 9 -31 9 -15 1 14 -3 43 -7 65 -6
26 -9 31 -9 15z"/>
<path d="M712 285 c0 -16 2 -22 5 -12 2 9 2 23 0 30 -3 6 -5 -1 -5 -18z"/>
<path d="M532 275 c0 -16 2 -22 5 -12 2 9 2 23 0 30 -3 6 -5 -1 -5 -18z"/>
<path d="M316 240 c-4 -19 -10 -29 -13 -23 -3 8 -14 1 -31 -18 -14 -18 -40
-38 -57 -45 -16 -7 -23 -13 -14 -14 8 0 24 7 35 15 26 20 39 19 23 -2 -7 -10
-1 -7 15 7 34 30 58 75 54 98 -2 10 -7 2 -12 -18z m-26 -55 c-7 -9 -15 -13
-18 -10 -3 2 1 11 8 20 7 9 15 13 18 10 3 -2 -1 -11 -8 -20z"/>
<path d="M612 245 c0 -16 2 -22 5 -12 2 9 2 23 0 30 -3 6 -5 -1 -5 -18z"/>
<path d="M462 235 c0 -16 2 -22 5 -12 2 9 2 23 0 30 -3 6 -5 -1 -5 -18z"/>
<path d="M810 251 c0 -8 -6 -11 -17 -6 -14 5 -15 3 -7 -5 18 -18 46 -9 34 10
-7 12 -10 12 -10 1z"/>
<path d="M722 225 c0 -16 2 -22 5 -12 2 9 2 23 0 30 -3 6 -5 -1 -5 -18z"/>
<path d="M158 229 c30 -9 33 -13 27 -37 -3 -15 -16 -37 -27 -49 -12 -13 -18
-23 -13 -23 22 0 68 90 53 106 -3 2 -20 6 -39 9 l-34 5 33 -11z"/>
<path d="M540 210 c0 -16 4 -30 8 -30 5 0 7 14 4 30 -2 17 -6 30 -8 30 -2 0
-4 -13 -4 -30z"/>
<path d="M70 205 c0 -8 4 -15 8 -15 5 0 9 7 9 15 0 8 -4 15 -9 15 -4 0 -8 -7
-8 -15z"/>
<path d="M621 194 c0 -11 3 -14 6 -6 3 7 2 16 -1 19 -3 4 -6 -2 -5 -13z"/>
<path d="M445 171 c-3 -5 0 -13 5 -16 7 -4 8 -19 5 -36 -4 -19 -3 -29 5 -29 6
0 -5 -20 -26 -45 l-36 -45 278 0 278 0 -41 43 c-23 23 -43 51 -45 62 -3 19
-12 20 -201 23 -120 1 -197 6 -197 12 0 6 76 10 200 10 184 0 200 1 199 18 0
10 -3 12 -6 5 -3 -10 -55 -13 -209 -13 -134 0 -203 3 -199 10 3 6 4 10 1 10
-3 0 -7 -4 -11 -9z m415 -61 c0 -6 -73 -10 -200 -10 -127 0 -200 4 -200 10 0
6 73 10 200 10 127 0 200 -4 200 -10z m5 -36 c19 -16 19 -16 -5 -10 -18 5 -14
1 12 -14 20 -11 39 -24 43 -30 4 -6 -83 -9 -247 -9 -232 0 -251 2 -230 16 12
8 22 21 22 27 0 32 25 36 205 36 148 -1 184 -3 200 -16z"/>
<path d="M564 69 c27 -4 63 -18 80 -30 24 -17 27 -18 16 -4 -20 25 -72 45
-112 44 -27 -1 -24 -3 16 -10z"/>
<path d="M793 73 c9 -2 23 -2 30 0 6 3 -1 5 -18 5 -16 0 -22 -2 -12 -5z"/>
<path d="M715 45 c-52 -32 -40 -32 16 0 24 14 40 25 34 25 -5 0 -28 -11 -50
-25z"/>
<path d="M198 123 c7 -3 16 -2 19 1 4 3 -2 6 -13 5 -11 0 -14 -3 -6 -6z"/>
<path d="M55 50 c-7 -23 1 -40 18 -40 8 0 7 3 -2 9 -21 13 -5 44 19 38 11 -3
18 -1 14 4 -10 16 -43 9 -49 -11z"/>
<path d="M100 25 c-7 -9 -8 -15 -2 -15 5 0 12 7 16 15 3 8 4 15 2 15 -2 0 -9
-7 -16 -15z"/>
</g>


</symbol>
</svg>
